<svg id="Capa_1" data-name="Capa 1" xmlns="http://www.w3.org/2000/svg" xmlns:xlink="http://www.w3.org/1999/xlink" viewBox="0 0 1058.01 1058"><defs><symbol id="Nuevo_símbolo_4" data-name="Nuevo símbolo 4" viewBox="0 0 90.88 90.88"><rect x="1.5" y="1.5" width="87.88" height="87.88" rx="27.73" fill="#f3e0fe"/><path d="M61.65,90.88H29.23A29.26,29.26,0,0,1,0,61.65V29.23A29.26,29.26,0,0,1,29.23,0H61.65A29.26,29.26,0,0,1,90.88,29.23V61.65A29.26,29.26,0,0,1,61.65,90.88ZM29.23,3A26.26,26.26,0,0,0,3,29.23V61.65A26.26,26.26,0,0,0,29.23,87.88H61.65A26.26,26.26,0,0,0,87.88,61.65V29.23A26.26,26.26,0,0,0,61.65,3Z" fill="#6d5c8e"/><g opacity="0.6"><path d="M38.17,21.15a18.73,18.73,0,0,1,7,1.32A18,18,0,0,1,51,26.18a18.43,18.43,0,0,1,4,5.64,16.46,16.46,0,0,1,1.52,7v25.5a4.71,4.71,0,0,1-1.4,3.4,4.9,4.9,0,0,1-3.45,1.52A5,5,0,0,1,48.13,68a4.29,4.29,0,0,1-1.48-3.36V55.73H29.77v8.63a4.65,4.65,0,0,1-1.51,3.44,4.83,4.83,0,0,1-3.48,1.48,5.05,5.05,0,0,1-3.48-1.37,4.28,4.28,0,0,1-1.51-3.32V39.46a19.22,19.22,0,0,1,1.47-7.11,18.36,18.36,0,0,1,3.86-5.83,18.1,18.1,0,0,1,13.05-5.37Zm8.48,18.31A8.65,8.65,0,0,0,46,36.17a8.05,8.05,0,0,0-1.82-2.69,9.24,9.24,0,0,0-2.72-1.81A8.22,8.22,0,0,0,38.1,31a8,8,0,0,0-3.18.64,9.19,9.19,0,0,0-2.65,1.7,8.06,8.06,0,0,0-1.81,2.57,7.59,7.59,0,0,0-.69,3.18v6.81H46.65Z" fill="#6d5c8e"/><path d="M66.33,21.53A4.47,4.47,0,0,1,69.69,23a4.94,4.94,0,0,1,0,6.89,4.47,4.47,0,0,1-3.36,1.47,5.26,5.26,0,0,1-3.6-1.4,4.91,4.91,0,0,1-1.4-3.74,4.63,4.63,0,0,1,1.55-3.33A4.92,4.92,0,0,1,66.33,21.53Zm0,11.57a4.3,4.3,0,0,1,3.29,1.44A5.6,5.6,0,0,1,71.09,38V64.81a4.81,4.81,0,0,1-1.28,3.41,5.06,5.06,0,0,1-3.48,1.51A4.79,4.79,0,0,1,63,68.52a5.34,5.34,0,0,1-1.67-3.41V37.72a4.68,4.68,0,0,1,1.59-3.25A5.3,5.3,0,0,1,66.33,33.1Z" fill="#6d5c8e"/></g></symbol></defs><title>ai</title><use width="90.88" height="90.88" transform="translate(0 0) scale(11.64)" xlink:href="#Nuevo_símbolo_4"/></svg>