<svg id="Capa_1" data-name="Capa 1" xmlns="http://www.w3.org/2000/svg" viewBox="0 0 1054.59 851"><title>carpeta</title><g id="Nuevo_símbolo_2" data-name="Nuevo símbolo 2"><rect x="28.05" y="88.93" width="879.06" height="565.69" rx="121.2" fill="#a390bd"/><path d="M798.62,217.45A107.3,107.3,0,0,1,905.79,324.62v323.3A107.3,107.3,0,0,1,798.62,755.09H162A107.29,107.29,0,0,1,54.79,647.92V324.62A107.29,107.29,0,0,1,162,217.45H798.62m0-28H162A135.22,135.22,0,0,0,26.73,324.62v323.3A135.23,135.23,0,0,0,162,783.15H798.62A135.24,135.24,0,0,0,933.85,647.92V324.62A135.23,135.23,0,0,0,798.62,189.4Z" transform="translate(-12.7 -114.5)" fill="#6d5c8e"/><path d="M1053.27,439V840.19A135.08,135.08,0,0,1,920.19,951.48H162A135.19,135.19,0,0,1,26.73,816.25V260.67A132.18,132.18,0,0,1,158.87,128.53h166A132.18,132.18,0,0,1,457,260.67v46.1H921.13A132.21,132.21,0,0,1,1053.27,439Z" transform="translate(-12.7 -114.5)" fill="#ddcaf7"/><path d="M920.19,965.5H162c-82.3,0-149.26-67-149.26-149.25V260.67c0-80.6,65.58-146.17,146.17-146.17h166c80.6,0,146.17,65.57,146.17,146.17v32.07h450.1c80.59,0,146.17,65.62,146.17,146.26V840.19a14.31,14.31,0,0,1-.22,2.45A148.85,148.85,0,0,1,920.19,965.5ZM158.87,142.56A118.24,118.24,0,0,0,40.76,260.67V816.25A121.33,121.33,0,0,0,162,937.44H920.19a120.83,120.83,0,0,0,119-98.52V439c0-65.18-53-118.2-118.11-118.2H457a14,14,0,0,1-14-14v-46.1A118.24,118.24,0,0,0,324.86,142.56Zm894.4,697.63h0Z" transform="translate(-12.7 -114.5)" fill="#6d5c8e"/><line x1="161.55" y1="121.2" x2="296.78" y2="121.2" fill="#ddcaf7"/><path d="M309.49,249.73H174.25a14,14,0,0,1,0-28.06H309.49a14,14,0,0,1,0,28.06Z" transform="translate(-12.7 -114.5)" fill="#6d5c8e"/></g></svg>