<svg id="Capa_1" data-name="Capa 1" xmlns="http://www.w3.org/2000/svg" viewBox="0 0 1043.55 928.34"><title>corazon</title><g id="Nuevo_símbolo_2" data-name="Nuevo símbolo 2"><path d="M971,251.45c-18.41-28.9-60.76-83.4-137-110.65-14-5-109.92-37.56-209,11.41A263.62,263.62,0,0,0,540,220a263.57,263.57,0,0,0-85.07-67.76c-99.05-49-195-16.38-209-11.41-76.23,27.25-118.58,81.75-137,110.65-51.19,80.47-41.24,167.92-38.3,191.68,6.08,49.15,22.83,83.59,38.48,115.07,37.93,75.68,85.25,122.26,116.37,151.53,26.33,24.68,53.39,48.61,80.28,71.08L417.56,869c27.62,20.44,53.21,38.67,75.49,54.13L540,954.43l47-31.3c23.57-16.39,50.82-35.72,80.28-57.81l93.9-73.65c31.12-25.59,62.6-53.21,93.35-81.94C885.6,680.46,932.92,633.88,970.84,558c15.65-31.49,32.41-65.74,38.48-114.89C1012.27,419.37,1022.22,331.92,971,251.45Z" transform="translate(-18.23 -75.83)" fill="#fbf9ff"/><path d="M540,1004.17a49.69,49.69,0,0,1-27.59-8.35l-46.94-31.31C442.06,948.26,416,929.74,388,909L275,819.85C245.85,795.53,218.14,771,191.52,746c-27-25.38-83-78.09-126.82-165.55C48.55,548,28.54,507.67,21.32,449.26,11,365.66,26.76,288.05,67,224.76c22.44-35.21,73.34-99,162.21-130.79C259.35,83.3,365.94,52.75,477,107.63a308.12,308.12,0,0,1,63,41.72,307,307,0,0,1,62.91-41.65C714,52.74,820.68,83.27,850.69,93.94c89,31.79,139.87,95.61,162.28,130.82h0c40.24,63.29,56,140.9,45.68,224.5-7.19,58.25-27.23,98.52-43.29,130.9C971.52,667.94,915.48,720.61,888.54,746c-31.57,29.5-63.75,57.73-95.8,84.12l-94.8,74.37c-30.86,23.15-58.61,42.84-82.6,59.51l-47.75,31.86A49.69,49.69,0,0,1,540,1004.17ZM338.61,175.35c-38.2,0-67.5,9.29-76,12.32-60.83,21.74-96.09,66.06-111.7,90.51C131.59,308.52,110.55,360.74,120,437c5.15,41.57,19.66,70.81,33.71,99.08,35.81,71.52,81.39,114.38,105.87,137.4,25.22,23.64,51.51,46.92,78.09,69.16L448.37,830c25.94,19.17,51.13,37.1,73,52.35L540,894.67l19.36-12.92c22.34-15.54,49.12-34.51,78-56.2l93.05-73c29.53-24.32,60.16-51.19,90.11-79.17,24.35-22.89,69.9-65.75,105.81-137.6,14-28.13,28.49-57.34,33.64-98.75,9.45-76.25-11.59-128.47-30.89-158.84h0c-15.61-24.45-50.87-68.77-111.8-90.54-14.67-5.2-92.21-29.44-170.21,9.16a213.15,213.15,0,0,0-68.89,55c-18.91,22.67-57.51,22.67-76.42,0a213.61,213.61,0,0,0-69-55.06C399.74,180.4,366.75,175.35,338.61,175.35Z" transform="translate(-18.23 -75.83)" fill="#6d5c8e"/></g></svg>