<svg id="acdaccef-c4d6-4372-bdfa-66e7a7214af5" data-name="Capa 1" xmlns="http://www.w3.org/2000/svg" viewBox="0 0 1467.66 103.09">
  <title>cosito</title>
  <g>
    <g>
      <path d="M1673.79,382.62a40.3,40.3,0,0,1-32.07-15.75.49.49,0,0,0-.39-.19.51.51,0,0,0-.4.19,40.53,40.53,0,0,1-64.14,0,.49.49,0,0,0-.39-.19.51.51,0,0,0-.4.19,40.52,40.52,0,0,1-64.13,0,.49.49,0,0,0-.39-.19.51.51,0,0,0-.4.19,40.53,40.53,0,0,1-64.14,0,.49.49,0,0,0-.39-.19.51.51,0,0,0-.4.19,40.53,40.53,0,0,1-64.14,0,.49.49,0,0,0-.39-.19.51.51,0,0,0-.4.19,40.53,40.53,0,0,1-64.14,0,.49.49,0,0,0-.39-.19.51.51,0,0,0-.4.19,40.53,40.53,0,0,1-64.14,0,.49.49,0,0,0-.39-.19.51.51,0,0,0-.4.19,40.52,40.52,0,0,1-64.13,0,.49.49,0,0,0-.39-.19.51.51,0,0,0-.4.19,40.53,40.53,0,0,1-64.14,0,.49.49,0,0,0-.39-.19.51.51,0,0,0-.4.19,40.53,40.53,0,0,1-64.14,0,.49.49,0,0,0-.39-.19.51.51,0,0,0-.4.19,40.53,40.53,0,0,1-64.14,0,.49.49,0,0,0-.39-.19.51.51,0,0,0-.4.19,40.53,40.53,0,0,1-64.14,0,.49.49,0,0,0-.39-.19.51.51,0,0,0-.4.19,40.53,40.53,0,0,1-64.14,0,.49.49,0,0,0-.39-.19.51.51,0,0,0-.4.19,40.53,40.53,0,0,1-64.14,0,.49.49,0,0,0-.39-.19.51.51,0,0,0-.4.19,40.53,40.53,0,0,1-64.14,0,.49.49,0,0,0-.39-.19.51.51,0,0,0-.4.19,40.53,40.53,0,0,1-64.14,0,.49.49,0,0,0-.39-.19.51.51,0,0,0-.4.19,40.53,40.53,0,0,1-64.14,0,.49.49,0,0,0-.39-.19.51.51,0,0,0-.4.19,40.53,40.53,0,0,1-64.14,0,.49.49,0,0,0-.39-.19.51.51,0,0,0-.4.19,40.52,40.52,0,0,1-64.13,0,.49.49,0,0,0-.39-.19.51.51,0,0,0-.4.19,40.46,40.46,0,0,1-32.07,15.75,40.3,40.3,0,0,1-32.07-15.75.49.49,0,0,0-.39-.19.51.51,0,0,0-.4.19,40.3,40.3,0,0,1-32.07,15.75h-.11a40.26,40.26,0,0,1-31.95-15.75.49.49,0,0,0-.39-.19.51.51,0,0,0-.4.19,40.53,40.53,0,0,1-64.14,0,.49.49,0,0,0-.39-.19.51.51,0,0,0-.4.19,40.54,40.54,0,0,1-51.1,11l-.09-.05V320a19.93,19.93,0,0,1,.35-3.73V280.53h1466v35.92a22.07,22.07,0,0,1,.3,3.5v57.88h0A40.51,40.51,0,0,1,1673.79,382.62ZM957.43,367.07a3.77,3.77,0,0,0-1.16.18,3.32,3.32,0,0,0-1.73,1.37,3.54,3.54,0,0,0-.49,2.33,4.21,4.21,0,0,0,.47,1.38,6.11,6.11,0,0,0,1.34,1.72,29.47,29.47,0,0,0,3.44,2.63.54.54,0,0,0,.28.08.53.53,0,0,0,.27-.08,27.48,27.48,0,0,0,3.44-2.62,5.74,5.74,0,0,0,1.35-1.74,3.57,3.57,0,0,0,.46-1.37,3.41,3.41,0,0,0-.48-2.33,3.28,3.28,0,0,0-1.73-1.36,3.39,3.39,0,0,0-1.15-.19,3.29,3.29,0,0,0-1.46.33,3.22,3.22,0,0,0-.7.45,3.58,3.58,0,0,0-.69-.45A3.29,3.29,0,0,0,957.43,367.07Zm-454.5,0a3.77,3.77,0,0,0-1.16.18,3.32,3.32,0,0,0-1.73,1.37,3.54,3.54,0,0,0-.49,2.33,4.21,4.21,0,0,0,.47,1.38,6.11,6.11,0,0,0,1.34,1.72,29.47,29.47,0,0,0,3.44,2.63.54.54,0,0,0,.28.08.53.53,0,0,0,.27-.08,27.48,27.48,0,0,0,3.44-2.62,5.94,5.94,0,0,0,1.35-1.74,3.57,3.57,0,0,0,.46-1.37,3.41,3.41,0,0,0-.48-2.33,3.28,3.28,0,0,0-1.73-1.36,3.39,3.39,0,0,0-1.15-.19,3.29,3.29,0,0,0-1.46.33,3.22,3.22,0,0,0-.7.45,3.58,3.58,0,0,0-.69-.45A3.29,3.29,0,0,0,502.93,367.07Zm779.14,0a3.46,3.46,0,0,0-1.16.19,3.24,3.24,0,0,0-1.73,1.37,3.42,3.42,0,0,0-.48,2.34,3.9,3.9,0,0,0,.46,1.36,5.82,5.82,0,0,0,1.36,1.73,26.61,26.61,0,0,0,3.43,2.62.57.57,0,0,0,.28.08.53.53,0,0,0,.27-.08,28.36,28.36,0,0,0,3.43-2.62,6.08,6.08,0,0,0,1.35-1.74,3.74,3.74,0,0,0,.47-1.36,3.54,3.54,0,0,0-.48-2.34,3.3,3.3,0,0,0-1.73-1.36,3.62,3.62,0,0,0-1.16-.19,3.29,3.29,0,0,0-1.46.33,3.39,3.39,0,0,0-.7.45,3,3,0,0,0-.7-.45A3.22,3.22,0,0,0,1282.07,367.07Zm64.93,0a3.77,3.77,0,0,0-1.16.18,3.33,3.33,0,0,0-1.73,1.38,3.44,3.44,0,0,0-.49,2.32,4.21,4.21,0,0,0,.47,1.38,6.11,6.11,0,0,0,1.34,1.72,29.16,29.16,0,0,0,3.44,2.63.53.53,0,0,0,.56,0,28.65,28.65,0,0,0,3.43-2.62,6.08,6.08,0,0,0,1.35-1.74,3.86,3.86,0,0,0,.47-1.36,3.43,3.43,0,0,0-.5-2.34,3.25,3.25,0,0,0-1.71-1.36,3.62,3.62,0,0,0-1.16-.19,3.29,3.29,0,0,0-1.46.33,4,4,0,0,0-.7.45,3.58,3.58,0,0,0-.69-.45A3.29,3.29,0,0,0,1347,367.07Zm-454.5,0a3.77,3.77,0,0,0-1.16.18,3.33,3.33,0,0,0-1.73,1.38,3.44,3.44,0,0,0-.49,2.32,4.21,4.21,0,0,0,.47,1.38,6.11,6.11,0,0,0,1.34,1.72,29.16,29.16,0,0,0,3.44,2.63.53.53,0,0,0,.56,0,29.49,29.49,0,0,0,3.43-2.62,6.08,6.08,0,0,0,1.35-1.74,3.67,3.67,0,0,0,.47-1.36,3.49,3.49,0,0,0-.49-2.34,3.33,3.33,0,0,0-1.72-1.36,3.62,3.62,0,0,0-1.16-.19,3.29,3.29,0,0,0-1.46.33,3.39,3.39,0,0,0-.7.45,3.58,3.58,0,0,0-.69-.45A3.29,3.29,0,0,0,892.5,367.07Zm-454.5,0a3.77,3.77,0,0,0-1.16.18,3.33,3.33,0,0,0-1.73,1.38,3.44,3.44,0,0,0-.49,2.32,4.21,4.21,0,0,0,.47,1.38,6.11,6.11,0,0,0,1.34,1.72,29.16,29.16,0,0,0,3.44,2.63.53.53,0,0,0,.56,0,29.49,29.49,0,0,0,3.43-2.62,6.08,6.08,0,0,0,1.35-1.74,3.67,3.67,0,0,0,.47-1.36,3.49,3.49,0,0,0-.49-2.34,3.33,3.33,0,0,0-1.72-1.36,3.62,3.62,0,0,0-1.16-.19,3.29,3.29,0,0,0-1.46.33,3.39,3.39,0,0,0-.7.45,3,3,0,0,0-.7-.45A3.22,3.22,0,0,0,438,367.07Zm1103.79,0a3.77,3.77,0,0,0-1.16.18,3.32,3.32,0,0,0-1.73,1.37,3.36,3.36,0,0,0-.49,2.33,3.88,3.88,0,0,0,.46,1.38,6.28,6.28,0,0,0,1.35,1.72,29.16,29.16,0,0,0,3.44,2.63.57.57,0,0,0,.28.08.53.53,0,0,0,.27-.08,27.87,27.87,0,0,0,3.43-2.62,6.17,6.17,0,0,0,1.36-1.73,3.69,3.69,0,0,0,.46-1.38,3.41,3.41,0,0,0-.49-2.34,3.27,3.27,0,0,0-1.72-1.35,3.58,3.58,0,0,0-1.16-.19,3.29,3.29,0,0,0-1.46.33.75.75,0,0,1-1.38,0A3.29,3.29,0,0,0,1541.79,367.07Zm-64.93,0a3.54,3.54,0,0,0-1.16.19,3.26,3.26,0,0,0-1.73,1.36,3.35,3.35,0,0,0-.49,2.33,3.94,3.94,0,0,0,.45,1.34,6,6,0,0,0,1.36,1.76,29.42,29.42,0,0,0,3.44,2.63.54.54,0,0,0,.28.08.53.53,0,0,0,.27-.08,28.63,28.63,0,0,0,3.44-2.62,6.13,6.13,0,0,0,1.35-1.73,3.69,3.69,0,0,0,.46-1.38,3.36,3.36,0,0,0-.49-2.33,3.23,3.23,0,0,0-1.72-1.36,3.62,3.62,0,0,0-1.16-.19,3.29,3.29,0,0,0-1.46.33,3.15,3.15,0,0,0-.69.45,3.58,3.58,0,0,0-.69-.45A3.29,3.29,0,0,0,1476.86,367.07Zm-324.65,0a3.75,3.75,0,0,0-1.15.18,3.36,3.36,0,0,0-1.73,1.37,3.4,3.4,0,0,0-.49,2.33,3.88,3.88,0,0,0,.46,1.38,6,6,0,0,0,1.36,1.73,29.19,29.19,0,0,0,3.43,2.62.54.54,0,0,0,.28.08.53.53,0,0,0,.27-.08,28.65,28.65,0,0,0,3.43-2.62,6.17,6.17,0,0,0,1.36-1.73,4.15,4.15,0,0,0,.46-1.37,3.38,3.38,0,0,0-.48-2.34,3.3,3.3,0,0,0-1.73-1.36,3.62,3.62,0,0,0-1.16-.19,3.29,3.29,0,0,0-1.46.33,3.05,3.05,0,0,0-.69.45,3.41,3.41,0,0,0-.69-.45A3.36,3.36,0,0,0,1152.21,367.07Zm-64.92,0a3.54,3.54,0,0,0-1.16.19,3.26,3.26,0,0,0-1.73,1.36,3.36,3.36,0,0,0-.49,2.33,4,4,0,0,0,.46,1.38,6.28,6.28,0,0,0,1.35,1.72,29.42,29.42,0,0,0,3.44,2.63.54.54,0,0,0,.28.08.53.53,0,0,0,.27-.08,28.36,28.36,0,0,0,3.43-2.62,6.17,6.17,0,0,0,1.36-1.73A3.69,3.69,0,0,0,1095,371a3.41,3.41,0,0,0-.49-2.34,3.27,3.27,0,0,0-1.72-1.35,3.62,3.62,0,0,0-1.16-.19,3.29,3.29,0,0,0-1.46.33.75.75,0,0,1-1.38,0A3.29,3.29,0,0,0,1087.29,367.07Zm584.35,0a3.46,3.46,0,0,0-1.16.19,3.28,3.28,0,0,0-1.73,1.37,3.42,3.42,0,0,0-.48,2.34,3.9,3.9,0,0,0,.46,1.36,6,6,0,0,0,1.36,1.73,27.94,27.94,0,0,0,3.43,2.62.54.54,0,0,0,.28.08.53.53,0,0,0,.27-.08,28.65,28.65,0,0,0,3.43-2.62,6,6,0,0,0,1.35-1.73,4,4,0,0,0,.47-1.37,3.41,3.41,0,0,0-.49-2.34,3.23,3.23,0,0,0-1.72-1.36,3.62,3.62,0,0,0-1.16-.19,3.29,3.29,0,0,0-1.46.33,3.39,3.39,0,0,0-.7.45,3.21,3.21,0,0,0-2.15-.78Zm-64.93,0a3.75,3.75,0,0,0-1.15.18,3.36,3.36,0,0,0-1.73,1.37,3.4,3.4,0,0,0-.49,2.33,3.88,3.88,0,0,0,.46,1.38,6,6,0,0,0,1.36,1.73,29.47,29.47,0,0,0,3.43,2.62.54.54,0,0,0,.28.08.53.53,0,0,0,.27-.08,28.65,28.65,0,0,0,3.43-2.62,6.17,6.17,0,0,0,1.36-1.73,4.31,4.31,0,0,0,.46-1.37,3.42,3.42,0,0,0-.48-2.34,3.3,3.3,0,0,0-1.73-1.36,3.62,3.62,0,0,0-1.16-.19,3.29,3.29,0,0,0-1.46.33,3.05,3.05,0,0,0-.69.45,3.41,3.41,0,0,0-.69-.45A3.36,3.36,0,0,0,1606.71,367.07Zm-194.78,0a3.77,3.77,0,0,0-1.16.18,3.36,3.36,0,0,0-1.73,1.37,3.48,3.48,0,0,0-.49,2.33,4.21,4.21,0,0,0,.47,1.38,6.11,6.11,0,0,0,1.34,1.72,29.42,29.42,0,0,0,3.44,2.63.54.54,0,0,0,.28.08.53.53,0,0,0,.27-.08,27.85,27.85,0,0,0,3.44-2.62,5.94,5.94,0,0,0,1.35-1.73,3.69,3.69,0,0,0,.46-1.38,3.41,3.41,0,0,0-.48-2.33,3.28,3.28,0,0,0-1.73-1.36,3.39,3.39,0,0,0-1.15-.19,3.29,3.29,0,0,0-1.46.33,3.22,3.22,0,0,0-.7.45,3.58,3.58,0,0,0-.69-.45A3.29,3.29,0,0,0,1411.93,367.07Zm-194.79,0a3.75,3.75,0,0,0-1.15.18,3.32,3.32,0,0,0-1.74,1.38,3.36,3.36,0,0,0-.48,2.32,3.88,3.88,0,0,0,.46,1.38,6,6,0,0,0,1.36,1.73,27.94,27.94,0,0,0,3.43,2.62.54.54,0,0,0,.28.08.53.53,0,0,0,.27-.08,28.65,28.65,0,0,0,3.43-2.62,6,6,0,0,0,1.35-1.73,4,4,0,0,0,.47-1.37,3.41,3.41,0,0,0-.49-2.34,3.23,3.23,0,0,0-1.72-1.36,3.62,3.62,0,0,0-1.16-.19,3.29,3.29,0,0,0-1.46.33,3.39,3.39,0,0,0-.7.45,3.21,3.21,0,0,0-2.15-.78Zm-194.78,0a3.77,3.77,0,0,0-1.16.18,3.32,3.32,0,0,0-1.73,1.37A3.36,3.36,0,0,0,1019,371a4.19,4.19,0,0,0,.44,1.34,6.19,6.19,0,0,0,1.37,1.76,29.42,29.42,0,0,0,3.44,2.63.54.54,0,0,0,.28.08.53.53,0,0,0,.27-.08,27.85,27.85,0,0,0,3.44-2.62,6.13,6.13,0,0,0,1.35-1.73A3.69,3.69,0,0,0,1030,371a3.42,3.42,0,0,0-.48-2.33,3.28,3.28,0,0,0-1.73-1.36,3.62,3.62,0,0,0-1.16-.19,3.29,3.29,0,0,0-1.46.33,3.15,3.15,0,0,0-.69.45,3.58,3.58,0,0,0-.69-.45A3.29,3.29,0,0,0,1022.36,367.07Zm-194.79,0a3.46,3.46,0,0,0-1.16.19,3.24,3.24,0,0,0-1.73,1.37,3.42,3.42,0,0,0-.48,2.34,3.9,3.9,0,0,0,.46,1.36,6.09,6.09,0,0,0,1.36,1.73,28.74,28.74,0,0,0,3.43,2.62.54.54,0,0,0,.28.08.53.53,0,0,0,.27-.08,28.65,28.65,0,0,0,3.43-2.62,6.08,6.08,0,0,0,1.35-1.74,3.86,3.86,0,0,0,.47-1.36,3.6,3.6,0,0,0-.48-2.34,3.3,3.3,0,0,0-1.73-1.36,3.62,3.62,0,0,0-1.16-.19,3.29,3.29,0,0,0-1.46.33,3.39,3.39,0,0,0-.7.45,3,3,0,0,0-.7-.45A3.22,3.22,0,0,0,827.57,367.07Zm-64.93,0a3.75,3.75,0,0,0-1.15.18,3.32,3.32,0,0,0-1.73,1.37,3.36,3.36,0,0,0-.49,2.33,3.88,3.88,0,0,0,.46,1.38,6,6,0,0,0,1.36,1.73,27.49,27.49,0,0,0,3.43,2.62.54.54,0,0,0,.28.08.53.53,0,0,0,.27-.08,29.49,29.49,0,0,0,3.43-2.62,6.17,6.17,0,0,0,1.36-1.73,4.31,4.31,0,0,0,.46-1.37,3.44,3.44,0,0,0-.48-2.34,3.3,3.3,0,0,0-1.73-1.36,3.62,3.62,0,0,0-1.16-.19,3.29,3.29,0,0,0-1.46.33,3.39,3.39,0,0,0-.7.45,2.87,2.87,0,0,0-.68-.45A3.36,3.36,0,0,0,762.64,367.07Zm-64.92,0a3.77,3.77,0,0,0-1.16.18,3.32,3.32,0,0,0-1.73,1.37,3.36,3.36,0,0,0-.49,2.33,3.88,3.88,0,0,0,.46,1.38,6.13,6.13,0,0,0,1.35,1.72,29.47,29.47,0,0,0,3.44,2.63.54.54,0,0,0,.28.08.53.53,0,0,0,.27-.08,27.87,27.87,0,0,0,3.43-2.62,6.17,6.17,0,0,0,1.36-1.73,4,4,0,0,0,.46-1.37,3.44,3.44,0,0,0-.48-2.34,3.3,3.3,0,0,0-1.73-1.36,3.62,3.62,0,0,0-1.16-.19,3.29,3.29,0,0,0-1.46.33.75.75,0,0,1-1.38,0A3.29,3.29,0,0,0,697.72,367.07Zm-64.93,0a3.77,3.77,0,0,0-1.16.18,3.37,3.37,0,0,0-2.22,3.7,3.94,3.94,0,0,0,.45,1.34,6,6,0,0,0,1.36,1.76,29.16,29.16,0,0,0,3.44,2.63.54.54,0,0,0,.28.08.53.53,0,0,0,.27-.08,28.36,28.36,0,0,0,3.43-2.62,6,6,0,0,0,1.36-1.73,3.69,3.69,0,0,0,.46-1.38,3.42,3.42,0,0,0-.48-2.33,3.3,3.3,0,0,0-1.73-1.36,3.62,3.62,0,0,0-1.16-.19,3.29,3.29,0,0,0-1.46.33,3.15,3.15,0,0,0-.69.45,3.58,3.58,0,0,0-.69-.45A3.29,3.29,0,0,0,632.79,367.07Zm-64.93,0a3.77,3.77,0,0,0-1.16.18,3.32,3.32,0,0,0-1.73,1.37,3.36,3.36,0,0,0-.49,2.33,4,4,0,0,0,.47,1.38,6.11,6.11,0,0,0,1.34,1.72,29.42,29.42,0,0,0,3.44,2.63.54.54,0,0,0,.28.08.53.53,0,0,0,.27-.08,27.85,27.85,0,0,0,3.44-2.62,6.13,6.13,0,0,0,1.35-1.73,3.69,3.69,0,0,0,.46-1.38,3.41,3.41,0,0,0-.48-2.33,3.28,3.28,0,0,0-1.73-1.36,3.62,3.62,0,0,0-1.16-.19,3.29,3.29,0,0,0-1.46.33,3.15,3.15,0,0,0-.69.45,3.58,3.58,0,0,0-.69-.45A3.29,3.29,0,0,0,567.86,367.07Zm-194.79,0a3.46,3.46,0,0,0-1.16.19,3.24,3.24,0,0,0-1.73,1.37,3.42,3.42,0,0,0-.48,2.34,3.9,3.9,0,0,0,.46,1.36,6,6,0,0,0,1.36,1.73,28.74,28.74,0,0,0,3.43,2.62.54.54,0,0,0,.28.08.53.53,0,0,0,.27-.08,28.65,28.65,0,0,0,3.43-2.62,6.08,6.08,0,0,0,1.35-1.74,3.86,3.86,0,0,0,.47-1.36,3.6,3.6,0,0,0-.48-2.34,3.3,3.3,0,0,0-1.73-1.36,3.62,3.62,0,0,0-1.16-.19,3.29,3.29,0,0,0-1.46.33,3.39,3.39,0,0,0-.7.45,3,3,0,0,0-.7-.45A3.22,3.22,0,0,0,373.07,367.07Zm-64.93,0a3.75,3.75,0,0,0-1.15.18,3.32,3.32,0,0,0-1.73,1.37,3.36,3.36,0,0,0-.49,2.33,3.88,3.88,0,0,0,.46,1.38,6,6,0,0,0,1.36,1.73,27.49,27.49,0,0,0,3.43,2.62.54.54,0,0,0,.28.08.53.53,0,0,0,.27-.08,29.49,29.49,0,0,0,3.43-2.62,6.17,6.17,0,0,0,1.36-1.73,4.31,4.31,0,0,0,.46-1.37,3.44,3.44,0,0,0-.48-2.34,3.3,3.3,0,0,0-1.73-1.36,3.62,3.62,0,0,0-1.16-.19,3.29,3.29,0,0,0-1.46.33,3.39,3.39,0,0,0-.7.45,2.87,2.87,0,0,0-.68-.45A3.36,3.36,0,0,0,308.14,367.07Zm-64.92,0a3.77,3.77,0,0,0-1.16.18,3.32,3.32,0,0,0-1.73,1.37,3.36,3.36,0,0,0-.49,2.33,3.88,3.88,0,0,0,.46,1.38,6.13,6.13,0,0,0,1.35,1.72,29.47,29.47,0,0,0,3.44,2.63.54.54,0,0,0,.28.08.53.53,0,0,0,.27-.08,27.87,27.87,0,0,0,3.43-2.62,6.17,6.17,0,0,0,1.36-1.73,3.69,3.69,0,0,0,.46-1.38,3.42,3.42,0,0,0-.48-2.33,3.3,3.3,0,0,0-1.73-1.36,3.62,3.62,0,0,0-1.16-.19,3.29,3.29,0,0,0-1.46.33,3.15,3.15,0,0,0-.69.45,3.15,3.15,0,0,0-.69-.45A3.29,3.29,0,0,0,243.22,367.07Z" transform="translate(-225.75 -280.03)" fill="#f3e0fe"/>
      <path d="M1692.11,281v35.42a.86.86,0,0,0,0,.16,20.47,20.47,0,0,1,.29,3.34v57.58a40,40,0,0,1-50.29-11,1,1,0,0,0-.79-.39h0a1,1,0,0,0-.79.39,40,40,0,0,1-63.35,0,1,1,0,0,0-.79-.39h0a1,1,0,0,0-.79.39,40,40,0,0,1-63.34,0,1,1,0,0,0-1.58,0,40,40,0,0,1-63.35,0,1,1,0,0,0-1.58,0,40,40,0,0,1-63.35,0,1,1,0,0,0-1.58,0,40,40,0,0,1-63.35,0,1,1,0,0,0-.79-.39h0a1,1,0,0,0-.79.39,40,40,0,0,1-63.35,0,1,1,0,0,0-.79-.39h0a1,1,0,0,0-.79.39,40,40,0,0,1-63.34,0,1,1,0,0,0-1.58,0,40,40,0,0,1-63.35,0,1,1,0,0,0-1.58,0,40,40,0,0,1-63.35,0,1,1,0,0,0-1.58,0,40,40,0,0,1-63.35,0,1,1,0,0,0-1.58,0,40,40,0,0,1-63.35,0,1,1,0,0,0-1.58,0,40,40,0,0,1-63.35,0,1,1,0,0,0-1.58,0,40,40,0,0,1-63.35,0,1,1,0,0,0-1.58,0,40,40,0,0,1-63.35,0,1,1,0,0,0-1.58,0,40,40,0,0,1-63.35,0,1,1,0,0,0-.79-.39h0a1,1,0,0,0-.79.39,40,40,0,0,1-63.35,0,1,1,0,0,0-.79-.39h0a1,1,0,0,0-.79.39,40,40,0,0,1-63.35,0,1,1,0,0,0-.79-.39h0a1,1,0,0,0-.79.39,40,40,0,0,1-63.34,0,1,1,0,0,0-1.58,0,40.58,40.58,0,0,1-13.19,11,40,40,0,0,1-50.16-11,1,1,0,0,0-1.58,0,39.83,39.83,0,0,1-31.68,15.55h-.11a39.77,39.77,0,0,1-31.55-15.55,1,1,0,0,0-1.58,0,40,40,0,0,1-63.35,0,1,1,0,0,0-1.58,0,40.05,40.05,0,0,1-50.3,11V320a19.9,19.9,0,0,1,.34-3.64,1.1,1.1,0,0,0,0-.18V281h1465m-18.31,86.19a3.72,3.72,0,0,0-.48-.27,3.86,3.86,0,0,0-1.68-.38,4.15,4.15,0,0,0-1.32.21,3.78,3.78,0,0,0-2,1.56,3.9,3.9,0,0,0-.57,2.66,4.53,4.53,0,0,0,.52,1.56,6.51,6.51,0,0,0,1.46,1.86,26.52,26.52,0,0,0,3.5,2.67,1,1,0,0,0,.55.17,1,1,0,0,0,.55-.17,28.58,28.58,0,0,0,3.5-2.67,6.55,6.55,0,0,0,1.45-1.86,4.6,4.6,0,0,0,.52-1.55,3.85,3.85,0,0,0-2.56-4.23,4,4,0,0,0-1.31-.21,3.83,3.83,0,0,0-1.68.38,4.91,4.91,0,0,0-.47.27m-64.93,0a3.72,3.72,0,0,0-.48-.27,3.83,3.83,0,0,0-1.68-.38,4.15,4.15,0,0,0-1.32.21,3.88,3.88,0,0,0-2,1.56,4,4,0,0,0-.57,2.66,4.53,4.53,0,0,0,.52,1.56,6.73,6.73,0,0,0,1.46,1.87,29.28,29.28,0,0,0,3.5,2.66,1,1,0,0,0,.55.17,1,1,0,0,0,.55-.17,28.58,28.58,0,0,0,3.5-2.67,6.58,6.58,0,0,0,1.45-1.86l0-.05a4.6,4.6,0,0,0,.49-1.5,3.85,3.85,0,0,0-2.56-4.23,4,4,0,0,0-1.31-.21,3.83,3.83,0,0,0-1.68.38,4.91,4.91,0,0,0-.47.27m-64.93,0a4.39,4.39,0,0,0-.47-.27,3.86,3.86,0,0,0-1.68-.38,4.2,4.2,0,0,0-1.33.21,3.88,3.88,0,0,0-2,1.56,4,4,0,0,0-.57,2.66,4.53,4.53,0,0,0,.52,1.56,6.81,6.81,0,0,0,1.46,1.87,29.28,29.28,0,0,0,3.5,2.66,1,1,0,0,0,.55.17,1,1,0,0,0,.55-.17,28.58,28.58,0,0,0,3.5-2.67,6.75,6.75,0,0,0,1.46-1.86A4.35,4.35,0,0,0,1550,371a3.85,3.85,0,0,0-2.56-4.23,4,4,0,0,0-1.31-.21,3.83,3.83,0,0,0-1.68.38,3.59,3.59,0,0,0-.47.27m-64.93,0-.47-.27a3.86,3.86,0,0,0-1.68-.38,4.2,4.2,0,0,0-1.33.21,3.88,3.88,0,0,0-2,1.56A3.93,3.93,0,0,0,1473,371a4.9,4.9,0,0,0,.48,1.49l0,.05a6.81,6.81,0,0,0,1.46,1.87,29.28,29.28,0,0,0,3.5,2.66,1,1,0,0,0,.55.17,1,1,0,0,0,.55-.17,27.21,27.21,0,0,0,3.49-2.66,6.55,6.55,0,0,0,1.47-1.87A4.35,4.35,0,0,0,1485,371a3.85,3.85,0,0,0-2.56-4.23,4,4,0,0,0-1.31-.21,3.86,3.86,0,0,0-1.68.38,3.59,3.59,0,0,0-.47.27m-64.93,0a4.17,4.17,0,0,0-.47-.28,3.86,3.86,0,0,0-1.68-.38,4.2,4.2,0,0,0-1.33.21,3.84,3.84,0,0,0-2,1.57,3.93,3.93,0,0,0-.56,2.67,4.49,4.49,0,0,0,.51,1.53,6.7,6.7,0,0,0,1.46,1.88,29.28,29.28,0,0,0,3.5,2.66,1,1,0,0,0,.55.17,1,1,0,0,0,.55-.17,27.21,27.21,0,0,0,3.49-2.66,6.51,6.51,0,0,0,1.47-1.87,4.43,4.43,0,0,0,.51-1.53,3.93,3.93,0,0,0-.55-2.66,3.77,3.77,0,0,0-2-1.58,3.9,3.9,0,0,0-1.32-.22,3.76,3.76,0,0,0-1.67.38,3,3,0,0,0-.49.28m-64.93,0a4.17,4.17,0,0,0-.47-.28,3.86,3.86,0,0,0-1.68-.38,4.2,4.2,0,0,0-1.33.21,3.84,3.84,0,0,0-2,1.56,3.94,3.94,0,0,0-.57,2.68,4.49,4.49,0,0,0,.51,1.53,6.7,6.7,0,0,0,1.46,1.88,29.28,29.28,0,0,0,3.5,2.66,1,1,0,0,0,1.11,0,28.58,28.58,0,0,0,3.5-2.67,6.55,6.55,0,0,0,1.45-1.86,4.6,4.6,0,0,0,.52-1.55,3.92,3.92,0,0,0-.56-2.64,3.86,3.86,0,0,0-2-1.59,4,4,0,0,0-1.31-.21,3.83,3.83,0,0,0-1.68.38,3.57,3.57,0,0,0-.48.28m-64.93,0a3.24,3.24,0,0,0-.47-.28,3.86,3.86,0,0,0-1.68-.38,4.15,4.15,0,0,0-1.32.21,3.78,3.78,0,0,0-2,1.56,3.94,3.94,0,0,0-.56,2.69,4.31,4.31,0,0,0,.5,1.52,6.4,6.4,0,0,0,1.47,1.87,26.6,26.6,0,0,0,3.5,2.68,1,1,0,0,0,.55.16,1,1,0,0,0,.55-.17,28.58,28.58,0,0,0,3.5-2.67,6.55,6.55,0,0,0,1.45-1.86,4.6,4.6,0,0,0,.52-1.55,4,4,0,0,0-.56-2.66,3.86,3.86,0,0,0-2-1.57,4,4,0,0,0-1.31-.21,3.83,3.83,0,0,0-1.68.38,3.57,3.57,0,0,0-.48.28m-64.92,0a3.72,3.72,0,0,0-.48-.27,3.83,3.83,0,0,0-1.68-.38,4.15,4.15,0,0,0-1.32.21,3.78,3.78,0,0,0-2,1.56,4,4,0,0,0-.57,2.66,4.53,4.53,0,0,0,.52,1.56,6.51,6.51,0,0,0,1.46,1.86,26.52,26.52,0,0,0,3.5,2.67,1,1,0,0,0,.55.17,1,1,0,0,0,.55-.17,28.58,28.58,0,0,0,3.5-2.67,6.55,6.55,0,0,0,1.45-1.86,4.6,4.6,0,0,0,.52-1.55,3.85,3.85,0,0,0-2.56-4.23,4,4,0,0,0-1.31-.21,3.83,3.83,0,0,0-1.68.38,4.91,4.91,0,0,0-.47.27m-64.93,0a3.72,3.72,0,0,0-.48-.27,3.83,3.83,0,0,0-1.68-.38,4.15,4.15,0,0,0-1.32.21,3.88,3.88,0,0,0-2,1.56,4,4,0,0,0-.57,2.66,4.53,4.53,0,0,0,.52,1.56,6.73,6.73,0,0,0,1.46,1.87,29.28,29.28,0,0,0,3.5,2.66,1,1,0,0,0,.55.17,1,1,0,0,0,.55-.17,28.58,28.58,0,0,0,3.5-2.67,6.58,6.58,0,0,0,1.45-1.86l0-.05a4.6,4.6,0,0,0,.49-1.5,3.85,3.85,0,0,0-2.56-4.23,4,4,0,0,0-1.31-.21,3.83,3.83,0,0,0-1.68.38,4.91,4.91,0,0,0-.47.27m-64.93,0a4.39,4.39,0,0,0-.47-.27,3.86,3.86,0,0,0-1.68-.38,4.2,4.2,0,0,0-1.33.21,3.88,3.88,0,0,0-2,1.56,3.93,3.93,0,0,0-.56,2.68,4.47,4.47,0,0,0,.51,1.54,6.81,6.81,0,0,0,1.46,1.87,29.28,29.28,0,0,0,3.5,2.66,1,1,0,0,0,.55.17,1,1,0,0,0,.55-.17,28.58,28.58,0,0,0,3.5-2.67,6.75,6.75,0,0,0,1.46-1.86,4.35,4.35,0,0,0,.51-1.55,3.85,3.85,0,0,0-2.56-4.23,4,4,0,0,0-1.31-.21,3.83,3.83,0,0,0-1.68.38,3.59,3.59,0,0,0-.47.27m-64.93,0L1024,367a3.86,3.86,0,0,0-1.68-.38,4.2,4.2,0,0,0-1.33.21,3.88,3.88,0,0,0-2,1.56,3.93,3.93,0,0,0-.56,2.68,4.9,4.9,0,0,0,.48,1.49l0,.05a6.81,6.81,0,0,0,1.46,1.87,29.28,29.28,0,0,0,3.5,2.66,1,1,0,0,0,.55.17,1,1,0,0,0,.55-.17,27.21,27.21,0,0,0,3.49-2.66,6.55,6.55,0,0,0,1.47-1.87,4.35,4.35,0,0,0,.51-1.55,3.84,3.84,0,0,0-.55-2.64,3.8,3.8,0,0,0-2-1.59,4,4,0,0,0-1.31-.21,3.86,3.86,0,0,0-1.68.38,3.59,3.59,0,0,0-.47.27m-64.93,0a4.17,4.17,0,0,0-.47-.28,3.86,3.86,0,0,0-1.68-.38,4.2,4.2,0,0,0-1.33.21,3.84,3.84,0,0,0-2,1.57,3.93,3.93,0,0,0-.56,2.67,4.49,4.49,0,0,0,.51,1.53,6.7,6.7,0,0,0,1.46,1.88,29.28,29.28,0,0,0,3.5,2.66,1,1,0,0,0,.55.17,1,1,0,0,0,.54-.16,26.13,26.13,0,0,0,3.5-2.67,6.51,6.51,0,0,0,1.47-1.87,4.43,4.43,0,0,0,.51-1.53,3.93,3.93,0,0,0-.55-2.66,3.77,3.77,0,0,0-2-1.58,3.9,3.9,0,0,0-1.32-.22,3.76,3.76,0,0,0-1.67.38,3,3,0,0,0-.49.28m-64.93,0a4.17,4.17,0,0,0-.47-.28,3.86,3.86,0,0,0-1.68-.38,4.2,4.2,0,0,0-1.33.21,3.84,3.84,0,0,0-2,1.56,3.94,3.94,0,0,0-.57,2.68,4.49,4.49,0,0,0,.51,1.53,6.7,6.7,0,0,0,1.46,1.88,29.28,29.28,0,0,0,3.5,2.66,1,1,0,0,0,1.11,0,28.58,28.58,0,0,0,3.5-2.67,6.55,6.55,0,0,0,1.45-1.86,4.6,4.6,0,0,0,.52-1.55,3.92,3.92,0,0,0-.56-2.64,3.81,3.81,0,0,0-2-1.59,4,4,0,0,0-1.31-.21,3.83,3.83,0,0,0-1.68.38,3.57,3.57,0,0,0-.48.28m-64.93,0a3.24,3.24,0,0,0-.47-.28,3.86,3.86,0,0,0-1.68-.38,4.15,4.15,0,0,0-1.32.21,3.78,3.78,0,0,0-2,1.56,3.94,3.94,0,0,0-.56,2.69,4.31,4.31,0,0,0,.5,1.52,6.4,6.4,0,0,0,1.47,1.87,26.52,26.52,0,0,0,3.5,2.67,1,1,0,0,0,.55.17,1,1,0,0,0,.55-.17,28.58,28.58,0,0,0,3.5-2.67,6.55,6.55,0,0,0,1.45-1.86,4.6,4.6,0,0,0,.52-1.55,4,4,0,0,0-.56-2.66,3.86,3.86,0,0,0-2-1.57,4,4,0,0,0-1.31-.21,3.83,3.83,0,0,0-1.68.38,3.57,3.57,0,0,0-.48.28m-64.92,0a3.72,3.72,0,0,0-.48-.27,3.83,3.83,0,0,0-1.68-.38,4.15,4.15,0,0,0-1.32.21,3.88,3.88,0,0,0-2,1.56,4,4,0,0,0-.57,2.66,4.53,4.53,0,0,0,.52,1.56,6.51,6.51,0,0,0,1.46,1.86,26.52,26.52,0,0,0,3.5,2.67,1,1,0,0,0,.55.17,1,1,0,0,0,.55-.17,28.58,28.58,0,0,0,3.5-2.67,6.58,6.58,0,0,0,1.45-1.86l0-.05a4.6,4.6,0,0,0,.49-1.5,3.85,3.85,0,0,0-2.56-4.23,4,4,0,0,0-1.31-.21,3.83,3.83,0,0,0-1.68.38,4.91,4.91,0,0,0-.47.27m-64.93,0a4.39,4.39,0,0,0-.47-.27,3.86,3.86,0,0,0-1.68-.38,4.2,4.2,0,0,0-1.33.21,3.88,3.88,0,0,0-2,1.56,4,4,0,0,0-.57,2.66,4.53,4.53,0,0,0,.52,1.56,6.81,6.81,0,0,0,1.46,1.87,29.28,29.28,0,0,0,3.5,2.66,1,1,0,0,0,.55.17,1,1,0,0,0,.55-.17,28.58,28.58,0,0,0,3.5-2.67,6.75,6.75,0,0,0,1.46-1.86,4.46,4.46,0,0,0,.51-1.55,3.85,3.85,0,0,0-2.56-4.23,4,4,0,0,0-1.31-.21,3.83,3.83,0,0,0-1.68.38,3.59,3.59,0,0,0-.47.27m-64.93,0-.47-.27a3.86,3.86,0,0,0-1.68-.38,4.2,4.2,0,0,0-1.33.21,3.88,3.88,0,0,0-2,1.56,3.93,3.93,0,0,0-.56,2.68,4.9,4.9,0,0,0,.48,1.49l0,.05a6.81,6.81,0,0,0,1.46,1.87,29.28,29.28,0,0,0,3.5,2.66,1,1,0,0,0,.55.17,1,1,0,0,0,.55-.17,28.6,28.6,0,0,0,3.49-2.66,6.55,6.55,0,0,0,1.47-1.87A4.35,4.35,0,0,0,641,371a3.85,3.85,0,0,0-2.56-4.23,4,4,0,0,0-1.31-.21,3.86,3.86,0,0,0-1.68.38,3.59,3.59,0,0,0-.47.27m-64.93,0-.47-.27a3.86,3.86,0,0,0-1.68-.38,4.2,4.2,0,0,0-1.33.21,3.88,3.88,0,0,0-2,1.56A3.93,3.93,0,0,0,564,371a4.49,4.49,0,0,0,.51,1.53,6.7,6.7,0,0,0,1.46,1.88,29.28,29.28,0,0,0,3.5,2.66,1,1,0,0,0,.55.17,1,1,0,0,0,.55-.17,27.21,27.21,0,0,0,3.49-2.66,6.55,6.55,0,0,0,1.47-1.87A4.43,4.43,0,0,0,576,371a3.93,3.93,0,0,0-.55-2.66,3.8,3.8,0,0,0-2-1.59,4,4,0,0,0-1.31-.21,3.86,3.86,0,0,0-1.68.38,3.59,3.59,0,0,0-.47.27m-64.93,0a4.17,4.17,0,0,0-.47-.28,3.86,3.86,0,0,0-1.68-.38,4.2,4.2,0,0,0-1.33.21,3.84,3.84,0,0,0-2,1.57,3.93,3.93,0,0,0-.56,2.67,4.49,4.49,0,0,0,.51,1.53,6.7,6.7,0,0,0,1.46,1.88,29.28,29.28,0,0,0,3.5,2.66,1,1,0,0,0,.55.17,1,1,0,0,0,.54-.16,27.58,27.58,0,0,0,3.52-2.68,6.55,6.55,0,0,0,1.45-1.86,4.43,4.43,0,0,0,.51-1.53,3.93,3.93,0,0,0-.55-2.66,3.77,3.77,0,0,0-2-1.58,3.9,3.9,0,0,0-1.32-.22,3.76,3.76,0,0,0-1.67.38,3,3,0,0,0-.49.28m-64.93,0a3.24,3.24,0,0,0-.47-.28,3.86,3.86,0,0,0-1.68-.38,4.2,4.2,0,0,0-1.33.21,3.84,3.84,0,0,0-2,1.56,3.94,3.94,0,0,0-.57,2.68,4.49,4.49,0,0,0,.51,1.53,6.7,6.7,0,0,0,1.46,1.88,29.28,29.28,0,0,0,3.5,2.66,1,1,0,0,0,1.11,0,28.58,28.58,0,0,0,3.5-2.67,6.55,6.55,0,0,0,1.45-1.86,4.6,4.6,0,0,0,.52-1.55,3.92,3.92,0,0,0-.56-2.64,3.81,3.81,0,0,0-2-1.59,4,4,0,0,0-1.31-.21,3.83,3.83,0,0,0-1.68.38,3.57,3.57,0,0,0-.48.28m-64.93,0a3.24,3.24,0,0,0-.47-.28,3.86,3.86,0,0,0-1.68-.38,4.15,4.15,0,0,0-1.32.21,3.78,3.78,0,0,0-2,1.56,3.94,3.94,0,0,0-.56,2.69,4.23,4.23,0,0,0,.51,1.53,6.51,6.51,0,0,0,1.46,1.86,26.52,26.52,0,0,0,3.5,2.67,1,1,0,0,0,.55.17,1,1,0,0,0,.55-.17,28.58,28.58,0,0,0,3.5-2.67,6.55,6.55,0,0,0,1.45-1.86,4.6,4.6,0,0,0,.52-1.55,4,4,0,0,0-.56-2.66,3.86,3.86,0,0,0-2-1.57,4,4,0,0,0-1.31-.21,3.83,3.83,0,0,0-1.68.38,3.57,3.57,0,0,0-.48.28m-64.92,0a3.72,3.72,0,0,0-.48-.27,3.83,3.83,0,0,0-1.68-.38,4.15,4.15,0,0,0-1.32.21,3.88,3.88,0,0,0-2,1.56,4,4,0,0,0-.57,2.66,4.53,4.53,0,0,0,.52,1.56,6.51,6.51,0,0,0,1.46,1.86,26.52,26.52,0,0,0,3.5,2.67,1,1,0,0,0,.55.17,1,1,0,0,0,.55-.17,28.58,28.58,0,0,0,3.5-2.67,6.58,6.58,0,0,0,1.45-1.86l0-.05a4.6,4.6,0,0,0,.49-1.5,3.85,3.85,0,0,0-2.56-4.23,4,4,0,0,0-1.31-.21,3.83,3.83,0,0,0-1.68.38,4.91,4.91,0,0,0-.47.27m-64.93,0a4.39,4.39,0,0,0-.47-.27,3.86,3.86,0,0,0-1.68-.38,4.2,4.2,0,0,0-1.33.21,3.88,3.88,0,0,0-2,1.56,4,4,0,0,0-.57,2.66,4.53,4.53,0,0,0,.52,1.56,6.81,6.81,0,0,0,1.46,1.87,29.28,29.28,0,0,0,3.5,2.66,1,1,0,0,0,.55.17,1,1,0,0,0,.55-.17,28.58,28.58,0,0,0,3.5-2.67,6.75,6.75,0,0,0,1.46-1.86,4.35,4.35,0,0,0,.51-1.55,3.85,3.85,0,0,0-2.56-4.23,4,4,0,0,0-1.31-.21,3.83,3.83,0,0,0-1.68.38,3.59,3.59,0,0,0-.47.27M1693.11,280h-1467v36.1a20.88,20.88,0,0,0-.36,3.82v58.18l.36.19a41,41,0,0,0,51.73-11.14,41,41,0,0,0,64.93,0,40.92,40.92,0,0,0,32.34,15.94h.11a41,41,0,0,0,32.47-15.94,41,41,0,0,0,64.93,0,41,41,0,0,0,64.92,0,41,41,0,0,0,64.93,0,41,41,0,0,0,64.93,0,41,41,0,0,0,64.93,0,41,41,0,0,0,64.93,0,41,41,0,0,0,64.93,0,41,41,0,0,0,64.93,0,41,41,0,0,0,64.93,0,41,41,0,0,0,64.93,0,41,41,0,0,0,64.93,0,41,41,0,0,0,64.93,0,41,41,0,0,0,64.92,0,41,41,0,0,0,64.93,0,41,41,0,0,0,64.93,0,41,41,0,0,0,64.93,0,41,41,0,0,0,64.93,0,41,41,0,0,0,64.92,0,41,41,0,0,0,64.93,0,41,41,0,0,0,51.78,11.11l.3-.16V320a21.28,21.28,0,0,0-.3-3.5V280Zm-19.31,88.53a2.7,2.7,0,0,1,.91-.71,2.73,2.73,0,0,1,1.24-.28,3.19,3.19,0,0,1,1,.16,2.85,2.85,0,0,1,1.47,1.16,3,3,0,0,1,.41,2,3.49,3.49,0,0,1-.42,1.21,5.56,5.56,0,0,1-1.24,1.59,28,28,0,0,1-3.37,2.57,27.21,27.21,0,0,1-3.37-2.57,5.55,5.55,0,0,1-1.25-1.59,3.3,3.3,0,0,1-.41-1.21,2.93,2.93,0,0,1,.41-2,2.81,2.81,0,0,1,1.47-1.16,3,3,0,0,1,1-.16,2.78,2.78,0,0,1,2.16,1Zm-64.93,0a2.7,2.7,0,0,1,.91-.71,2.73,2.73,0,0,1,1.24-.28,3.19,3.19,0,0,1,1,.16,2.85,2.85,0,0,1,1.47,1.16,3,3,0,0,1,.41,2,3.72,3.72,0,0,1-.41,1.21,5.73,5.73,0,0,1-1.25,1.59,28,28,0,0,1-3.37,2.57,28,28,0,0,1-3.37-2.57,5.55,5.55,0,0,1-1.25-1.59,3.3,3.3,0,0,1-.41-1.21,3,3,0,0,1,.41-2,2.85,2.85,0,0,1,1.47-1.16,3,3,0,0,1,1-.16,2.78,2.78,0,0,1,2.16,1Zm-64.93,0a2.8,2.8,0,0,1,.91-.71,2.73,2.73,0,0,1,1.24-.28,3.19,3.19,0,0,1,1,.16,2.85,2.85,0,0,1,1.47,1.16,3,3,0,0,1,.41,2,3.3,3.3,0,0,1-.41,1.21,5.73,5.73,0,0,1-1.25,1.59,28,28,0,0,1-3.37,2.57,28,28,0,0,1-3.37-2.57,5.73,5.73,0,0,1-1.25-1.59,3.3,3.3,0,0,1-.41-1.21,3,3,0,0,1,.41-2,2.85,2.85,0,0,1,1.47-1.16,3.06,3.06,0,0,1,1-.16,2.76,2.76,0,0,1,1.24.28,2.8,2.8,0,0,1,.91.71Zm-64.93,0a2.8,2.8,0,0,1,.91-.71,2.76,2.76,0,0,1,1.24-.28,3.19,3.19,0,0,1,1,.16,2.85,2.85,0,0,1,1.47,1.16,3,3,0,0,1,.41,2,3.3,3.3,0,0,1-.41,1.21,5.55,5.55,0,0,1-1.25,1.59,27.21,27.21,0,0,1-3.37,2.57,28,28,0,0,1-3.37-2.57,5.73,5.73,0,0,1-1.25-1.59,3.72,3.72,0,0,1-.41-1.21,3,3,0,0,1,.41-2,2.85,2.85,0,0,1,1.47-1.16,3.06,3.06,0,0,1,1-.16,2.76,2.76,0,0,1,1.24.28,2.7,2.7,0,0,1,.91.71Zm-64.93,0a2.82,2.82,0,0,1,2.16-1,3,3,0,0,1,1,.16,2.81,2.81,0,0,1,1.47,1.16,2.93,2.93,0,0,1,.41,2,3.3,3.3,0,0,1-.41,1.21,5.39,5.39,0,0,1-1.25,1.59,27.21,27.21,0,0,1-3.37,2.57,28,28,0,0,1-3.37-2.57,5.56,5.56,0,0,1-1.24-1.59,3.49,3.49,0,0,1-.42-1.21,3.06,3.06,0,0,1,.41-2,2.85,2.85,0,0,1,1.47-1.16,3.06,3.06,0,0,1,1-.16,2.76,2.76,0,0,1,1.24.28,2.7,2.7,0,0,1,.91.71Zm-64.93,0a2.86,2.86,0,0,1,.92-.71,2.73,2.73,0,0,1,1.24-.28,3.19,3.19,0,0,1,1,.16,2.82,2.82,0,0,1,1.46,1.16,3,3,0,0,1,.42,2,3.49,3.49,0,0,1-.42,1.21,5.56,5.56,0,0,1-1.24,1.59,28,28,0,0,1-3.37,2.57h0a28,28,0,0,1-3.37-2.57,5.56,5.56,0,0,1-1.24-1.59,3.49,3.49,0,0,1-.42-1.21,3,3,0,0,1,.42-2,2.82,2.82,0,0,1,1.46-1.16,3.06,3.06,0,0,1,1-.16,2.76,2.76,0,0,1,1.24.28,2.7,2.7,0,0,1,.91.71Zm-64.92,0a2.7,2.7,0,0,1,.91-.71,2.73,2.73,0,0,1,1.24-.28,3.19,3.19,0,0,1,1,.16,2.85,2.85,0,0,1,1.47,1.16,3.06,3.06,0,0,1,.41,2,3.49,3.49,0,0,1-.42,1.21,5.56,5.56,0,0,1-1.24,1.59,28,28,0,0,1-3.37,2.57,26.47,26.47,0,0,1-3.37-2.57,5.39,5.39,0,0,1-1.25-1.59,3.3,3.3,0,0,1-.41-1.21,2.93,2.93,0,0,1,.41-2,2.81,2.81,0,0,1,1.47-1.16,3,3,0,0,1,1-.16,2.82,2.82,0,0,1,2.16,1Zm-64.93,0a2.7,2.7,0,0,1,.91-.71,2.73,2.73,0,0,1,1.24-.28,3.19,3.19,0,0,1,1,.16,2.85,2.85,0,0,1,1.47,1.16,3,3,0,0,1,.41,2,3.49,3.49,0,0,1-.42,1.21,5.56,5.56,0,0,1-1.24,1.59,28,28,0,0,1-3.37,2.57,27.21,27.21,0,0,1-3.37-2.57,5.55,5.55,0,0,1-1.25-1.59,3.3,3.3,0,0,1-.41-1.21,3,3,0,0,1,.41-2,2.81,2.81,0,0,1,1.47-1.16,3,3,0,0,1,1-.16,2.78,2.78,0,0,1,2.16,1Zm-64.93,0a2.7,2.7,0,0,1,.91-.71,2.73,2.73,0,0,1,1.24-.28,3.19,3.19,0,0,1,1,.16,2.85,2.85,0,0,1,1.47,1.16,3,3,0,0,1,.41,2,3.72,3.72,0,0,1-.41,1.21,5.73,5.73,0,0,1-1.25,1.59,28,28,0,0,1-3.37,2.57,28,28,0,0,1-3.37-2.57,5.55,5.55,0,0,1-1.25-1.59,3.3,3.3,0,0,1-.41-1.21,3,3,0,0,1,.41-2,2.85,2.85,0,0,1,1.47-1.16,3,3,0,0,1,1-.16,2.78,2.78,0,0,1,2.16,1Zm-64.93,0a2.8,2.8,0,0,1,.91-.71,2.73,2.73,0,0,1,1.24-.28,3.19,3.19,0,0,1,1,.16,2.85,2.85,0,0,1,1.47,1.16,3,3,0,0,1,.41,2,3.3,3.3,0,0,1-.41,1.21,5.73,5.73,0,0,1-1.25,1.59,28,28,0,0,1-3.37,2.57,28,28,0,0,1-3.37-2.57,5.73,5.73,0,0,1-1.25-1.59,3.5,3.5,0,0,1-.41-1.21,3,3,0,0,1,.41-2,2.85,2.85,0,0,1,1.47-1.16,3.06,3.06,0,0,1,1-.16,2.76,2.76,0,0,1,1.24.28,2.8,2.8,0,0,1,.91.71Zm-64.93,0a2.8,2.8,0,0,1,.91-.71,2.73,2.73,0,0,1,1.24-.28,3.19,3.19,0,0,1,1,.16,2.81,2.81,0,0,1,1.47,1.16,3,3,0,0,1,.41,2,3.3,3.3,0,0,1-.41,1.21,5.55,5.55,0,0,1-1.25,1.59,27.21,27.21,0,0,1-3.37,2.57,28,28,0,0,1-3.37-2.57,5.73,5.73,0,0,1-1.25-1.59,3.72,3.72,0,0,1-.41-1.21,3,3,0,0,1,.41-2,2.85,2.85,0,0,1,1.47-1.16,3.06,3.06,0,0,1,1-.16,2.76,2.76,0,0,1,1.24.28,2.7,2.7,0,0,1,.91.71Zm-64.93,0a2.82,2.82,0,0,1,2.16-1,3.1,3.1,0,0,1,1,.16,2.81,2.81,0,0,1,1.47,1.16,2.93,2.93,0,0,1,.41,2,3.3,3.3,0,0,1-.41,1.21,5.39,5.39,0,0,1-1.25,1.59,26.47,26.47,0,0,1-3.37,2.57,28,28,0,0,1-3.37-2.57A5.56,5.56,0,0,1,955,372.1a3.49,3.49,0,0,1-.42-1.21,3.06,3.06,0,0,1,.41-2,2.85,2.85,0,0,1,1.47-1.16,3.06,3.06,0,0,1,1-.16,2.76,2.76,0,0,1,1.24.28,2.7,2.7,0,0,1,.91.71Zm-64.92,0a2.7,2.7,0,0,1,.91-.71,2.73,2.73,0,0,1,1.24-.28,3.19,3.19,0,0,1,1,.16,2.82,2.82,0,0,1,1.46,1.16,3,3,0,0,1,.42,2,3.49,3.49,0,0,1-.42,1.21,5.56,5.56,0,0,1-1.24,1.59,28,28,0,0,1-3.37,2.57h0a28,28,0,0,1-3.37-2.57A5.56,5.56,0,0,1,890,372.1a3.49,3.49,0,0,1-.42-1.21,3,3,0,0,1,.42-2,2.82,2.82,0,0,1,1.46-1.16,3.06,3.06,0,0,1,1-.16,2.76,2.76,0,0,1,1.24.28,2.86,2.86,0,0,1,.92.71Zm-64.93,0a2.7,2.7,0,0,1,.91-.71,2.73,2.73,0,0,1,1.24-.28,3.19,3.19,0,0,1,1,.16,2.85,2.85,0,0,1,1.47,1.16,3.06,3.06,0,0,1,.41,2,3.49,3.49,0,0,1-.42,1.21,5.56,5.56,0,0,1-1.24,1.59,28,28,0,0,1-3.37,2.57,27.21,27.21,0,0,1-3.37-2.57,5.39,5.39,0,0,1-1.25-1.59,3.3,3.3,0,0,1-.41-1.21,2.93,2.93,0,0,1,.41-2,2.81,2.81,0,0,1,1.47-1.16,3,3,0,0,1,1-.16,2.82,2.82,0,0,1,2.16,1Zm-64.93,0a2.7,2.7,0,0,1,.91-.71,2.73,2.73,0,0,1,1.24-.28,3.19,3.19,0,0,1,1,.16,2.85,2.85,0,0,1,1.47,1.16,3,3,0,0,1,.41,2,3.72,3.72,0,0,1-.41,1.21,5.73,5.73,0,0,1-1.25,1.59,28,28,0,0,1-3.37,2.57,27.21,27.21,0,0,1-3.37-2.57,5.55,5.55,0,0,1-1.25-1.59,3.3,3.3,0,0,1-.41-1.21,3,3,0,0,1,.41-2,2.85,2.85,0,0,1,1.47-1.16,3,3,0,0,1,1-.16,2.78,2.78,0,0,1,2.16,1Zm-64.93,0a2.8,2.8,0,0,1,.91-.71,2.73,2.73,0,0,1,1.24-.28,3.19,3.19,0,0,1,1,.16,2.85,2.85,0,0,1,1.47,1.16,3,3,0,0,1,.41,2,3.5,3.5,0,0,1-.41,1.21,5.73,5.73,0,0,1-1.25,1.59,28,28,0,0,1-3.37,2.57,28,28,0,0,1-3.37-2.57,5.73,5.73,0,0,1-1.25-1.59,3.3,3.3,0,0,1-.41-1.21,3,3,0,0,1,.41-2,2.85,2.85,0,0,1,1.47-1.16,3.06,3.06,0,0,1,1-.16,2.76,2.76,0,0,1,1.24.28,2.8,2.8,0,0,1,.91.71Zm-64.93,0a2.8,2.8,0,0,1,.91-.71,2.76,2.76,0,0,1,1.24-.28,3.19,3.19,0,0,1,1,.16,2.85,2.85,0,0,1,1.47,1.16,3,3,0,0,1,.41,2,3.3,3.3,0,0,1-.41,1.21,5.55,5.55,0,0,1-1.25,1.59,28,28,0,0,1-3.37,2.57,28,28,0,0,1-3.37-2.57,5.73,5.73,0,0,1-1.25-1.59,3.72,3.72,0,0,1-.41-1.21,3,3,0,0,1,.41-2,2.85,2.85,0,0,1,1.47-1.16,3.06,3.06,0,0,1,1-.16,2.76,2.76,0,0,1,1.24.28,2.7,2.7,0,0,1,.91.71Zm-64.93,0a2.8,2.8,0,0,1,.91-.71,2.76,2.76,0,0,1,1.24-.28,3.19,3.19,0,0,1,1,.16,2.81,2.81,0,0,1,1.47,1.16,2.93,2.93,0,0,1,.41,2,3.3,3.3,0,0,1-.41,1.21,5.55,5.55,0,0,1-1.25,1.59,27.21,27.21,0,0,1-3.37,2.57,28,28,0,0,1-3.37-2.57,5.56,5.56,0,0,1-1.24-1.59,3.49,3.49,0,0,1-.42-1.21,3,3,0,0,1,.41-2,2.85,2.85,0,0,1,1.47-1.16,3.06,3.06,0,0,1,1-.16,2.76,2.76,0,0,1,1.24.28,2.7,2.7,0,0,1,.91.71Zm-64.93,0a2.82,2.82,0,0,1,2.16-1,3.1,3.1,0,0,1,1,.16,2.81,2.81,0,0,1,1.47,1.16,2.93,2.93,0,0,1,.41,2,3.3,3.3,0,0,1-.41,1.21,5.56,5.56,0,0,1-1.24,1.59,27.15,27.15,0,0,1-3.38,2.57,28,28,0,0,1-3.37-2.57,5.56,5.56,0,0,1-1.24-1.59,3.49,3.49,0,0,1-.42-1.21,3.06,3.06,0,0,1,.41-2,2.85,2.85,0,0,1,1.47-1.16,3.06,3.06,0,0,1,1-.16,2.76,2.76,0,0,1,1.24.28,2.7,2.7,0,0,1,.91.71Zm-64.92,0a2.7,2.7,0,0,1,.91-.71,2.73,2.73,0,0,1,1.24-.28,3.19,3.19,0,0,1,1,.16,2.82,2.82,0,0,1,1.46,1.16,3,3,0,0,1,.42,2,3.49,3.49,0,0,1-.42,1.21,5.56,5.56,0,0,1-1.24,1.59,28,28,0,0,1-3.37,2.57h0a28,28,0,0,1-3.37-2.57,5.56,5.56,0,0,1-1.24-1.59,3.49,3.49,0,0,1-.42-1.21,3,3,0,0,1,.42-2,2.82,2.82,0,0,1,1.46-1.16,3.06,3.06,0,0,1,1-.16,2.82,2.82,0,0,1,2.16,1Zm-64.93,0a2.7,2.7,0,0,1,.91-.71,2.73,2.73,0,0,1,1.24-.28,3.19,3.19,0,0,1,1,.16,2.85,2.85,0,0,1,1.47,1.16,3.06,3.06,0,0,1,.41,2,3.49,3.49,0,0,1-.42,1.21,5.56,5.56,0,0,1-1.24,1.59,28,28,0,0,1-3.37,2.57,27.21,27.21,0,0,1-3.37-2.57,5.55,5.55,0,0,1-1.25-1.59,3.3,3.3,0,0,1-.41-1.21,2.93,2.93,0,0,1,.41-2,2.81,2.81,0,0,1,1.47-1.16,3,3,0,0,1,1-.16,2.82,2.82,0,0,1,2.16,1Zm-64.93,0a2.7,2.7,0,0,1,.91-.71,2.73,2.73,0,0,1,1.24-.28,3.19,3.19,0,0,1,1,.16,2.85,2.85,0,0,1,1.47,1.16,3,3,0,0,1,.41,2,3.72,3.72,0,0,1-.41,1.21,5.73,5.73,0,0,1-1.25,1.59,28,28,0,0,1-3.37,2.57,27.21,27.21,0,0,1-3.37-2.57,5.55,5.55,0,0,1-1.25-1.59,3.3,3.3,0,0,1-.41-1.21,3,3,0,0,1,.41-2,2.85,2.85,0,0,1,1.47-1.16,3,3,0,0,1,1-.16,2.78,2.78,0,0,1,2.16,1Zm-64.93,0a2.8,2.8,0,0,1,.91-.71,2.73,2.73,0,0,1,1.24-.28,3.19,3.19,0,0,1,1,.16,2.85,2.85,0,0,1,1.47,1.16,3,3,0,0,1,.41,2,3.3,3.3,0,0,1-.41,1.21,5.73,5.73,0,0,1-1.25,1.59,28,28,0,0,1-3.37,2.57,28,28,0,0,1-3.37-2.57,5.73,5.73,0,0,1-1.25-1.59,3.3,3.3,0,0,1-.41-1.21,3,3,0,0,1,.41-2,2.85,2.85,0,0,1,1.47-1.16,3.06,3.06,0,0,1,1-.16,2.76,2.76,0,0,1,1.24.28,2.8,2.8,0,0,1,.91.71Z" transform="translate(-225.75 -280.03)" fill="#6d5c8e"/>
    </g>
    <g>
      <path d="M250.4,370.89a3.3,3.3,0,0,1-.41,1.21,5.73,5.73,0,0,1-1.25,1.59,28,28,0,0,1-3.37,2.57,28,28,0,0,1-3.37-2.57,5.73,5.73,0,0,1-1.25-1.59,3.3,3.3,0,0,1-.41-1.21,3,3,0,0,1,.41-2,2.85,2.85,0,0,1,1.47-1.16,3,3,0,0,1,2.24.12,2.8,2.8,0,0,1,.91.71,2.8,2.8,0,0,1,.91-.71,3,3,0,0,1,2.24-.12,2.85,2.85,0,0,1,1.47,1.16A3,3,0,0,1,250.4,370.89Z" transform="translate(-225.75 -280.03)" fill="#fbf8ff" stroke="#6d5c8e" stroke-linecap="round" stroke-linejoin="round"/>
      <path d="M315.33,370.89a3.72,3.72,0,0,1-.41,1.21,5.73,5.73,0,0,1-1.25,1.59,28,28,0,0,1-3.37,2.57,27.21,27.21,0,0,1-3.37-2.57,5.55,5.55,0,0,1-1.25-1.59,3.3,3.3,0,0,1-.41-1.21,3,3,0,0,1,.41-2,2.85,2.85,0,0,1,1.47-1.16,3,3,0,0,1,2.24.12,2.8,2.8,0,0,1,.91.71,2.7,2.7,0,0,1,.91-.71,3,3,0,0,1,2.24-.12,2.85,2.85,0,0,1,1.47,1.16A3,3,0,0,1,315.33,370.89Z" transform="translate(-225.75 -280.03)" fill="#fbf8ff" stroke="#6d5c8e" stroke-linecap="round" stroke-linejoin="round"/>
      <path d="M380.26,370.89a3.49,3.49,0,0,1-.42,1.21,5.56,5.56,0,0,1-1.24,1.59,28,28,0,0,1-3.37,2.57,27.21,27.21,0,0,1-3.37-2.57,5.55,5.55,0,0,1-1.25-1.59,3.3,3.3,0,0,1-.41-1.21,2.93,2.93,0,0,1,.41-2,2.81,2.81,0,0,1,1.47-1.16,3,3,0,0,1,2.23.12,2.75,2.75,0,0,1,.92.71,2.7,2.7,0,0,1,.91-.71,3,3,0,0,1,2.24-.12,2.85,2.85,0,0,1,1.47,1.16A3.06,3.06,0,0,1,380.26,370.89Z" transform="translate(-225.75 -280.03)" fill="#fbf8ff" stroke="#6d5c8e" stroke-linecap="round" stroke-linejoin="round"/>
      <path d="M445.19,370.89a3.49,3.49,0,0,1-.42,1.21,5.56,5.56,0,0,1-1.24,1.59,28,28,0,0,1-3.37,2.57h0a28,28,0,0,1-3.37-2.57,5.56,5.56,0,0,1-1.24-1.59,3.49,3.49,0,0,1-.42-1.21,3,3,0,0,1,.42-2,2.82,2.82,0,0,1,1.46-1.16,3,3,0,0,1,2.24.12,2.75,2.75,0,0,1,.92.71,2.7,2.7,0,0,1,.91-.71,3,3,0,0,1,2.24-.12,2.82,2.82,0,0,1,1.46,1.16A3,3,0,0,1,445.19,370.89Z" transform="translate(-225.75 -280.03)" fill="#fbf8ff" stroke="#6d5c8e" stroke-linecap="round" stroke-linejoin="round"/>
      <path d="M510.11,370.89a3.3,3.3,0,0,1-.41,1.21,5.56,5.56,0,0,1-1.24,1.59,27.15,27.15,0,0,1-3.38,2.57,28,28,0,0,1-3.37-2.57,5.56,5.56,0,0,1-1.24-1.59,3.49,3.49,0,0,1-.42-1.21,3.06,3.06,0,0,1,.41-2,2.85,2.85,0,0,1,1.47-1.16,3,3,0,0,1,2.24.12,2.7,2.7,0,0,1,.91.71,2.75,2.75,0,0,1,.92-.71,3,3,0,0,1,2.23-.12,2.81,2.81,0,0,1,1.47,1.16A2.93,2.93,0,0,1,510.11,370.89Z" transform="translate(-225.75 -280.03)" fill="#fbf8ff" stroke="#6d5c8e" stroke-linecap="round" stroke-linejoin="round"/>
      <path d="M575,370.89a3.3,3.3,0,0,1-.41,1.21,5.55,5.55,0,0,1-1.25,1.59,27.21,27.21,0,0,1-3.37,2.57,28,28,0,0,1-3.37-2.57,5.56,5.56,0,0,1-1.24-1.59,3.49,3.49,0,0,1-.42-1.21,3,3,0,0,1,.41-2,2.85,2.85,0,0,1,1.47-1.16,3,3,0,0,1,2.24.12,2.7,2.7,0,0,1,.91.71,2.8,2.8,0,0,1,.91-.71,3,3,0,0,1,2.24-.12,2.81,2.81,0,0,1,1.47,1.16A2.93,2.93,0,0,1,575,370.89Z" transform="translate(-225.75 -280.03)" fill="#fbf8ff" stroke="#6d5c8e" stroke-linecap="round" stroke-linejoin="round"/>
      <path d="M640,370.89a3.3,3.3,0,0,1-.41,1.21,5.55,5.55,0,0,1-1.25,1.59,28,28,0,0,1-3.37,2.57,28,28,0,0,1-3.37-2.57,5.73,5.73,0,0,1-1.25-1.59,3.72,3.72,0,0,1-.41-1.21,3,3,0,0,1,.41-2,2.85,2.85,0,0,1,1.47-1.16,3,3,0,0,1,2.24.12,2.7,2.7,0,0,1,.91.71,2.8,2.8,0,0,1,.91-.71,3,3,0,0,1,2.24-.12,2.85,2.85,0,0,1,1.47,1.16A3,3,0,0,1,640,370.89Z" transform="translate(-225.75 -280.03)" fill="#fbf8ff" stroke="#6d5c8e" stroke-linecap="round" stroke-linejoin="round"/>
      <path d="M704.9,370.89a3.5,3.5,0,0,1-.41,1.21,5.73,5.73,0,0,1-1.25,1.59,28,28,0,0,1-3.37,2.57,28,28,0,0,1-3.37-2.57,5.73,5.73,0,0,1-1.25-1.59,3.3,3.3,0,0,1-.41-1.21,3,3,0,0,1,.41-2,2.85,2.85,0,0,1,1.47-1.16,3,3,0,0,1,2.24.12.94.94,0,0,0,1.82,0,3,3,0,0,1,2.24-.12,2.85,2.85,0,0,1,1.47,1.16A3,3,0,0,1,704.9,370.89Z" transform="translate(-225.75 -280.03)" fill="#fbf8ff" stroke="#6d5c8e" stroke-linecap="round" stroke-linejoin="round"/>
      <path d="M769.83,370.89a3.72,3.72,0,0,1-.41,1.21,5.73,5.73,0,0,1-1.25,1.59,28,28,0,0,1-3.37,2.57,27.21,27.21,0,0,1-3.37-2.57,5.55,5.55,0,0,1-1.25-1.59,3.3,3.3,0,0,1-.41-1.21,3,3,0,0,1,.41-2,2.85,2.85,0,0,1,1.47-1.16,3,3,0,0,1,2.24.12,2.8,2.8,0,0,1,.91.71,2.7,2.7,0,0,1,.91-.71,3,3,0,0,1,2.24-.12,2.85,2.85,0,0,1,1.47,1.16A3,3,0,0,1,769.83,370.89Z" transform="translate(-225.75 -280.03)" fill="#fbf8ff" stroke="#6d5c8e" stroke-linecap="round" stroke-linejoin="round"/>
      <path d="M834.76,370.89a3.49,3.49,0,0,1-.42,1.21,5.56,5.56,0,0,1-1.24,1.59,28,28,0,0,1-3.37,2.57,27.21,27.21,0,0,1-3.37-2.57,5.39,5.39,0,0,1-1.25-1.59,3.3,3.3,0,0,1-.41-1.21,2.93,2.93,0,0,1,.41-2,2.81,2.81,0,0,1,1.47-1.16,3,3,0,0,1,2.23.12,2.75,2.75,0,0,1,.92.71,2.7,2.7,0,0,1,.91-.71,3,3,0,0,1,2.24-.12,2.85,2.85,0,0,1,1.47,1.16A3.06,3.06,0,0,1,834.76,370.89Z" transform="translate(-225.75 -280.03)" fill="#fbf8ff" stroke="#6d5c8e" stroke-linecap="round" stroke-linejoin="round"/>
      <path d="M899.69,370.89a3.49,3.49,0,0,1-.42,1.21,5.56,5.56,0,0,1-1.24,1.59,28,28,0,0,1-3.37,2.57h0a28,28,0,0,1-3.37-2.57A5.56,5.56,0,0,1,890,372.1a3.49,3.49,0,0,1-.42-1.21,3,3,0,0,1,.42-2,2.82,2.82,0,0,1,1.46-1.16,3,3,0,0,1,2.24.12,2.86,2.86,0,0,1,.92.71,2.7,2.7,0,0,1,.91-.71,3,3,0,0,1,2.24-.12,2.82,2.82,0,0,1,1.46,1.16A3,3,0,0,1,899.69,370.89Z" transform="translate(-225.75 -280.03)" fill="#fbf8ff" stroke="#6d5c8e" stroke-linecap="round" stroke-linejoin="round"/>
      <path d="M964.61,370.89a3.3,3.3,0,0,1-.41,1.21,5.39,5.39,0,0,1-1.25,1.59,26.47,26.47,0,0,1-3.37,2.57,28,28,0,0,1-3.37-2.57A5.56,5.56,0,0,1,955,372.1a3.49,3.49,0,0,1-.42-1.21,3.06,3.06,0,0,1,.41-2,2.85,2.85,0,0,1,1.47-1.16,3,3,0,0,1,2.24.12,2.7,2.7,0,0,1,.91.71,2.75,2.75,0,0,1,.92-.71,3,3,0,0,1,2.23-.12,2.81,2.81,0,0,1,1.47,1.16A2.93,2.93,0,0,1,964.61,370.89Z" transform="translate(-225.75 -280.03)" fill="#fbf8ff" stroke="#6d5c8e" stroke-linecap="round" stroke-linejoin="round"/>
      <path d="M1029.54,370.89a3.3,3.3,0,0,1-.41,1.21,5.55,5.55,0,0,1-1.25,1.59,27.21,27.21,0,0,1-3.37,2.57,28,28,0,0,1-3.37-2.57,5.73,5.73,0,0,1-1.25-1.59,3.72,3.72,0,0,1-.41-1.21,3,3,0,0,1,.41-2,2.85,2.85,0,0,1,1.47-1.16,3,3,0,0,1,2.24.12,2.7,2.7,0,0,1,.91.71,2.8,2.8,0,0,1,.91-.71,3,3,0,0,1,2.24-.12,2.81,2.81,0,0,1,1.47,1.16A3,3,0,0,1,1029.54,370.89Z" transform="translate(-225.75 -280.03)" fill="#fbf8ff" stroke="#6d5c8e" stroke-linecap="round" stroke-linejoin="round"/>
      <path d="M1094.47,370.89a3.3,3.3,0,0,1-.41,1.21,5.73,5.73,0,0,1-1.25,1.59,28,28,0,0,1-3.37,2.57,28,28,0,0,1-3.37-2.57,5.73,5.73,0,0,1-1.25-1.59,3.5,3.5,0,0,1-.41-1.21,3,3,0,0,1,.41-2,2.85,2.85,0,0,1,1.47-1.16,3,3,0,0,1,2.24.12.94.94,0,0,0,1.82,0,3,3,0,0,1,2.24-.12,2.85,2.85,0,0,1,1.47,1.16A3,3,0,0,1,1094.47,370.89Z" transform="translate(-225.75 -280.03)" fill="#fbf8ff" stroke="#6d5c8e" stroke-linecap="round" stroke-linejoin="round"/>
      <path d="M1159.4,370.89a3.72,3.72,0,0,1-.41,1.21,5.73,5.73,0,0,1-1.25,1.59,28,28,0,0,1-3.37,2.57,28,28,0,0,1-3.37-2.57,5.55,5.55,0,0,1-1.25-1.59,3.3,3.3,0,0,1-.41-1.21,3,3,0,0,1,.41-2,2.85,2.85,0,0,1,1.47-1.16,3,3,0,0,1,2.24.12,2.8,2.8,0,0,1,.91.71,2.7,2.7,0,0,1,.91-.71,3,3,0,0,1,2.24-.12,2.85,2.85,0,0,1,1.47,1.16A3,3,0,0,1,1159.4,370.89Z" transform="translate(-225.75 -280.03)" fill="#fbf8ff" stroke="#6d5c8e" stroke-linecap="round" stroke-linejoin="round"/>
      <path d="M1224.33,370.89a3.49,3.49,0,0,1-.42,1.21,5.56,5.56,0,0,1-1.24,1.59,28,28,0,0,1-3.37,2.57,27.21,27.21,0,0,1-3.37-2.57,5.55,5.55,0,0,1-1.25-1.59,3.3,3.3,0,0,1-.41-1.21,3,3,0,0,1,.41-2,2.81,2.81,0,0,1,1.47-1.16,3,3,0,0,1,2.24.12,2.8,2.8,0,0,1,.91.71,2.7,2.7,0,0,1,.91-.71,3,3,0,0,1,2.24-.12,2.85,2.85,0,0,1,1.47,1.16A3,3,0,0,1,1224.33,370.89Z" transform="translate(-225.75 -280.03)" fill="#fbf8ff" stroke="#6d5c8e" stroke-linecap="round" stroke-linejoin="round"/>
      <path d="M1289.26,370.89a3.49,3.49,0,0,1-.42,1.21,5.56,5.56,0,0,1-1.24,1.59,28,28,0,0,1-3.37,2.57,26.47,26.47,0,0,1-3.37-2.57,5.39,5.39,0,0,1-1.25-1.59,3.3,3.3,0,0,1-.41-1.21,2.93,2.93,0,0,1,.41-2,2.81,2.81,0,0,1,1.47-1.16,3,3,0,0,1,2.23.12,2.75,2.75,0,0,1,.92.71,2.7,2.7,0,0,1,.91-.71,3,3,0,0,1,2.24-.12,2.85,2.85,0,0,1,1.47,1.16A3.06,3.06,0,0,1,1289.26,370.89Z" transform="translate(-225.75 -280.03)" fill="#fbf8ff" stroke="#6d5c8e" stroke-linecap="round" stroke-linejoin="round"/>
      <path d="M1354.19,370.89a3.49,3.49,0,0,1-.42,1.21,5.56,5.56,0,0,1-1.24,1.59,28,28,0,0,1-3.37,2.57h0a28,28,0,0,1-3.37-2.57,5.56,5.56,0,0,1-1.24-1.59,3.49,3.49,0,0,1-.42-1.21,3,3,0,0,1,.42-2,2.82,2.82,0,0,1,1.46-1.16,3,3,0,0,1,2.24.12,2.7,2.7,0,0,1,.91.71,2.86,2.86,0,0,1,.92-.71,3,3,0,0,1,2.24-.12,2.82,2.82,0,0,1,1.46,1.16A3,3,0,0,1,1354.19,370.89Z" transform="translate(-225.75 -280.03)" fill="#fbf8ff" stroke="#6d5c8e" stroke-linecap="round" stroke-linejoin="round"/>
      <path d="M1419.11,370.89a3.3,3.3,0,0,1-.41,1.21,5.39,5.39,0,0,1-1.25,1.59,27.21,27.21,0,0,1-3.37,2.57,28,28,0,0,1-3.37-2.57,5.56,5.56,0,0,1-1.24-1.59,3.49,3.49,0,0,1-.42-1.21,3.06,3.06,0,0,1,.41-2,2.85,2.85,0,0,1,1.47-1.16,3,3,0,0,1,2.24.12,2.7,2.7,0,0,1,.91.71,2.75,2.75,0,0,1,.92-.71,3,3,0,0,1,2.23-.12,2.81,2.81,0,0,1,1.47,1.16A2.93,2.93,0,0,1,1419.11,370.89Z" transform="translate(-225.75 -280.03)" fill="#fbf8ff" stroke="#6d5c8e" stroke-linecap="round" stroke-linejoin="round"/>
      <path d="M1484,370.89a3.3,3.3,0,0,1-.41,1.21,5.55,5.55,0,0,1-1.25,1.59,27.21,27.21,0,0,1-3.37,2.57,28,28,0,0,1-3.37-2.57,5.73,5.73,0,0,1-1.25-1.59,3.72,3.72,0,0,1-.41-1.21,3,3,0,0,1,.41-2,2.85,2.85,0,0,1,1.47-1.16,3,3,0,0,1,2.24.12,2.7,2.7,0,0,1,.91.71,2.8,2.8,0,0,1,.91-.71,3,3,0,0,1,2.24-.12,2.85,2.85,0,0,1,1.47,1.16A3,3,0,0,1,1484,370.89Z" transform="translate(-225.75 -280.03)" fill="#fbf8ff" stroke="#6d5c8e" stroke-linecap="round" stroke-linejoin="round"/>
      <path d="M1549,370.89a3.3,3.3,0,0,1-.41,1.21,5.73,5.73,0,0,1-1.25,1.59,28,28,0,0,1-3.37,2.57,28,28,0,0,1-3.37-2.57,5.73,5.73,0,0,1-1.25-1.59,3.3,3.3,0,0,1-.41-1.21,3,3,0,0,1,.41-2,2.85,2.85,0,0,1,1.47-1.16,3,3,0,0,1,2.24.12.94.94,0,0,0,1.82,0,3,3,0,0,1,2.24-.12,2.85,2.85,0,0,1,1.47,1.16A3,3,0,0,1,1549,370.89Z" transform="translate(-225.75 -280.03)" fill="#fbf8ff" stroke="#6d5c8e" stroke-linecap="round" stroke-linejoin="round"/>
      <path d="M1613.9,370.89a3.72,3.72,0,0,1-.41,1.21,5.73,5.73,0,0,1-1.25,1.59,28,28,0,0,1-3.37,2.57,28,28,0,0,1-3.37-2.57,5.55,5.55,0,0,1-1.25-1.59,3.3,3.3,0,0,1-.41-1.21,3,3,0,0,1,.41-2,2.85,2.85,0,0,1,1.47-1.16,3,3,0,0,1,2.24.12,2.8,2.8,0,0,1,.91.71,2.7,2.7,0,0,1,.91-.71,3,3,0,0,1,2.24-.12,2.85,2.85,0,0,1,1.47,1.16A3,3,0,0,1,1613.9,370.89Z" transform="translate(-225.75 -280.03)" fill="#fbf8ff" stroke="#6d5c8e" stroke-linecap="round" stroke-linejoin="round"/>
      <path d="M1678.83,370.89a3.49,3.49,0,0,1-.42,1.21,5.56,5.56,0,0,1-1.24,1.59,28,28,0,0,1-3.37,2.57,27.21,27.21,0,0,1-3.37-2.57,5.55,5.55,0,0,1-1.25-1.59,3.3,3.3,0,0,1-.41-1.21,2.93,2.93,0,0,1,.41-2,2.81,2.81,0,0,1,1.47-1.16,3,3,0,0,1,2.24.12,2.8,2.8,0,0,1,.91.71,2.7,2.7,0,0,1,.91-.71,3,3,0,0,1,2.24-.12,2.85,2.85,0,0,1,1.47,1.16A3,3,0,0,1,1678.83,370.89Z" transform="translate(-225.75 -280.03)" fill="#fbf8ff" stroke="#6d5c8e" stroke-linecap="round" stroke-linejoin="round"/>
    </g>
    <rect x="117.86" y="43" width="1235" height="22" rx="11" fill="#fbf9ff" stroke="#6d5c8e" stroke-miterlimit="10" stroke-width="3"/>
    <path d="M299.9,324a3.08,3.08,0,0,0-4.61,2.66v14.64A3.07,3.07,0,0,0,299.9,344l6.33-3.66,6.34-3.65a3.07,3.07,0,0,0,0-5.32l-6.34-3.66Z" transform="translate(-225.75 -280.03)" fill="#9987b5" stroke="#6d5c8e" stroke-miterlimit="10" stroke-width="3"/>
    <path d="M270.5,324a3.08,3.08,0,0,1,4.61,2.66v14.64A3.07,3.07,0,0,1,270.5,344l-6.33-3.66-6.34-3.65a3.07,3.07,0,0,1,0-5.32l6.34-3.66Z" transform="translate(-225.75 -280.03)" fill="#9987b5" stroke="#6d5c8e" stroke-miterlimit="10" stroke-width="3"/>
    <path d="M1621.72,325.33a8.19,8.19,0,0,0-4.13-3.34,8.44,8.44,0,0,0-6.31.34,8,8,0,0,0-2.56,2.05,8.15,8.15,0,0,0-2.57-2.05,8.41,8.41,0,0,0-6.3-.34,8.14,8.14,0,0,0-4.13,3.34,8.78,8.78,0,0,0-1.16,5.78,10.3,10.3,0,0,0,1.16,3.47,15.85,15.85,0,0,0,3.51,4.57c.8.74,1.61,1.46,2.42,2.14L1605,344c.84.62,1.61,1.17,2.28,1.64l1.42.94,1.41-.94c.71-.5,1.54-1.08,2.43-1.75l2.83-2.22c.94-.77,1.89-1.6,2.81-2.47a15.6,15.6,0,0,0,3.51-4.58,9.82,9.82,0,0,0,1.16-3.46A8.82,8.82,0,0,0,1621.72,325.33Z" transform="translate(-225.75 -280.03)" fill="#fbf9ff" stroke="#6d5c8e" stroke-linecap="round" stroke-linejoin="round" stroke-width="3"/>
  </g>
</svg>
