<svg id="Capa_1" data-name="Capa 1" xmlns="http://www.w3.org/2000/svg" viewBox="0 0 1882.38 132.22"><title>decoracion1</title><path d="M1876.4,620.5a51.8,51.8,0,0,1-41.23-20.25.53.53,0,0,0-.4-.19.49.49,0,0,0-.39.19,52.13,52.13,0,0,1-82.49,0,.51.51,0,0,0-.4-.19.49.49,0,0,0-.39.19,52.12,52.12,0,0,1-82.48,0,.49.49,0,0,0-.39-.19.51.51,0,0,0-.4.19,52.12,52.12,0,0,1-82.48,0,.51.51,0,0,0-.4-.19.53.53,0,0,0-.4.19,52.12,52.12,0,0,1-82.48,0,.51.51,0,0,0-.4-.19.49.49,0,0,0-.39.19,52.13,52.13,0,0,1-82.49,0,.49.49,0,0,0-.39-.19.5.5,0,0,0-.4.19,52.13,52.13,0,0,1-82.49,0,.49.49,0,0,0-.39-.19.51.51,0,0,0-.4.19,52.11,52.11,0,0,1-82.47,0,.51.51,0,0,0-.4-.19.49.49,0,0,0-.39.19,52.13,52.13,0,0,1-82.49,0,.49.49,0,0,0-.39-.19.51.51,0,0,0-.4.19,52.13,52.13,0,0,1-82.49,0,.49.49,0,0,0-.39-.19.51.51,0,0,0-.4.19,52.12,52.12,0,0,1-82.48,0,.51.51,0,0,0-.4-.19.49.49,0,0,0-.39.19,52.13,52.13,0,0,1-82.49,0,.51.51,0,0,0-.4-.19.49.49,0,0,0-.39.19,52.13,52.13,0,0,1-82.49,0,.49.49,0,0,0-.39-.19.51.51,0,0,0-.4.19,52.13,52.13,0,0,1-82.49,0,.49.49,0,0,0-.39-.19.51.51,0,0,0-.4.19,52.12,52.12,0,0,1-82.48,0,.51.51,0,0,0-.4-.19.49.49,0,0,0-.39.19,52.13,52.13,0,0,1-82.49,0,.5.5,0,0,0-.4-.19.49.49,0,0,0-.39.19,52.13,52.13,0,0,1-82.49,0,.49.49,0,0,0-.39-.19.51.51,0,0,0-.4.19,52.12,52.12,0,0,1-82.48,0,.53.53,0,0,0-.4-.19.51.51,0,0,0-.4.19,52.11,52.11,0,0,1-82.47,0,.49.49,0,0,0-.39-.19.5.5,0,0,0-.4.19,52.78,52.78,0,0,1-17.16,14.36,52.15,52.15,0,0,1-65.33-14.36.49.49,0,0,0-.39-.19.51.51,0,0,0-.4.19,51.82,51.82,0,0,1-41.25,20.25h-.14a51.79,51.79,0,0,1-41.08-20.25.51.51,0,0,0-.4-.19.49.49,0,0,0-.39.19,52.13,52.13,0,0,1-82.49,0,.49.49,0,0,0-.39-.19.51.51,0,0,0-.4.19A52.14,52.14,0,0,1,19.88,614.4l-.19-.1V540a25.72,25.72,0,0,1,.45-4.81V489.28H1900.68v46.21a27.73,27.73,0,0,1,.39,4.49V614.3l-.11.06A52.17,52.17,0,0,1,1876.4,620.5Zm-419.13-20a4.45,4.45,0,0,0-1.44.24,4.09,4.09,0,0,0-2.14,1.7,4.32,4.32,0,0,0-.61,2.89,4.77,4.77,0,0,0,.59,1.71,7.77,7.77,0,0,0,1.69,2.18,36.65,36.65,0,0,0,4.39,3.35.54.54,0,0,0,.28.08.57.57,0,0,0,.29-.08,36,36,0,0,0,4.38-3.35,7.58,7.58,0,0,0,1.7-2.18,5.16,5.16,0,0,0,.59-1.71,4.35,4.35,0,0,0-.62-2.91,4.06,4.06,0,0,0-2.13-1.68,4.45,4.45,0,0,0-1.44-.24,4,4,0,0,0-1.81.42,4.1,4.1,0,0,0-1,.64,4.14,4.14,0,0,0-2.76-1.06Zm-582.93,0a4.45,4.45,0,0,0-1.44.24,4.09,4.09,0,0,0-2.14,1.7,4.34,4.34,0,0,0-.61,2.89,5.19,5.19,0,0,0,.59,1.71,7.77,7.77,0,0,0,1.69,2.18,36.65,36.65,0,0,0,4.39,3.35.57.57,0,0,0,.28.08.57.57,0,0,0,.29-.08,36,36,0,0,0,4.38-3.35,7.58,7.58,0,0,0,1.7-2.18,4.77,4.77,0,0,0,.59-1.71,4.35,4.35,0,0,0-.62-2.91,4.06,4.06,0,0,0-2.12-1.68,4.54,4.54,0,0,0-1.45-.24,4.14,4.14,0,0,0-2.76,1.06,4.1,4.1,0,0,0-1-.64A4,4,0,0,0,874.34,600.55Zm-582.93,0a4.45,4.45,0,0,0-1.44.24,4.09,4.09,0,0,0-2.14,1.7,4.34,4.34,0,0,0-.61,2.89,5.19,5.19,0,0,0,.59,1.71,7.77,7.77,0,0,0,1.69,2.18,37.49,37.49,0,0,0,4.39,3.35.57.57,0,0,0,.28.08.57.57,0,0,0,.29-.08,36,36,0,0,0,4.38-3.35,7.58,7.58,0,0,0,1.7-2.18,4.74,4.74,0,0,0,.59-1.71,4.37,4.37,0,0,0-.62-2.91,4.06,4.06,0,0,0-2.12-1.68,4.5,4.5,0,0,0-1.45-.24,4,4,0,0,0-1.81.42,3.72,3.72,0,0,0-.95.64,4.16,4.16,0,0,0-1-.65A4.07,4.07,0,0,0,291.41,600.55Zm-166.55,0a4.39,4.39,0,0,0-1.43.24,4.17,4.17,0,0,0-2.15,1.69,4.22,4.22,0,0,0-.6,2.9,4.66,4.66,0,0,0,.58,1.71,7.66,7.66,0,0,0,1.71,2.19,36.82,36.82,0,0,0,4.38,3.34.57.57,0,0,0,.28.08.53.53,0,0,0,.27-.08,36.65,36.65,0,0,0,4.39-3.35A7.82,7.82,0,0,0,134,607.1a5.34,5.34,0,0,0,.58-1.72,4.25,4.25,0,0,0-.61-2.91,4.13,4.13,0,0,0-2.14-1.68,4.45,4.45,0,0,0-1.44-.24,4,4,0,0,0-1.81.42,3.72,3.72,0,0,0-1,.64,4,4,0,0,0-.95-.64A4,4,0,0,0,124.86,600.55Zm-83.27,0a4.45,4.45,0,0,0-1.44.24A4.17,4.17,0,0,0,38,602.48a4.27,4.27,0,0,0-.6,2.9,4.59,4.59,0,0,0,.58,1.71,7.74,7.74,0,0,0,1.71,2.18,36,36,0,0,0,4.38,3.35.53.53,0,0,0,.56,0A36.78,36.78,0,0,0,49,609.27a7.82,7.82,0,0,0,1.71-2.17,4.78,4.78,0,0,0,.58-1.73,4.24,4.24,0,0,0-.61-2.9,4.13,4.13,0,0,0-2.14-1.68,4.45,4.45,0,0,0-1.44-.24,4,4,0,0,0-1.81.42,3.78,3.78,0,0,0-.95.64,3.61,3.61,0,0,0-1-.64A4,4,0,0,0,41.59,600.55Zm1832.06,0a4.38,4.38,0,0,0-1.44.24,4.13,4.13,0,0,0-2.15,1.7,4.28,4.28,0,0,0-.59,2.91,4.72,4.72,0,0,0,.58,1.7,7.36,7.36,0,0,0,1.71,2.17,35.32,35.32,0,0,0,4.38,3.35.54.54,0,0,0,.28.08.53.53,0,0,0,.27-.08,36.65,36.65,0,0,0,4.39-3.35,7.59,7.59,0,0,0,1.69-2.18,4.77,4.77,0,0,0,.59-1.71,4.16,4.16,0,0,0-2.74-4.59,4.5,4.5,0,0,0-1.45-.24,4,4,0,0,0-1.81.42,3.91,3.91,0,0,0-.95.64,3.72,3.72,0,0,0-.94-.64A4.05,4.05,0,0,0,1873.65,600.55Zm-83.28,0a4.39,4.39,0,0,0-1.43.24,4.12,4.12,0,0,0-2.15,1.69,4.23,4.23,0,0,0-.6,2.9,4.66,4.66,0,0,0,.58,1.71,7.45,7.45,0,0,0,1.71,2.18,36,36,0,0,0,4.38,3.35.57.57,0,0,0,.28.08.53.53,0,0,0,.27-.08,36.65,36.65,0,0,0,4.39-3.35,7.82,7.82,0,0,0,1.71-2.17,5,5,0,0,0,.57-1.72,4.18,4.18,0,0,0-.6-2.9,4.09,4.09,0,0,0-2.14-1.69,4.45,4.45,0,0,0-1.44-.24,4,4,0,0,0-1.82.42,4.12,4.12,0,0,0-.95.64,3.55,3.55,0,0,0-.94-.64A4,4,0,0,0,1790.37,600.55Zm-83.27,0a4.45,4.45,0,0,0-1.44.24,4.17,4.17,0,0,0-2.15,1.69,4.29,4.29,0,0,0-.6,2.9,4.66,4.66,0,0,0,.58,1.71,7.74,7.74,0,0,0,1.71,2.18,35.76,35.76,0,0,0,4.38,3.35.53.53,0,0,0,.56,0,36,36,0,0,0,4.38-3.35,7.82,7.82,0,0,0,1.71-2.17,4.78,4.78,0,0,0,.58-1.73,4.15,4.15,0,0,0-.61-2.89,4.09,4.09,0,0,0-2.14-1.69,4.45,4.45,0,0,0-1.44-.24,4,4,0,0,0-1.81.42,1,1,0,0,1-1.9,0A4,4,0,0,0,1707.1,600.55Zm-83.28,0a4.39,4.39,0,0,0-1.43.24,4.15,4.15,0,0,0-2.75,4.59,5,5,0,0,0,.55,1.66,8,8,0,0,0,1.73,2.23,35.76,35.76,0,0,0,4.39,3.35.53.53,0,0,0,.27.08.54.54,0,0,0,.28-.08,36.37,36.37,0,0,0,4.38-3.35,7.52,7.52,0,0,0,1.71-2.17,4.78,4.78,0,0,0,.58-1.73,4.2,4.2,0,0,0-.6-2.89,4.12,4.12,0,0,0-2.15-1.69,4.39,4.39,0,0,0-1.43-.24,4,4,0,0,0-1.82.42,3.72,3.72,0,0,0-.94.64,4.12,4.12,0,0,0-.95-.64A4,4,0,0,0,1623.82,600.55Zm-83.27,0a4.41,4.41,0,0,0-1.44.24,4.12,4.12,0,0,0-2.15,1.69,4.4,4.4,0,0,0-.6,2.9,4.77,4.77,0,0,0,.59,1.71,7.59,7.59,0,0,0,1.69,2.18,36.65,36.65,0,0,0,4.39,3.35.54.54,0,0,0,.28.08.53.53,0,0,0,.27-.08,37.09,37.09,0,0,0,4.39-3.35,7.41,7.41,0,0,0,1.71-2.18,4.86,4.86,0,0,0,.57-1.72,4.16,4.16,0,0,0-.6-2.89,4.09,4.09,0,0,0-2.14-1.69,4.3,4.3,0,0,0-1.43-.24,4,4,0,0,0-1.82.42,4,4,0,0,0-1,.64,3.91,3.91,0,0,0-1-.64A4,4,0,0,0,1540.55,600.55Zm-249.83,0a4.35,4.35,0,0,0-1.43.24,4.12,4.12,0,0,0-2.16,1.7,4.24,4.24,0,0,0-.59,2.89,4.66,4.66,0,0,0,.58,1.71,7.45,7.45,0,0,0,1.71,2.18,36.37,36.37,0,0,0,4.38,3.35.54.54,0,0,0,.28.08.53.53,0,0,0,.27-.08,36.65,36.65,0,0,0,4.39-3.35,7.59,7.59,0,0,0,1.69-2.18,4.74,4.74,0,0,0,.59-1.71,4.22,4.22,0,0,0-.6-2.9,4.14,4.14,0,0,0-2.14-1.69,4.49,4.49,0,0,0-1.44-.24,4,4,0,0,0-1.82.42,3.91,3.91,0,0,0-1,.64,3.72,3.72,0,0,0-.94-.64A4,4,0,0,0,1290.72,600.55Zm-83.28,0a4.43,4.43,0,0,0-1.43.24,4.17,4.17,0,0,0-2.15,1.69,4.23,4.23,0,0,0-.6,2.9,4.66,4.66,0,0,0,.58,1.71,7.45,7.45,0,0,0,1.71,2.18,36,36,0,0,0,4.38,3.35.53.53,0,0,0,.56,0,35.76,35.76,0,0,0,4.38-3.35,7.82,7.82,0,0,0,1.71-2.17,5.34,5.34,0,0,0,.58-1.72,4.21,4.21,0,0,0-.61-2.9,4.09,4.09,0,0,0-2.14-1.69,4.45,4.45,0,0,0-1.44-.24,4,4,0,0,0-1.81.42,3.72,3.72,0,0,0-1,.64,3.78,3.78,0,0,0-1-.64A4,4,0,0,0,1207.44,600.55Zm-83.27,0a4.35,4.35,0,0,0-1.43.24,4.08,4.08,0,0,0-2.15,1.69,4.22,4.22,0,0,0-.61,2.9,4.89,4.89,0,0,0,.58,1.71,7.77,7.77,0,0,0,1.71,2.18,35.08,35.08,0,0,0,4.39,3.35.53.53,0,0,0,.27.08.57.57,0,0,0,.28-.08,35.76,35.76,0,0,0,4.38-3.35,7.82,7.82,0,0,0,1.71-2.17,4.69,4.69,0,0,0,.58-1.73,4.24,4.24,0,0,0-.61-2.9,4.09,4.09,0,0,0-2.14-1.68,4.45,4.45,0,0,0-1.44-.24,4,4,0,0,0-1.81.42,4.06,4.06,0,0,0-1,.64,3.61,3.61,0,0,0-1-.64A4,4,0,0,0,1124.17,600.55Zm-83.27,0a4.41,4.41,0,0,0-1.44.24,4.12,4.12,0,0,0-2.15,1.69,4.18,4.18,0,0,0-.6,2.9,4.82,4.82,0,0,0,.55,1.66,7.92,7.92,0,0,0,1.73,2.23,36.65,36.65,0,0,0,4.39,3.35.53.53,0,0,0,.27.08.54.54,0,0,0,.28-.08,36,36,0,0,0,4.39-3.35,7.52,7.52,0,0,0,1.7-2.17,4.69,4.69,0,0,0,.58-1.73,4.25,4.25,0,0,0-.6-2.9,4.14,4.14,0,0,0-2.14-1.68,4.45,4.45,0,0,0-1.44-.24,4,4,0,0,0-1.82.42,3.72,3.72,0,0,0-.94.64,3.91,3.91,0,0,0-1-.64A4,4,0,0,0,1040.9,600.55Zm-249.84,0a4.3,4.3,0,0,0-1.43.24,4.13,4.13,0,0,0-2.15,1.7,4.27,4.27,0,0,0-.59,2.91,4.82,4.82,0,0,0,.57,1.69,7.26,7.26,0,0,0,1.72,2.18,35.32,35.32,0,0,0,4.38,3.35.53.53,0,0,0,.27.08.54.54,0,0,0,.28-.08,35.76,35.76,0,0,0,4.38-3.35,7.4,7.4,0,0,0,1.7-2.18,4.77,4.77,0,0,0,.59-1.71,4.38,4.38,0,0,0-.6-2.9,4.14,4.14,0,0,0-2.14-1.69,4.5,4.5,0,0,0-1.45-.24,4,4,0,0,0-1.81.42,3.91,3.91,0,0,0-.95.64,4.16,4.16,0,0,0-1-.65A4.07,4.07,0,0,0,791.06,600.55Zm-83.27,0a4.39,4.39,0,0,0-1.43.24,4.12,4.12,0,0,0-2.15,1.69,4.22,4.22,0,0,0-.6,2.9,4.66,4.66,0,0,0,.58,1.71,7.45,7.45,0,0,0,1.71,2.18,35.32,35.32,0,0,0,4.38,3.35.54.54,0,0,0,.28.08.53.53,0,0,0,.27-.08,35.76,35.76,0,0,0,4.39-3.35,8,8,0,0,0,1.71-2.17,5.11,5.11,0,0,0,.57-1.72,4.16,4.16,0,0,0-2.74-4.59,4.45,4.45,0,0,0-1.44-.24,4,4,0,0,0-1.82.42,4.12,4.12,0,0,0-1,.64,3.72,3.72,0,0,0-.94-.64A4,4,0,0,0,707.79,600.55Zm-83.27,0a4.45,4.45,0,0,0-1.44.24,4.17,4.17,0,0,0-2.15,1.69,4.27,4.27,0,0,0-.6,2.9,4.66,4.66,0,0,0,.58,1.71,7.74,7.74,0,0,0,1.71,2.18,36,36,0,0,0,4.38,3.35.53.53,0,0,0,.56,0,36,36,0,0,0,4.38-3.35,7.82,7.82,0,0,0,1.71-2.17,5,5,0,0,0,.58-1.72,4.25,4.25,0,0,0-.61-2.91,4.13,4.13,0,0,0-2.14-1.68,4.45,4.45,0,0,0-1.44-.24,4,4,0,0,0-1.81.42,1,1,0,0,1-1.9,0A4,4,0,0,0,624.52,600.55Zm-83.28,0a4.35,4.35,0,0,0-1.43.24,4.08,4.08,0,0,0-2.15,1.69,4.16,4.16,0,0,0-.6,2.9,5,5,0,0,0,.55,1.67,7.8,7.8,0,0,0,1.73,2.22,36.65,36.65,0,0,0,4.39,3.35.53.53,0,0,0,.27.08.57.57,0,0,0,.28-.08,36,36,0,0,0,4.38-3.35,7.52,7.52,0,0,0,1.71-2.17,4.78,4.78,0,0,0,.58-1.73,4.25,4.25,0,0,0-.6-2.9,4.16,4.16,0,0,0-2.15-1.68,4.39,4.39,0,0,0-1.43-.24A4,4,0,0,0,545,601a3.72,3.72,0,0,0-.94.64,4.12,4.12,0,0,0-1-.64A4,4,0,0,0,541.24,600.55Zm-83.27,0a4.41,4.41,0,0,0-1.44.24,4.12,4.12,0,0,0-2.15,1.69,4.22,4.22,0,0,0-.6,2.9,4.77,4.77,0,0,0,.59,1.71,7.59,7.59,0,0,0,1.69,2.18,35.76,35.76,0,0,0,4.39,3.35.54.54,0,0,0,.28.08.53.53,0,0,0,.27-.08,36,36,0,0,0,4.39-3.35,7.52,7.52,0,0,0,1.7-2.17,4.78,4.78,0,0,0,.58-1.73,4.24,4.24,0,0,0-.6-2.9,4.14,4.14,0,0,0-2.14-1.68,4.45,4.45,0,0,0-1.44-.24,4.05,4.05,0,0,0-1.82.42,3.72,3.72,0,0,0-.94.64,3.91,3.91,0,0,0-1-.64A4,4,0,0,0,458,600.55Zm-249.83,0a4.38,4.38,0,0,0-1.44.24,4.13,4.13,0,0,0-2.15,1.7,4.27,4.27,0,0,0-.59,2.91,4.68,4.68,0,0,0,.58,1.69,7.29,7.29,0,0,0,1.71,2.18,35.32,35.32,0,0,0,4.38,3.35.54.54,0,0,0,.28.08.53.53,0,0,0,.27-.08,36.65,36.65,0,0,0,4.39-3.35,7.59,7.59,0,0,0,1.69-2.18,4.77,4.77,0,0,0,.59-1.71,4.32,4.32,0,0,0-.6-2.9,4.14,4.14,0,0,0-2.14-1.69,4.5,4.5,0,0,0-1.45-.24,4,4,0,0,0-1.81.42,3.91,3.91,0,0,0-.95.64,4.16,4.16,0,0,0-1-.65A4.06,4.06,0,0,0,208.14,600.55Zm1165.85,0a4.44,4.44,0,0,0-1.44.24,4.14,4.14,0,0,0-2.14,1.7,4.22,4.22,0,0,0-.59,2.91,4.89,4.89,0,0,0,.57,1.69,7.61,7.61,0,0,0,1.71,2.19,34.79,34.79,0,0,0,4.39,3.34.53.53,0,0,0,.27.08.54.54,0,0,0,.28-.08,36,36,0,0,0,4.38-3.35,7.4,7.4,0,0,0,1.7-2.18,4.74,4.74,0,0,0,.59-1.71,4.37,4.37,0,0,0-.6-2.9,4.12,4.12,0,0,0-2.15-1.69,4.41,4.41,0,0,0-1.44-.24,4,4,0,0,0-1.81.42,3.91,3.91,0,0,0-1,.64,4.16,4.16,0,0,0-1-.65A4.07,4.07,0,0,0,1374,600.55Zm-416.37,0a4.41,4.41,0,0,0-1.44.24,4.12,4.12,0,0,0-2.15,1.69,4.38,4.38,0,0,0-.6,2.9,4.77,4.77,0,0,0,.59,1.71,7.59,7.59,0,0,0,1.69,2.18,36.65,36.65,0,0,0,4.39,3.35.54.54,0,0,0,.28.08.53.53,0,0,0,.27-.08,33,33,0,0,0,4.39-3.35,7.41,7.41,0,0,0,1.71-2.18,4.75,4.75,0,0,0,.58-1.72,4.33,4.33,0,0,0-.61-2.9,4.14,4.14,0,0,0-2.14-1.68,4.3,4.3,0,0,0-1.43-.24,4,4,0,0,0-1.81.42,3.83,3.83,0,0,0-1,.64,3.91,3.91,0,0,0-1-.64A4,4,0,0,0,957.62,600.55Zm-582.93,0a4.41,4.41,0,0,0-1.44.24,4.12,4.12,0,0,0-2.15,1.69,4.38,4.38,0,0,0-.6,2.9,4.77,4.77,0,0,0,.59,1.71,7.77,7.77,0,0,0,1.69,2.18,36.65,36.65,0,0,0,4.39,3.35.57.57,0,0,0,.28.08.53.53,0,0,0,.27-.08,33.15,33.15,0,0,0,4.4-3.35,7.58,7.58,0,0,0,1.7-2.18,4.59,4.59,0,0,0,.58-1.72,4.27,4.27,0,0,0-.61-2.9,4.14,4.14,0,0,0-2.14-1.68,4.3,4.3,0,0,0-1.43-.24,4,4,0,0,0-1.81.42,3.83,3.83,0,0,0-1,.64,3.72,3.72,0,0,0-.95-.64A4,4,0,0,0,374.69,600.55Z" transform="translate(-19.19 -488.78)" fill="#f3e0fe"/><path d="M1900.18,489.78v45.71a1,1,0,0,0,0,.17,27,27,0,0,1,.37,4.32v74a51.63,51.63,0,0,1-65-14.06,1,1,0,0,0-1.58,0,51.62,51.62,0,0,1-81.7,0,1,1,0,0,0-1.58,0,51.6,51.6,0,0,1-81.68,0,1,1,0,0,0-1.58,0,51.62,51.62,0,0,1-81.7,0,1,1,0,0,0-1.58,0,51.62,51.62,0,0,1-81.7,0,1,1,0,0,0-.79-.38,1,1,0,0,0-.79.38,51.61,51.61,0,0,1-81.69,0,1,1,0,0,0-.79-.38,1,1,0,0,0-.79.38,51.62,51.62,0,0,1-81.7,0,1,1,0,0,0-1.58,0,51.61,51.61,0,0,1-81.69,0,1,1,0,0,0-.79-.38,1,1,0,0,0-.79.38,51.61,51.61,0,0,1-81.69,0,1,1,0,0,0-1.58,0,51.62,51.62,0,0,1-81.7,0,1,1,0,0,0-1.58,0,51.62,51.62,0,0,1-81.7,0,1,1,0,0,0-1.58,0,51.62,51.62,0,0,1-81.7,0,1,1,0,0,0-.79-.38,1,1,0,0,0-.79.38,51.61,51.61,0,0,1-81.69,0,1,1,0,0,0-1.58,0,51.62,51.62,0,0,1-81.7,0,1,1,0,0,0-1.58,0,51.62,51.62,0,0,1-81.7,0,1,1,0,0,0-1.58,0,51.62,51.62,0,0,1-81.7,0,1,1,0,0,0-.79-.38,1,1,0,0,0-.79.38,51.61,51.61,0,0,1-81.69,0,1,1,0,0,0-1.58,0,51.62,51.62,0,0,1-81.7,0,1,1,0,0,0-.79-.38h0a1,1,0,0,0-.79.38,51.6,51.6,0,0,1-81.68,0,1,1,0,0,0-1.59,0A51.63,51.63,0,0,1,294.17,620a51.31,51.31,0,0,1-40.84-20.06,1,1,0,0,0-1.58,0A51.33,51.33,0,0,1,210.89,620h-.14a51.31,51.31,0,0,1-40.69-20.06,1,1,0,0,0-1.58,0,51.61,51.61,0,0,1-81.69,0,1,1,0,0,0-.79-.38,1,1,0,0,0-.79.38,51.64,51.64,0,0,1-65,14.06V540a25.6,25.6,0,0,1,.44-4.72,1.1,1.1,0,0,0,0-.18v-45.3H1900.18M1876.41,601a3.83,3.83,0,0,0-.73-.44,4.55,4.55,0,0,0-2-.47,5.07,5.07,0,0,0-1.6.26,4.63,4.63,0,0,0-2.4,1.89,4.76,4.76,0,0,0-.68,3.23,5.38,5.38,0,0,0,.63,1.9,8.11,8.11,0,0,0,1.82,2.31,35.94,35.94,0,0,0,4.44,3.4,1,1,0,0,0,1.11,0,37.69,37.69,0,0,0,4.45-3.41,8.12,8.12,0,0,0,1.8-2.31,5.49,5.49,0,0,0,.64-1.88,4.72,4.72,0,0,0-.68-3.23,4.6,4.6,0,0,0-2.41-1.9,5.23,5.23,0,0,0-1.6-.26,4.69,4.69,0,0,0-2.76.91m-83.27,0a4.16,4.16,0,0,0-.73-.44,4.59,4.59,0,0,0-2-.47,5.31,5.31,0,0,0-1.6.26,4.62,4.62,0,0,0-2.39,1.89,4.68,4.68,0,0,0-.69,3.23,5.38,5.38,0,0,0,.63,1.9,8.11,8.11,0,0,0,1.82,2.31,38.44,38.44,0,0,0,4.45,3.4,1,1,0,0,0,.55.16,1,1,0,0,0,.55-.16,36.59,36.59,0,0,0,4.45-3.41,8.21,8.21,0,0,0,1.81-2.3l0-.06a5.58,5.58,0,0,0,.6-1.83,4.66,4.66,0,0,0-.68-3.23,4.6,4.6,0,0,0-2.41-1.9,5.21,5.21,0,0,0-1.59-.26,4.49,4.49,0,0,0-2,.47,3.81,3.81,0,0,0-.73.44m-83.28,0a4.16,4.16,0,0,0-.73-.44,4.52,4.52,0,0,0-2-.47,5.31,5.31,0,0,0-1.6.26,4.61,4.61,0,0,0-2.4,1.89,4.69,4.69,0,0,0-.68,3.23,5.18,5.18,0,0,0,.63,1.9,8.45,8.45,0,0,0,1.81,2.31,38.44,38.44,0,0,0,4.45,3.4,1,1,0,0,0,.55.16,1,1,0,0,0,.55-.16,37.26,37.26,0,0,0,4.46-3.41,8.34,8.34,0,0,0,1.8-2.31,4.89,4.89,0,0,0,.63-1.88,4.72,4.72,0,0,0-.67-3.23,4.63,4.63,0,0,0-2.42-1.9,5.13,5.13,0,0,0-1.59-.26,4.52,4.52,0,0,0-2,.47,4.16,4.16,0,0,0-.73.44m-83.28,0a4,4,0,0,0-.72-.44,4.56,4.56,0,0,0-2-.47,5.31,5.31,0,0,0-1.6.26,4.65,4.65,0,0,0-2.4,1.89,4.78,4.78,0,0,0-.68,3.25,5.68,5.68,0,0,0,.6,1.82l0,.06a8.25,8.25,0,0,0,1.82,2.31A37.71,37.71,0,0,0,1626,613a1,1,0,0,0,1.11,0,36.72,36.72,0,0,0,4.44-3.4,8,8,0,0,0,1.82-2.32,5.25,5.25,0,0,0,.63-1.88,4.72,4.72,0,0,0-.68-3.23,4.63,4.63,0,0,0-2.42-1.9,5.12,5.12,0,0,0-1.58-.26,4.59,4.59,0,0,0-2,.47,4.16,4.16,0,0,0-.73.44m-83.27,0a4.69,4.69,0,0,0-2.76-.91,5.33,5.33,0,0,0-1.61.26,4.62,4.62,0,0,0-2.4,1.9,4.93,4.93,0,0,0-.68,3.24,5.5,5.5,0,0,0,.64,1.87,8.17,8.17,0,0,0,1.81,2.32,38.58,38.58,0,0,0,4.44,3.4,1,1,0,0,0,1.11,0,35.94,35.94,0,0,0,4.44-3.4,7.67,7.67,0,0,0,1.82-2.32,5.32,5.32,0,0,0,.63-1.86,4.71,4.71,0,0,0-.67-3.23,4.54,4.54,0,0,0-2.4-1.91,4.82,4.82,0,0,0-1.6-.27,4.65,4.65,0,0,0-2,.46,5,5,0,0,0-.74.45M1460,601a4.85,4.85,0,0,0-.73-.44,4.55,4.55,0,0,0-2-.47,5.09,5.09,0,0,0-1.61.27,4.59,4.59,0,0,0-2.38,1.88,4.79,4.79,0,0,0-.69,3.25,5.52,5.52,0,0,0,.63,1.87,8.17,8.17,0,0,0,1.81,2.32,37.28,37.28,0,0,0,4.45,3.4,1.08,1.08,0,0,0,.56.16,1,1,0,0,0,.55-.16,38.41,38.41,0,0,0,4.46-3.41,8.14,8.14,0,0,0,1.79-2.31,5.36,5.36,0,0,0,.64-1.88,4.82,4.82,0,0,0-.67-3.21,4.66,4.66,0,0,0-2.42-1.92,5.13,5.13,0,0,0-1.59-.26,4.52,4.52,0,0,0-2,.47,5.17,5.17,0,0,0-.74.44m-83.27,0a4.25,4.25,0,0,0-.74-.44,4.52,4.52,0,0,0-2-.47,5.05,5.05,0,0,0-1.59.26,4.63,4.63,0,0,0-2.4,1.89,4.77,4.77,0,0,0-.68,3.26,5.32,5.32,0,0,0,.63,1.86,8,8,0,0,0,1.81,2.32,34.07,34.07,0,0,0,4.46,3.4,1,1,0,0,0,.54.16,1,1,0,0,0,.56-.16,38.25,38.25,0,0,0,4.45-3.41,8,8,0,0,0,1.79-2.31,5.34,5.34,0,0,0,.65-1.88,4.92,4.92,0,0,0-.68-3.23,4.6,4.6,0,0,0-2.41-1.9,5.23,5.23,0,0,0-1.6-.26,4.69,4.69,0,0,0-2.76.91m-83.28,0a4.08,4.08,0,0,0-.72-.44,4.59,4.59,0,0,0-2-.47,5.31,5.31,0,0,0-1.6.26,4.63,4.63,0,0,0-2.4,1.89,4.75,4.75,0,0,0-.68,3.23,5.3,5.3,0,0,0,.63,1.9,8.11,8.11,0,0,0,1.82,2.31,35.94,35.94,0,0,0,4.44,3.4,1,1,0,0,0,1.11,0,36.59,36.59,0,0,0,4.45-3.41,8,8,0,0,0,1.8-2.31,5.57,5.57,0,0,0,.64-1.88,4.72,4.72,0,0,0-.68-3.23,4.6,4.6,0,0,0-2.41-1.9,5.21,5.21,0,0,0-1.59-.26,4.69,4.69,0,0,0-2.77.91m-83.27,0a4.16,4.16,0,0,0-.73-.44,4.59,4.59,0,0,0-2-.47,5.21,5.21,0,0,0-1.59.26,4.61,4.61,0,0,0-2.4,1.89,4.74,4.74,0,0,0-.69,3.23,5.17,5.17,0,0,0,.64,1.9,7.94,7.94,0,0,0,1.81,2.31,37.28,37.28,0,0,0,4.45,3.4,1,1,0,0,0,.55.16,1,1,0,0,0,.55-.16,37.26,37.26,0,0,0,4.46-3.41,8.41,8.41,0,0,0,1.8-2.3l0-.06a5.58,5.58,0,0,0,.6-1.83,4.66,4.66,0,0,0-.68-3.23,4.56,4.56,0,0,0-2.41-1.9,5.17,5.17,0,0,0-1.59-.26,4.52,4.52,0,0,0-2,.47,4.14,4.14,0,0,0-.73.44m-83.28,0a4.16,4.16,0,0,0-.73-.44,4.52,4.52,0,0,0-2-.47,5.31,5.31,0,0,0-1.6.26,4.61,4.61,0,0,0-2.4,1.89,4.72,4.72,0,0,0-.68,3.25,5.43,5.43,0,0,0,.63,1.88,8.45,8.45,0,0,0,1.81,2.31,37.28,37.28,0,0,0,4.45,3.4,1,1,0,0,0,.55.16,1,1,0,0,0,.55-.16,37.26,37.26,0,0,0,4.46-3.41,8.33,8.33,0,0,0,1.81-2.31,5,5,0,0,0,.62-1.88,4.64,4.64,0,0,0-3.09-5.13,5.13,5.13,0,0,0-1.59-.26,4.52,4.52,0,0,0-2,.47,4.16,4.16,0,0,0-.73.44m-83.27,0a4.69,4.69,0,0,0-2.77-.91,5.31,5.31,0,0,0-1.6.26,4.65,4.65,0,0,0-2.4,1.89,4.78,4.78,0,0,0-.68,3.25,5.68,5.68,0,0,0,.6,1.82l0,.06a8.25,8.25,0,0,0,1.82,2.31,36.6,36.6,0,0,0,4.44,3.4,1,1,0,0,0,1.11,0,35.94,35.94,0,0,0,4.44-3.4,8,8,0,0,0,1.82-2.32,5.18,5.18,0,0,0,.63-1.88,4.69,4.69,0,0,0-.67-3.21,4.57,4.57,0,0,0-2.42-1.92,5.21,5.21,0,0,0-1.59-.26,4.59,4.59,0,0,0-2,.47,4.08,4.08,0,0,0-.72.44m-83.28,0a4.69,4.69,0,0,0-2.76-.91,5.33,5.33,0,0,0-1.61.26,4.66,4.66,0,0,0-2.4,1.9,4.93,4.93,0,0,0-.68,3.24,5.58,5.58,0,0,0,.64,1.87,8.17,8.17,0,0,0,1.81,2.32,38.58,38.58,0,0,0,4.44,3.4,1,1,0,0,0,.56.16,1,1,0,0,0,.54-.16,33.26,33.26,0,0,0,4.45-3.4,7.8,7.8,0,0,0,1.82-2.32,5.32,5.32,0,0,0,.63-1.86,4.71,4.71,0,0,0-.67-3.23,4.54,4.54,0,0,0-2.4-1.91,4.82,4.82,0,0,0-1.6-.27,4.57,4.57,0,0,0-2,.46,4.66,4.66,0,0,0-.75.45m-83.27,0a4.67,4.67,0,0,0-.74-.44,4.52,4.52,0,0,0-2-.47,5.09,5.09,0,0,0-1.61.27,4.59,4.59,0,0,0-2.38,1.88,4.79,4.79,0,0,0-.69,3.25,5.61,5.61,0,0,0,.63,1.87,8.35,8.35,0,0,0,1.81,2.32,37.28,37.28,0,0,0,4.45,3.4,1.1,1.1,0,0,0,.56.16,1,1,0,0,0,.55-.16,38.41,38.41,0,0,0,4.46-3.41,8,8,0,0,0,1.79-2.31,5.26,5.26,0,0,0,.65-1.88,4.82,4.82,0,0,0-.68-3.21,4.67,4.67,0,0,0-2.41-1.92,5.23,5.23,0,0,0-1.6-.26,4.55,4.55,0,0,0-2,.47,4.85,4.85,0,0,0-.73.44m-83.28,0a4.69,4.69,0,0,0-2.77-.91,5.05,5.05,0,0,0-1.59.26,4.63,4.63,0,0,0-2.4,1.89,4.77,4.77,0,0,0-.68,3.26,5.32,5.32,0,0,0,.63,1.86,7.82,7.82,0,0,0,1.81,2.32,36.61,36.61,0,0,0,4.45,3.4,1,1,0,0,0,1.11,0,38.55,38.55,0,0,0,4.45-3.41,8.12,8.12,0,0,0,1.8-2.31,5.57,5.57,0,0,0,.64-1.88,4.86,4.86,0,0,0-.68-3.23,4.6,4.6,0,0,0-2.41-1.9,5.23,5.23,0,0,0-1.6-.26,4.69,4.69,0,0,0-2.76.91m-83.27,0a4.69,4.69,0,0,0-2.77-.91,5.31,5.31,0,0,0-1.6.26,4.7,4.7,0,0,0-2.4,1.89,4.75,4.75,0,0,0-.68,3.23,5.38,5.38,0,0,0,.63,1.9,8.11,8.11,0,0,0,1.82,2.31A35.84,35.84,0,0,0,710,613a1,1,0,0,0,.55.16,1,1,0,0,0,.55-.16,37.69,37.69,0,0,0,4.45-3.41,8.21,8.21,0,0,0,1.81-2.3l0-.06a5.67,5.67,0,0,0,.6-1.83,4.72,4.72,0,0,0-.68-3.23,4.6,4.6,0,0,0-2.41-1.9,5.21,5.21,0,0,0-1.59-.26,4.56,4.56,0,0,0-2,.47,4,4,0,0,0-.72.44m-83.28,0a4.16,4.16,0,0,0-.73-.44,4.52,4.52,0,0,0-2-.47,5.23,5.23,0,0,0-1.6.26,4.61,4.61,0,0,0-2.4,1.89,4.74,4.74,0,0,0-.69,3.23,5.29,5.29,0,0,0,.64,1.9,8.45,8.45,0,0,0,1.81,2.31,37.28,37.28,0,0,0,4.45,3.4,1,1,0,0,0,1.1,0,37.26,37.26,0,0,0,4.46-3.41,8.34,8.34,0,0,0,1.8-2.31,5.28,5.28,0,0,0,.63-1.88,4.72,4.72,0,0,0-.67-3.23,4.63,4.63,0,0,0-2.42-1.9,5.13,5.13,0,0,0-1.59-.26,4.52,4.52,0,0,0-2,.47,4.16,4.16,0,0,0-.73.44M544,601a4,4,0,0,0-.72-.44,4.56,4.56,0,0,0-2-.47,5.31,5.31,0,0,0-1.6.26,4.65,4.65,0,0,0-2.4,1.89,4.72,4.72,0,0,0-.68,3.25,5.68,5.68,0,0,0,.6,1.82l0,.06a8.25,8.25,0,0,0,1.82,2.31,36.6,36.6,0,0,0,4.44,3.4,1,1,0,0,0,.55.16,1,1,0,0,0,.55-.16,37.28,37.28,0,0,0,4.45-3.4,8,8,0,0,0,1.82-2.32,5.25,5.25,0,0,0,.63-1.88,4.72,4.72,0,0,0-.68-3.23,4.63,4.63,0,0,0-2.42-1.9,5.12,5.12,0,0,0-1.58-.26,4.59,4.59,0,0,0-2,.47,4.16,4.16,0,0,0-.73.44m-83.27,0a4.69,4.69,0,0,0-2.76-.91,5.33,5.33,0,0,0-1.61.26,4.65,4.65,0,0,0-2.4,1.89,4.78,4.78,0,0,0-.68,3.25,5.5,5.5,0,0,0,.64,1.87,8.17,8.17,0,0,0,1.81,2.32,37.42,37.42,0,0,0,4.44,3.4,1,1,0,0,0,1.11,0,35.94,35.94,0,0,0,4.44-3.4,8,8,0,0,0,1.82-2.32,5,5,0,0,0,.62-1.84,4.71,4.71,0,0,0-.66-3.25,4.57,4.57,0,0,0-2.42-1.92,5.21,5.21,0,0,0-1.59-.26,4.62,4.62,0,0,0-2,.47,4.08,4.08,0,0,0-.72.44m-83.28,0a4.14,4.14,0,0,0-.73-.44,4.55,4.55,0,0,0-2-.47,5.33,5.33,0,0,0-1.61.26,4.66,4.66,0,0,0-2.4,1.9,4.87,4.87,0,0,0-.67,3.24,5.31,5.31,0,0,0,.63,1.87,8.17,8.17,0,0,0,1.81,2.32,37.28,37.28,0,0,0,4.45,3.4,1,1,0,0,0,.55.16A1,1,0,0,0,378,613a34,34,0,0,0,4.48-3.41,8.14,8.14,0,0,0,1.79-2.31,5,5,0,0,0,.63-1.84,4.77,4.77,0,0,0-.66-3.25,4.61,4.61,0,0,0-2.41-1.91,4.82,4.82,0,0,0-1.6-.27,4.57,4.57,0,0,0-2,.46,4.66,4.66,0,0,0-.75.45m-83.27,0a4.25,4.25,0,0,0-.74-.44,4.52,4.52,0,0,0-2-.47,5.09,5.09,0,0,0-1.61.27,4.59,4.59,0,0,0-2.38,1.88,4.85,4.85,0,0,0-.69,3.25,5.37,5.37,0,0,0,.64,1.87,8.18,8.18,0,0,0,1.8,2.32,38.44,38.44,0,0,0,4.45,3.4,1.1,1.1,0,0,0,.56.16,1,1,0,0,0,.55-.16,37.26,37.26,0,0,0,4.46-3.41,8,8,0,0,0,1.79-2.31,5.26,5.26,0,0,0,.65-1.88,4.82,4.82,0,0,0-.68-3.21,4.62,4.62,0,0,0-2.41-1.92,5.23,5.23,0,0,0-1.6-.26,4.69,4.69,0,0,0-2.76.91m-83.28,0a4.16,4.16,0,0,0-.73-.44,4.56,4.56,0,0,0-2-.47,5.12,5.12,0,0,0-1.59.26,4.63,4.63,0,0,0-2.4,1.89,4.77,4.77,0,0,0-.68,3.26,5.47,5.47,0,0,0,.63,1.87,8.11,8.11,0,0,0,1.82,2.31,37,37,0,0,0,4.44,3.4,1,1,0,0,0,1.11,0,36.59,36.59,0,0,0,4.45-3.41,8.12,8.12,0,0,0,1.8-2.31,5.49,5.49,0,0,0,.64-1.88,4.8,4.8,0,0,0-.68-3.23,4.6,4.6,0,0,0-2.41-1.9,5.23,5.23,0,0,0-1.6-.26,4.69,4.69,0,0,0-2.76.91m-83.27,0a4.16,4.16,0,0,0-.73-.44,4.59,4.59,0,0,0-2-.47,5.31,5.31,0,0,0-1.6.26,4.62,4.62,0,0,0-2.39,1.89,4.68,4.68,0,0,0-.69,3.23,5.17,5.17,0,0,0,.64,1.9,7.94,7.94,0,0,0,1.81,2.31,37.71,37.71,0,0,0,4.45,3.4,1,1,0,0,0,.55.16,1,1,0,0,0,.55-.16,36.59,36.59,0,0,0,4.45-3.41,8.21,8.21,0,0,0,1.81-2.3l0-.06a5.67,5.67,0,0,0,.6-1.83,4.66,4.66,0,0,0-.68-3.23,4.6,4.6,0,0,0-2.41-1.9,5.21,5.21,0,0,0-1.59-.26,4.52,4.52,0,0,0-2,.47,3.81,3.81,0,0,0-.73.44m-83.28,0a4.16,4.16,0,0,0-.73-.44,4.52,4.52,0,0,0-2-.47,5.27,5.27,0,0,0-1.6.26,4.61,4.61,0,0,0-2.4,1.89,4.69,4.69,0,0,0-.68,3.23,5.18,5.18,0,0,0,.63,1.9,8.45,8.45,0,0,0,1.81,2.31A38.44,38.44,0,0,0,43.8,613a1,1,0,0,0,.55.16,1,1,0,0,0,.55-.16,37.26,37.26,0,0,0,4.46-3.41,8.33,8.33,0,0,0,1.81-2.31,5.08,5.08,0,0,0,.62-1.88,4.64,4.64,0,0,0-3.09-5.13,5.13,5.13,0,0,0-1.59-.26,4.52,4.52,0,0,0-2,.47,4.16,4.16,0,0,0-.73.44M1901.18,488.78H19.65v46.3a26.35,26.35,0,0,0-.46,4.9V614.6a4,4,0,0,0,.46.24A52.64,52.64,0,0,0,86,600.56a52.62,52.62,0,0,0,83.27,0A52.5,52.5,0,0,0,210.75,621h.14a52.52,52.52,0,0,0,41.65-20.44,52.63,52.63,0,0,0,83.28,0,52.61,52.61,0,0,0,83.26,0,52.63,52.63,0,0,0,83.28,0,52.62,52.62,0,0,0,83.27,0,52.63,52.63,0,0,0,83.28,0,52.63,52.63,0,0,0,83.28,0,52.63,52.63,0,0,0,83.28,0,52.62,52.62,0,0,0,83.27,0,52.63,52.63,0,0,0,83.28,0,52.63,52.63,0,0,0,83.28,0,52.63,52.63,0,0,0,83.28,0,52.62,52.62,0,0,0,83.27,0,52.62,52.62,0,0,0,83.27,0,52.63,52.63,0,0,0,83.28,0,52.62,52.62,0,0,0,83.27,0,52.63,52.63,0,0,0,83.28,0,52.63,52.63,0,0,0,83.28,0,52.61,52.61,0,0,0,83.26,0,52.63,52.63,0,0,0,83.28,0,52.64,52.64,0,0,0,66.41,14.25l.39-.21V540a26.59,26.59,0,0,0-.39-4.49V488.78Zm-24.76,113.55a3.37,3.37,0,0,1,1.16-.91,3.58,3.58,0,0,1,1.59-.37,4.06,4.06,0,0,1,1.29.21,3.65,3.65,0,0,1,1.88,1.49,3.8,3.8,0,0,1,.53,2.56,4.52,4.52,0,0,1-.54,1.56,7.4,7.4,0,0,1-1.59,2,36.12,36.12,0,0,1-4.32,3.29,34.52,34.52,0,0,1-4.33-3.29,7.4,7.4,0,0,1-1.6-2,4.32,4.32,0,0,1-.53-1.56,3.74,3.74,0,0,1,.53-2.56,3.56,3.56,0,0,1,1.89-1.49,3.76,3.76,0,0,1,1.27-.21,3.62,3.62,0,0,1,1.6.37,3.53,3.53,0,0,1,1.17.91Zm-83.28,0a3.37,3.37,0,0,1,1.16-.91,3.59,3.59,0,0,1,1.6-.37,3.91,3.91,0,0,1,1.28.21,3.61,3.61,0,0,1,1.88,1.49,3.8,3.8,0,0,1,.53,2.56,4.74,4.74,0,0,1-.53,1.56,7.4,7.4,0,0,1-1.6,2,36.12,36.12,0,0,1-4.32,3.29,36.12,36.12,0,0,1-4.32-3.29,7.21,7.21,0,0,1-1.61-2,4.14,4.14,0,0,1-.52-1.56,3.84,3.84,0,0,1,.52-2.56,3.69,3.69,0,0,1,1.89-1.49,3.89,3.89,0,0,1,1.27-.21,3.62,3.62,0,0,1,1.6.37,3.53,3.53,0,0,1,1.17.91Zm-83.28,0a3.63,3.63,0,0,1,2.76-1.28,3.91,3.91,0,0,1,1.28.21,3.69,3.69,0,0,1,1.89,1.49,3.84,3.84,0,0,1,.52,2.56,4.53,4.53,0,0,1-.52,1.56,7.39,7.39,0,0,1-1.61,2,36.12,36.12,0,0,1-4.32,3.29,36.12,36.12,0,0,1-4.32-3.29,7.39,7.39,0,0,1-1.61-2,4.53,4.53,0,0,1-.52-1.56,3.84,3.84,0,0,1,.52-2.56,3.69,3.69,0,0,1,1.89-1.49,3.91,3.91,0,0,1,1.28-.21,3.63,3.63,0,0,1,2.76,1.28Zm-83.28,0a3.53,3.53,0,0,1,1.17-.91,3.62,3.62,0,0,1,1.6-.37,3.89,3.89,0,0,1,1.27.21,3.69,3.69,0,0,1,1.89,1.49,3.84,3.84,0,0,1,.52,2.56,4.14,4.14,0,0,1-.52,1.56,7.4,7.4,0,0,1-1.6,2,34.52,34.52,0,0,1-4.33,3.29,36.12,36.12,0,0,1-4.32-3.29,7.4,7.4,0,0,1-1.6-2,4.74,4.74,0,0,1-.53-1.56,3.8,3.8,0,0,1,.53-2.56,3.61,3.61,0,0,1,1.88-1.49,4,4,0,0,1,1.28-.21,3.59,3.59,0,0,1,1.6.37,3.37,3.37,0,0,1,1.16.91Zm-83.27,0a3.38,3.38,0,0,1,1.18-.91,3.55,3.55,0,0,1,1.59-.37,3.89,3.89,0,0,1,1.27.21,3.57,3.57,0,0,1,1.88,1.49,3.74,3.74,0,0,1,.53,2.56,4.32,4.32,0,0,1-.53,1.56,7,7,0,0,1-1.6,2,35.33,35.33,0,0,1-4.32,3.29,36.05,36.05,0,0,1-4.33-3.29,7.4,7.4,0,0,1-1.59-2,4.52,4.52,0,0,1-.54-1.56,4,4,0,0,1,.53-2.56,3.64,3.64,0,0,1,1.89-1.49,3.91,3.91,0,0,1,1.28-.21,3.55,3.55,0,0,1,1.59.37,3.42,3.42,0,0,1,1.17.91Zm-83.28,0a3.67,3.67,0,0,1,2.77-1.28,3.91,3.91,0,0,1,1.28.21,3.58,3.58,0,0,1,1.87,1.49,3.83,3.83,0,0,1,.54,2.56,4.52,4.52,0,0,1-.54,1.56,7,7,0,0,1-1.59,2,36.12,36.12,0,0,1-4.32,3.29h0a36.12,36.12,0,0,1-4.32-3.29,7,7,0,0,1-1.59-2,4.52,4.52,0,0,1-.54-1.56,3.83,3.83,0,0,1,.54-2.56,3.58,3.58,0,0,1,1.87-1.49,3.91,3.91,0,0,1,1.28-.21,3.55,3.55,0,0,1,1.59.37,3.42,3.42,0,0,1,1.17.91Zm-83.27,0a3.42,3.42,0,0,1,1.17-.91,3.55,3.55,0,0,1,1.59-.37,3.91,3.91,0,0,1,1.28.21,3.64,3.64,0,0,1,1.89,1.49,3.9,3.9,0,0,1,.52,2.56,4.52,4.52,0,0,1-.53,1.56,7.4,7.4,0,0,1-1.59,2,36.05,36.05,0,0,1-4.33,3.29,34.57,34.57,0,0,1-4.32-3.29,7,7,0,0,1-1.6-2,4.32,4.32,0,0,1-.53-1.56,3.74,3.74,0,0,1,.53-2.56,3.57,3.57,0,0,1,1.88-1.49,3.89,3.89,0,0,1,1.27-.21,3.55,3.55,0,0,1,1.59.37,3.38,3.38,0,0,1,1.18.91Zm-83.27,0a3.37,3.37,0,0,1,1.16-.91,3.59,3.59,0,0,1,1.6-.37,4,4,0,0,1,1.28.21,3.61,3.61,0,0,1,1.88,1.49,3.8,3.8,0,0,1,.53,2.56,4.52,4.52,0,0,1-.54,1.56,7.22,7.22,0,0,1-1.59,2,36.12,36.12,0,0,1-4.32,3.29,34.52,34.52,0,0,1-4.33-3.29,7.4,7.4,0,0,1-1.6-2,4.32,4.32,0,0,1-.53-1.56,3.93,3.93,0,0,1,.53-2.56,3.56,3.56,0,0,1,1.89-1.49,3.82,3.82,0,0,1,1.27-.21,3.62,3.62,0,0,1,1.6.37,3.53,3.53,0,0,1,1.17.91Zm-83.28,0a3.33,3.33,0,0,1,1.17-.91,3.55,3.55,0,0,1,1.59-.37,3.91,3.91,0,0,1,1.28.21,3.61,3.61,0,0,1,1.88,1.49,3.8,3.8,0,0,1,.53,2.56,4.74,4.74,0,0,1-.53,1.56,7.4,7.4,0,0,1-1.6,2,36.12,36.12,0,0,1-4.32,3.29,36.12,36.12,0,0,1-4.32-3.29,7.21,7.21,0,0,1-1.61-2,4.33,4.33,0,0,1-.52-1.56,3.84,3.84,0,0,1,.52-2.56,3.69,3.69,0,0,1,1.89-1.49,3.89,3.89,0,0,1,1.27-.21,3.59,3.59,0,0,1,1.6.37,3.53,3.53,0,0,1,1.17.91Zm-83.28,0a3.63,3.63,0,0,1,2.76-1.28,3.91,3.91,0,0,1,1.28.21,3.69,3.69,0,0,1,1.89,1.49,3.84,3.84,0,0,1,.52,2.56,4.33,4.33,0,0,1-.52,1.56,7.39,7.39,0,0,1-1.61,2,36.12,36.12,0,0,1-4.32,3.29,36.12,36.12,0,0,1-4.32-3.29,7.4,7.4,0,0,1-1.6-2,4.52,4.52,0,0,1-.53-1.56,3.8,3.8,0,0,1,.53-2.56,3.61,3.61,0,0,1,1.88-1.49,3.91,3.91,0,0,1,1.28-.21,3.63,3.63,0,0,1,2.76,1.28Zm-83.28,0a3.53,3.53,0,0,1,1.17-.91,3.62,3.62,0,0,1,1.6-.37,3.82,3.82,0,0,1,1.27.21,3.56,3.56,0,0,1,1.89,1.49,3.87,3.87,0,0,1,.53,2.56,4.32,4.32,0,0,1-.53,1.56,7.4,7.4,0,0,1-1.6,2,34.52,34.52,0,0,1-4.33,3.29,36.12,36.12,0,0,1-4.32-3.29,7.4,7.4,0,0,1-1.6-2,4.74,4.74,0,0,1-.53-1.56,3.8,3.8,0,0,1,.53-2.56,3.61,3.61,0,0,1,1.88-1.49,4,4,0,0,1,1.28-.21,3.59,3.59,0,0,1,1.6.37,3.37,3.37,0,0,1,1.16.91Zm-83.27,0a3.38,3.38,0,0,1,1.18-.91,3.55,3.55,0,0,1,1.59-.37,3.89,3.89,0,0,1,1.27.21,3.57,3.57,0,0,1,1.88,1.49,3.74,3.74,0,0,1,.53,2.56,4.32,4.32,0,0,1-.53,1.56,6.88,6.88,0,0,1-1.6,2,34.57,34.57,0,0,1-4.32,3.29,36.05,36.05,0,0,1-4.33-3.29,7.4,7.4,0,0,1-1.59-2,4.52,4.52,0,0,1-.53-1.56,3.9,3.9,0,0,1,.52-2.56,3.64,3.64,0,0,1,1.89-1.49,3.91,3.91,0,0,1,1.28-.21,3.55,3.55,0,0,1,1.59.37,3.42,3.42,0,0,1,1.17.91Zm-83.27,0a3.42,3.42,0,0,1,1.17-.91,3.55,3.55,0,0,1,1.59-.37,3.91,3.91,0,0,1,1.28.21,3.58,3.58,0,0,1,1.87,1.49,3.83,3.83,0,0,1,.54,2.56,4.52,4.52,0,0,1-.54,1.56,7,7,0,0,1-1.59,2,36.12,36.12,0,0,1-4.32,3.29h0a36.12,36.12,0,0,1-4.32-3.29,7,7,0,0,1-1.59-2,4.52,4.52,0,0,1-.54-1.56,3.83,3.83,0,0,1,.54-2.56,3.58,3.58,0,0,1,1.87-1.49,3.91,3.91,0,0,1,1.28-.21,3.67,3.67,0,0,1,2.77,1.28Zm-83.28,0a3.42,3.42,0,0,1,1.17-.91,3.58,3.58,0,0,1,1.59-.37,3.91,3.91,0,0,1,1.28.21,3.64,3.64,0,0,1,1.89,1.49,4,4,0,0,1,.53,2.56,4.52,4.52,0,0,1-.54,1.56,7.4,7.4,0,0,1-1.59,2,35.27,35.27,0,0,1-4.33,3.29,35.33,35.33,0,0,1-4.32-3.29,7,7,0,0,1-1.6-2,4.32,4.32,0,0,1-.53-1.56,3.74,3.74,0,0,1,.53-2.56,3.57,3.57,0,0,1,1.88-1.49,3.89,3.89,0,0,1,1.27-.21,3.52,3.52,0,0,1,1.59.37,3.38,3.38,0,0,1,1.18.91Zm-83.27,0a3.37,3.37,0,0,1,1.16-.91,3.59,3.59,0,0,1,1.6-.37,4,4,0,0,1,1.28.21,3.61,3.61,0,0,1,1.88,1.49,3.8,3.8,0,0,1,.53,2.56,4.74,4.74,0,0,1-.53,1.56,7.4,7.4,0,0,1-1.6,2,36.12,36.12,0,0,1-4.32,3.29,34.52,34.52,0,0,1-4.33-3.29,7.4,7.4,0,0,1-1.6-2,4.14,4.14,0,0,1-.52-1.56,3.84,3.84,0,0,1,.52-2.56,3.69,3.69,0,0,1,1.89-1.49,3.89,3.89,0,0,1,1.27-.21,3.62,3.62,0,0,1,1.6.37,3.53,3.53,0,0,1,1.17.91Zm-83.28,0a3.63,3.63,0,0,1,2.76-1.28,3.91,3.91,0,0,1,1.28.21,3.69,3.69,0,0,1,1.89,1.49,3.84,3.84,0,0,1,.52,2.56,4.75,4.75,0,0,1-.52,1.56,7.39,7.39,0,0,1-1.61,2,36.12,36.12,0,0,1-4.32,3.29,36.12,36.12,0,0,1-4.32-3.29,7.39,7.39,0,0,1-1.61-2,4.53,4.53,0,0,1-.52-1.56,3.84,3.84,0,0,1,.52-2.56,3.69,3.69,0,0,1,1.89-1.49,3.91,3.91,0,0,1,1.28-.21,3.63,3.63,0,0,1,2.76,1.28Zm-83.28,0a3.53,3.53,0,0,1,1.17-.91,3.62,3.62,0,0,1,1.6-.37,3.89,3.89,0,0,1,1.27.21,3.69,3.69,0,0,1,1.89,1.49,3.84,3.84,0,0,1,.52,2.56,4.14,4.14,0,0,1-.52,1.56,7.21,7.21,0,0,1-1.61,2A36.12,36.12,0,0,1,544,612.2a36.12,36.12,0,0,1-4.32-3.29,7.4,7.4,0,0,1-1.6-2,4.74,4.74,0,0,1-.53-1.56,3.8,3.8,0,0,1,.53-2.56,3.61,3.61,0,0,1,1.88-1.49,4,4,0,0,1,1.28-.21,3.59,3.59,0,0,1,1.6.37,3.37,3.37,0,0,1,1.16.91Zm-83.28,0a3.53,3.53,0,0,1,1.17-.91,3.62,3.62,0,0,1,1.6-.37,3.82,3.82,0,0,1,1.27.21,3.56,3.56,0,0,1,1.89,1.49,3.74,3.74,0,0,1,.53,2.56,4.32,4.32,0,0,1-.53,1.56,7.4,7.4,0,0,1-1.6,2,34.52,34.52,0,0,1-4.33,3.29,36.12,36.12,0,0,1-4.32-3.29,7.4,7.4,0,0,1-1.59-2,4.52,4.52,0,0,1-.54-1.56,3.87,3.87,0,0,1,.53-2.56,3.65,3.65,0,0,1,1.88-1.49,4.06,4.06,0,0,1,1.29-.21,3.58,3.58,0,0,1,1.59.37,3.37,3.37,0,0,1,1.16.91Zm-83.27,0a3.48,3.48,0,0,1,1.18-.91,3.55,3.55,0,0,1,1.59-.37,3.82,3.82,0,0,1,1.27.21,3.57,3.57,0,0,1,1.88,1.49,3.74,3.74,0,0,1,.53,2.56,4.32,4.32,0,0,1-.53,1.56,7,7,0,0,1-1.59,2,35.27,35.27,0,0,1-4.33,3.29,36.12,36.12,0,0,1-4.32-3.29,7.21,7.21,0,0,1-1.6-2,4.74,4.74,0,0,1-.53-1.56,3.9,3.9,0,0,1,.52-2.56,3.69,3.69,0,0,1,1.89-1.49,3.91,3.91,0,0,1,1.28-.21,3.55,3.55,0,0,1,1.59.37,3.42,3.42,0,0,1,1.17.91Zm-83.27,0a3.42,3.42,0,0,1,1.17-.91,3.55,3.55,0,0,1,1.59-.37,3.91,3.91,0,0,1,1.28.21,3.65,3.65,0,0,1,1.88,1.49,3.87,3.87,0,0,1,.53,2.56,4.74,4.74,0,0,1-.53,1.56,7.4,7.4,0,0,1-1.59,2,36.05,36.05,0,0,1-4.33,3.29h0a36.12,36.12,0,0,1-4.32-3.29,7,7,0,0,1-1.59-2,4.52,4.52,0,0,1-.54-1.56,3.83,3.83,0,0,1,.54-2.56,3.58,3.58,0,0,1,1.87-1.49,3.91,3.91,0,0,1,1.28-.21,3.55,3.55,0,0,1,1.59.37,3.48,3.48,0,0,1,1.18.91Zm-83.27,0a3.37,3.37,0,0,1,1.16-.91,3.58,3.58,0,0,1,1.59-.37,4.06,4.06,0,0,1,1.29.21,3.65,3.65,0,0,1,1.88,1.49,3.93,3.93,0,0,1,.53,2.56,4.52,4.52,0,0,1-.54,1.56,7.22,7.22,0,0,1-1.59,2,36.12,36.12,0,0,1-4.32,3.29,34.52,34.52,0,0,1-4.33-3.29,7.4,7.4,0,0,1-1.6-2,4.32,4.32,0,0,1-.53-1.56,3.74,3.74,0,0,1,.53-2.56,3.56,3.56,0,0,1,1.89-1.49,3.74,3.74,0,0,1,1.26-.21,3.59,3.59,0,0,1,1.6.37,3.48,3.48,0,0,1,1.18.91Zm-83.28,0a3.33,3.33,0,0,1,1.17-.91,3.52,3.52,0,0,1,1.59-.37,3.91,3.91,0,0,1,1.28.21,3.61,3.61,0,0,1,1.88,1.49,3.8,3.8,0,0,1,.53,2.56,4.74,4.74,0,0,1-.53,1.56,7.4,7.4,0,0,1-1.6,2,36.12,36.12,0,0,1-4.32,3.29,34.57,34.57,0,0,1-4.32-3.29,7.21,7.21,0,0,1-1.61-2,4.14,4.14,0,0,1-.52-1.56,3.84,3.84,0,0,1,.52-2.56,3.69,3.69,0,0,1,1.89-1.49,3.89,3.89,0,0,1,1.27-.21,3.59,3.59,0,0,1,1.6.37,3.53,3.53,0,0,1,1.17.91Zm-83.28,0a3.63,3.63,0,0,1,2.76-1.28,3.91,3.91,0,0,1,1.28.21,3.69,3.69,0,0,1,1.89,1.49,3.84,3.84,0,0,1,.52,2.56,4.33,4.33,0,0,1-.52,1.56,7.39,7.39,0,0,1-1.61,2,36.12,36.12,0,0,1-4.32,3.29A36.12,36.12,0,0,1,40,608.91a7.4,7.4,0,0,1-1.6-2,4.32,4.32,0,0,1-.53-1.56,3.8,3.8,0,0,1,.53-2.56,3.61,3.61,0,0,1,1.88-1.49,3.91,3.91,0,0,1,1.28-.21,3.63,3.63,0,0,1,2.76,1.28Z" transform="translate(-19.19 -488.78)" fill="#6d5c8e"/></svg>