<svg id="b5997642-5ffa-4307-9691-e4738bd80798" data-name="Capa 1" xmlns="http://www.w3.org/2000/svg" viewBox="0 0 1060.87 682">
  <title>discawrd</title>
  <g id="a09756af-dad5-4c53-a79b-42f0b8701233" data-name="Nuevo símbolo 3">
    <g>
      <path d="M960.86,702a173.23,173.23,0,0,0,1.4,22.49h-1.4c-32.76,0-63.34,11.46-89.23,31.34-7.54-13.31-15.77-28.56-24.82-46C738,773.25,568.64,774.64,557.56,774.64c-19.26,0-169.7-2-272.95-57.61C227.32,826.52,203.85,843.5,179.27,848.35,121.59,859.65,57.91,803.92,33,735.73,6.63,663.47,29.46,592.5,51.33,527.48,71,469,104.27,399.05,145.35,341.33a64.28,64.28,0,0,0,30,7.46c40.07,0,72.58-37.41,72.58-83.5v-.62a44.64,44.64,0,0,0,7.26.62c22.11,0,40.89-16.26,47.85-38.92a100.64,100.64,0,0,1,27.15,2.73,137.55,137.55,0,0,1,47.08,23.33c54-37.3,115.84-61.41,180.34-62.3,69.92-.94,137.08,25.39,195,66.58,24.1-20.32,49.07-26.77,52.5-27.61,94.26-22.66,187.26,96.14,243.68,212.93a165.58,165.58,0,0,0-5.66,43.2,161.32,161.32,0,0,0,16.74,72.48C1003.68,569.29,960.86,629.46,960.86,702Z" transform="translate(-10.11 -179)" fill="#e8e5ff"/>
      <path d="M163.42,861C102.6,861,45.58,802.55,22.6,739.54c-28.3-77.39-2.52-154,18.19-215.6,22.17-66,57-134.92,95.5-189.06a11.12,11.12,0,0,1,14.22-3.4,53.07,53.07,0,0,0,24.79,6.19c33.89,0,61.46-32.47,61.46-72.38a11.74,11.74,0,0,1,3.92-8.78,11.33,11.33,0,0,1,9-2.81,33,33,0,0,0,5.47.47c16.56,0,31.51-12.49,37.23-31.06a11.13,11.13,0,0,1,10.21-7.85,112.09,112.09,0,0,1,30.14,3,148,148,0,0,1,44.68,20.59c57.84-38.36,119.92-59,180-59.86,65.21-.69,132.23,21.16,194.77,63.84,23.23-17.34,45.69-23.44,50.31-24.56,125.26-30.09,227.83,159.94,256.31,218.89a11.11,11.11,0,0,1,.72,7.73,155,155,0,0,0-5.27,40.31c0,23.94,5.37,47.27,15.55,67.48a11.12,11.12,0,0,1-7.69,15.89C1009.88,579.36,972,635.46,972,702a161.37,161.37,0,0,0,1.31,21,11.13,11.13,0,0,1-11,12.58h-1.4c-29.2,0-57.71,10-82.46,29A11.14,11.14,0,0,1,862,761.32c-6.13-10.81-12.62-22.74-19.72-36.25-112.56,60-277.51,60.69-284.68,60.69-27.47-.08-165.76-3.12-268.26-53.8C236.24,831.78,211,853.42,181.42,859.26A93.41,93.41,0,0,1,163.42,861ZM149.21,355.2C114,406.43,82.37,470,61.87,531c-20.62,61.33-44,130.82-18.38,200.89C68.21,799.7,128.2,847,177.13,837.44c18.76-3.7,40.34-16.09,97.62-125.57a11.11,11.11,0,0,1,15.13-4.63c100.69,54.23,250.91,56.23,267.71,56.28,7.11,0,176.25-.71,283.62-63.33a11.14,11.14,0,0,1,15.48,4.49c6.7,12.94,12.84,24.46,18.6,34.91,23-15.13,48.5-23.94,74.8-25.83-.24-3.84-.35-7.77-.35-11.76,0-71.49,39.06-132.83,94.64-151.6A175.19,175.19,0,0,1,1032,485.23a177.93,177.93,0,0,1,5-42C981.93,330.74,893.32,219.31,807.7,239.91c-2.55.62-25.83,6.66-47.93,25.3a11.12,11.12,0,0,1-13.61.56c-60.59-43-125.6-65.41-188.45-64.52-57.91.8-118.14,21.66-174.17,60.33a11.14,11.14,0,0,1-13-.3,128,128,0,0,0-43.08-21.4,90.9,90.9,0,0,0-16.71-2.36C300.9,260,280.89,275,258.38,276.31c-5,47.25-40.37,83.6-83.08,83.6A74.16,74.16,0,0,1,149.21,355.2Z" transform="translate(-10.11 -179)" fill="#6d5c8e"/>
    </g>
    <rect x="312.24" y="431.45" width="133.6" height="55.67" rx="27.83" fill="#6d5c8e"/>
    <g>
      <circle cx="718.62" cy="442.59" r="58.45" fill="#fbf9ff"/>
      <path d="M728.72,691.15a69.57,69.57,0,1,1,69.57-69.56A69.64,69.64,0,0,1,728.72,691.15Zm0-116.89a47.33,47.33,0,1,0,47.33,47.33A47.38,47.38,0,0,0,728.72,574.26Z" transform="translate(-10.11 -179)" fill="#6d5c8e"/>
    </g>
  </g>
</svg>
