<svg id="Capa_1" data-name="Capa 1" xmlns="http://www.w3.org/2000/svg" viewBox="0 0 1063.3 1063"><title>gugul</title><path d="M689.78,1008c-45.67-13.72-73.64-65.34-108.49-129.66-16-29.49-26.76-49.4-31.34-79.76-4.9-32.56,3.15-46.14-7.37-82.86-3.89-13.61-7.38-20.2-3.86-27.88,7.72-16.85,34.72-7.55,66.21-23.22,37.46-18.64,53.65-58.85,57.23-67.75,12.94-32.15,1.8-41.08,14.77-60.63,17.8-26.83,48.05-24,86.49-40.69,36.25-15.78,55.94-38.6,90.91-79.13C935,322.92,929.66,250.34,959.26,249.33c39.94-1.36,82.22,129.64,94,232.86,3.34,29.39,7.55,68.44,1.53,119.13-20.43,172.13-135.17,278.79-170.5,311C835,957.32,757.25,1028.28,689.78,1008Z" transform="translate(-8.35 -8.5)" fill="#fbf9ff"/><path d="M65.47,399.67c37.14-32.2,98.28-29.74,174.47-26.66,34.93,1.41,58.51,2.36,88,14,36.94,14.61,45,30.94,77.64,36.2,40.57,6.53,67.91-12.26,72.77-3.89,6.25,10.76-42.17,33.66-61.44,83.71-15.92,41.33-4.8,96.74,25.52,126.09,26.31,25.45,48.48,13.3,67.91,39.11,19.12,25.41,6.51,49,14.84,96.77,6.09,34.94,19,57.78,39,93.06,64.27,113.4,144.92,135.82,136.7,164.75-11.77,41.42-193.09,51.84-349.83-20.63-20.36-9.42-69.75-33.84-123.71-80.08C187.07,887.6,77.74,784.3,44.2,615.92,31.17,550.49,10.61,447.25,65.47,399.67Z" transform="translate(-8.35 -8.5)" fill="#f3e0fe"/><path d="M951.13,252.29c4.61,69.21-58.33,143.61-77.58,166.37-15,17.75-35.36,41.8-69.47,62.12-25.69,15.3-34.23,13.62-70.23,34.77-35.58,20.9-42.45,31.48-54,28.85-22.43-5.12-5.75-55.41-35.52-97.58-25.54-36.19-77.8-57.7-119-48.76-35.78,7.75-38,32.94-70.23,34.77-31.76,1.8-44.38-21.8-88.73-41.38-32.44-14.32-58.63-16.24-99.07-19.19-130-9.5-193.42,45.14-212.92,22.24C26.46,361.72,118.45,205.12,265.74,115,284.87,103.27,332.61,75.75,401,56.53c43.44-12.2,194.83-52.37,356.36,17.64C811.48,97.62,944.64,154.77,951.13,252.29Z" transform="translate(-8.35 -8.5)" fill="#e8e5ff"/><path d="M539.34,1071.5a528.24,528.24,0,0,1-223.81-49.77C186.85,961.74,89.25,855.22,40.69,721.8S-1.57,444.05,58.43,315.38C182.28,49.75,499.16-65.6,764.79,58.28s381,440.74,257.09,706.36h0C931.81,957.81,739.63,1071.5,539.34,1071.5ZM540.92,43.57c-187.09,0-366.57,106.18-450.71,286.62-56,120.19-61.92,255-16.57,379.61S210.16,933.91,330.35,990c248.1,115.68,544.05,8,659.75-240.13h0c115.69-248.1,8-544.07-240.13-659.76A493.56,493.56,0,0,0,540.92,43.57ZM1006,757.23h0Z" transform="translate(-8.35 -8.5)" fill="#6d5c8e"/><path d="M714.77,1037.3A17.46,17.46,0,0,1,706,1035c-38.57-22.25-93.21-63.05-134.49-131.18-54.36-89.71-56.7-179.71-53.25-225.37a17.54,17.54,0,0,1,35,2.65c-3.13,41.47-1,123.2,48.27,204.55,37.42,61.76,87,98.78,122,119a17.53,17.53,0,0,1-8.76,32.72Z" transform="translate(-8.35 -8.5)" fill="#6d5c8e"/><path d="M444.08,463a17.42,17.42,0,0,1-10-3.13A374.14,374.14,0,0,0,267.18,396.1c-99.48-12.22-179,19-217.46,38.71a17.53,17.53,0,1,1-16-31.21c42.07-21.55,128.91-55.71,237.72-42.3A409.27,409.27,0,0,1,454.1,431a17.53,17.53,0,0,1-10,31.93Z" transform="translate(-8.35 -8.5)" fill="#6d5c8e"/><path d="M714.77,1037.3A17.46,17.46,0,0,1,706,1035c-38.57-22.25-93.21-63.05-134.49-131.18-54.36-89.71-56.7-179.71-53.25-225.37a17.54,17.54,0,0,1,35,2.65c-3.13,41.47-1,123.2,48.27,204.55,37.42,61.76,87,98.78,122,119a17.53,17.53,0,0,1-8.76,32.72Z" transform="translate(-8.35 -8.5)" fill="#6d5c8e"/><path d="M676.92,553.81a17.53,17.53,0,0,1-4.79-34.4c32.16-9.14,95.28-33.12,156.75-91,78.27-73.77,105.51-156.72,113.59-189a17.53,17.53,0,0,1,34,8.53c-8.83,35.23-38.54,125.82-123.56,206-66.88,63-136,89.23-171.2,99.24A17.76,17.76,0,0,1,676.92,553.81Z" transform="translate(-8.35 -8.5)" fill="#6d5c8e"/><path d="M741.42,434.33c-8.57-13.45-28.28-38.81-63.75-51.49-6.51-2.32-51.15-17.48-97.25,5.31a122.83,122.83,0,0,0-39.59,31.53,122.65,122.65,0,0,0-39.58-31.53c-46.1-22.79-90.74-7.63-97.26-5.31-35.47,12.68-55.18,38-63.74,51.49-23.83,37.45-19.2,78.15-17.83,89.2,2.83,22.88,10.63,38.9,17.91,53.55C358,612.3,380,634,394.48,647.6c12.26,11.48,24.85,22.62,37.36,33.08l52,41c12.86,9.51,24.77,18,35.13,25.19l21.85,14.57,21.85-14.57c11-7.63,23.65-16.62,37.36-26.91l43.7-34.27c14.48-11.91,29.13-24.76,43.44-38.13,14.48-13.62,36.5-35.3,54.16-70.6,7.28-14.65,15.08-30.59,17.9-53.47C760.61,512.48,765.24,471.78,741.42,434.33Z" transform="translate(-8.35 -8.5)" fill="#fbf9ff"/><path d="M540.83,779a17.51,17.51,0,0,1-9.72-2.94L509.26,761.5c-10.77-7.47-22.83-16.06-35.83-25.68L421,694.44q-19.92-16.63-38.49-34.05c-12.31-11.58-37.88-35.62-57.83-75.45-7.32-14.72-16.39-33-19.64-59.26-5.88-47.49,7.87-81,20.43-100.76,10.05-15.78,32.85-44.37,72.64-58.6,13.49-4.8,61.26-18.47,110.92,6.11a137.6,137.6,0,0,1,31.82,21.88,138.08,138.08,0,0,1,31.77-21.86c49.74-24.59,97.48-10.92,110.93-6.14,39.85,14.25,62.63,42.83,72.68,58.61h0c18,28.34,25.09,63.18,20.43,100.77-3.23,26.16-12.32,44.43-19.6,59.1-20,39.93-45.54,64-57.84,75.58-14.62,13.65-29.51,26.73-44.33,38.91l-44,34.52c-15.57,11.68-29.23,21.28-38.16,27.51l-22.15,14.76A17.56,17.56,0,0,1,540.83,779ZM447.12,393.32a116.23,116.23,0,0,0-37.26,6C380,410.05,362.67,431.76,355,443.75c-9.48,14.9-19.81,40.47-15.21,77.62,2.52,20.34,9.48,34.36,16.21,47.92,17.14,34.19,38.82,54.59,50.47,65.53,11.88,11.14,24.2,22,36.59,32.4L494.72,708C507,717,518.74,725.4,529,732.51l11.85,7.9L553,732.33c8.43-5.88,21.74-15.23,36.56-26.36l43.4-34c13.92-11.45,28.26-24,42.29-37.14,11.61-10.92,33.3-31.32,50.44-65.64,6.72-13.52,13.69-27.54,16.2-47.77,4.6-37.16-5.74-62.72-15.23-77.64h0c-7.62-12-24.89-33.69-54.85-44.4-7.21-2.56-45.29-14.41-83.57,4.52a104.83,104.83,0,0,0-33.89,27c-6.66,8-20.29,8-27,0a101.87,101.87,0,0,0-80.23-37.57Z" transform="translate(-8.35 -8.5)" fill="#6d5c8e"/></svg>