<svg id="Capa_1" data-name="Capa 1" xmlns="http://www.w3.org/2000/svg" viewBox="0 0 999.99 1000"><title>gugul</title><g id="Nuevo_símbolo_2" data-name="Nuevo símbolo 2"><path d="M853.62,879.53c-44.38,6.46-88.75-26.43-144-67.41-25.34-18.79-42.45-31.47-58.42-55.54C634,730.77,635.5,716,611.93,688.87c-8.73-10.06-14.32-14.29-14.37-22.24-.12-17.43,26.59-20.23,47.22-46.12C669.3,589.73,667.11,549,666.63,540c-1.75-32.55-14.8-35.74-11.51-57.56,4.51-29.95,31.43-39.53,57.56-69.07,24.63-27.86,32.35-55.15,46.05-103.61,31.6-111.81-1.82-171.57,23-184.19,33.51-17,121.63,77.84,172.68,161.17,14.54,23.73,33.65,55.34,48.67,100.95,51,154.88-4.41,291.42-21.71,333C957.26,778.58,919.2,870,853.62,879.53Z" transform="translate(-40 -40)" fill="#fbf9ff"/><path d="M79.52,609.07c18.86-42.22,72-64.42,138.14-92.09,30.34-12.69,50.82-21.25,80.59-23,37.3-2.23,50.63,8.51,80.58,0,37.19-10.56,53-37.45,60.5-32.25,9.6,6.69-22.57,45.46-19.11,95.8,2.86,41.57,34.37,84.38,71.89,97.34,32.55,11.25,46.62-7.93,73.44,6.35,26.41,14.07,25,39.21,51.12,76.6,19.09,27.37,39.21,41.7,70.28,63.83,99.87,71.13,177.54,58.18,182,86.11,6.43,40-144,121-306.46,121.49-21.09.06-72.91-1.13-137.3-19.09-48.07-13.41-182.35-58-277.88-188.24C110.23,751.28,51.66,671.44,79.52,609.07Z" transform="translate(-40 -40)" fill="#f3e0fe"/><path d="M776,131.32C807.44,188.49,783.36,277,776,304c-5.75,21.11-13.53,49.7-34.54,80.59-15.82,23.25-23.76,25.22-46.05,57.56-22,32-23.68,43.71-34.54,46.05-21.16,4.55-26.92-45-69.07-69.08-36.16-20.69-89.27-18.25-120.87,5.76-27.43,20.83-19.29,43.18-46.05,57.56-26.36,14.16-46.51-.94-92.1,0-33.36.69-56.45,9.47-92.09,23C126.08,549.05,93.73,620.84,68,609.07c-36.84-16.85-20.67-186.93,69.07-322.33,11.65-17.59,41.41-60,92.09-103.61C261.35,155.46,374.46,61,540,56.49,595.44,55,731.69,50.77,776,131.32Z" transform="translate(-40 -40)" fill="#e8e5ff"/><path d="M540,1040C264.3,1040,40,815.7,40,540S264.3,40,540,40s500,224.3,500,500S815.7,1040,540,1040Zm0-967C282.49,73,73,282.49,73,540s209.5,467,467,467,467-209.5,467-467S797.51,73,540,73Z" transform="translate(-40 -40)" fill="#6d5c8e"/><circle cx="500" cy="500" r="126.63" fill="#fbf9ff"/><path d="M540,683.12c-78.92,0-143.12-64.2-143.12-143.12S461.08,396.88,540,396.88,683.12,461.08,683.12,540,618.92,683.12,540,683.12Zm0-253.26A110.14,110.14,0,1,0,650.14,540,110.27,110.27,0,0,0,540,429.86Z" transform="translate(-40 -40)" fill="#6d5c8e"/><path d="M879.62,896.09c-.48,0-1,0-1.45-.06-41.72-3.62-104.52-16.69-166.8-58.36-82-54.87-119.79-130.67-135-171a16.49,16.49,0,1,1,30.86-11.66c13.82,36.61,48.11,105.45,122.48,155.2C786.17,848,843.16,859.88,881,863.17a16.49,16.49,0,0,1-1.41,32.92Z" transform="translate(-40 -40)" fill="#6d5c8e"/><path d="M67,651.65A16.49,16.49,0,0,1,54,625c27.32-35.09,87.8-98.73,185.85-130.56A384.85,384.85,0,0,1,423.3,481.3a16.49,16.49,0,1,1-5.6,32.51,351.88,351.88,0,0,0-167.65,12C160.38,555,105.05,613.18,80,645.3A16.46,16.46,0,0,1,67,651.65Z" transform="translate(-40 -40)" fill="#6d5c8e"/><path d="M879.62,896.09c-.48,0-1,0-1.45-.06-41.72-3.62-104.52-16.69-166.8-58.36-82-54.87-119.79-130.67-135-171a16.49,16.49,0,1,1,30.86-11.66c13.82,36.61,48.11,105.45,122.48,155.2C786.17,848,843.16,859.88,881,863.17a16.49,16.49,0,0,1-1.41,32.92Z" transform="translate(-40 -40)" fill="#6d5c8e"/><path d="M655.14,498.93a16.49,16.49,0,0,1-10.8-29c23.77-20.56,68-66.08,97.43-139.91,37.41-94,27.65-175.55,21.72-206.24a16.49,16.49,0,1,1,32.39-6.26c6.48,33.53,17.18,122.56-23.46,224.7-32,80.34-80.45,130.14-106.5,152.67A16.46,16.46,0,0,1,655.14,498.93Z" transform="translate(-40 -40)" fill="#6d5c8e"/></g></svg>