<svg id="Capa_1" data-name="Capa 1" xmlns="http://www.w3.org/2000/svg" viewBox="0 0 821.57 1053"><title>imagen</title><g id="Nuevo_símbolo_2" data-name="Nuevo símbolo 2"><path d="M933.42,250.72V950.78a98.43,98.43,0,0,1-98.36,98.36H244.93a98.43,98.43,0,0,1-98.36-98.36V129.22a98.43,98.43,0,0,1,98.36-98.36H736.71v121.5a98.43,98.43,0,0,0,98.35,98.36Z" transform="translate(-129.22 -13.5)" fill="#fbf9ff"/><path d="M835.07,1066.5H244.93A115.84,115.84,0,0,1,129.22,950.79V129.21A115.84,115.84,0,0,1,244.93,13.5H736.71a17.36,17.36,0,0,1,17.36,17.36v121.5a81.1,81.1,0,0,0,81,81h98.36a17.36,17.36,0,0,1,17.35,17.36V950.79A115.84,115.84,0,0,1,835.07,1066.5ZM244.93,48.21a81.1,81.1,0,0,0-81,81V950.79a81.1,81.1,0,0,0,81,81H835.07a81.1,81.1,0,0,0,81-81V268.08h-81A115.85,115.85,0,0,1,719.36,152.36V48.21Z" transform="translate(-129.22 -13.5)" fill="#6d5c8e"/><path d="M933.42,247.24v3.48H835.06a98.43,98.43,0,0,1-98.35-98.36V30.86h1.85Z" transform="translate(-129.22 -13.5)" fill="#fbf9ff"/><path d="M933.43,268.08H835.07A115.85,115.85,0,0,1,719.36,152.36V30.86A17.35,17.35,0,0,1,736.71,13.5h1.85a17.33,17.33,0,0,1,12.89,5.74L946.32,235.62a17.36,17.36,0,0,1,4.46,11.62v3.48A17.36,17.36,0,0,1,933.43,268.08ZM754.07,74v78.34a81.1,81.1,0,0,0,81,81h62.5Z" transform="translate(-129.22 -13.5)" fill="#6d5c8e"/><rect x="161.99" y="329.79" width="497.57" height="393.43" fill="#ddcaf7"/><path d="M788.78,754.07H291.22a17.35,17.35,0,0,1-17.36-17.35V343.29a17.36,17.36,0,0,1,17.36-17.36H788.78a17.36,17.36,0,0,1,17.36,17.36V736.72A17.35,17.35,0,0,1,788.78,754.07ZM308.57,719.36H771.43V360.65H308.57Z" transform="translate(-129.22 -13.5)" fill="#6d5c8e"/><polygon points="246.63 723.21 370.28 526.5 439.71 595.93 555.42 433.93 659.56 632.24 659.56 723.21 246.63 723.21" fill="#fbf9ff"/><path d="M788.78,754.07H375.84a17.36,17.36,0,0,1-14.69-26.59L484.81,530.77a17.33,17.33,0,0,1,12.75-8,17.1,17.1,0,0,1,14.21,5l54.94,54.94L670.52,437.34a17.1,17.1,0,0,1,15.31-7.22A17.36,17.36,0,0,1,700,439.36L804.15,637.67a17.3,17.3,0,0,1,2,8.07v91A17.35,17.35,0,0,1,788.78,754.07ZM407.26,719.36H771.43V650l-89-169.56L583.05,619.52a17.34,17.34,0,0,1-26.39,2.18l-54-54Z" transform="translate(-129.22 -13.5)" fill="#6d5c8e"/><polygon points="290.5 387.18 314.42 432.79 359.17 458.29 313.56 482.21 288.06 526.96 264.14 481.35 219.39 455.85 265 431.93 290.5 387.18" fill="#fbf9ff"/><path d="M417.27,552h-.2A11.58,11.58,0,0,1,407,545.83l-22.34-42.61-41.8-23.82a11.58,11.58,0,0,1,.36-20.31l42.6-22.34L409.66,395c2.11-3.67,6.38-5.59,10.26-5.84A11.6,11.6,0,0,1,430,395.3l22.35,42.62,41.79,23.82a11.57,11.57,0,0,1-.35,20.3L451.15,504.4l-23.82,41.8A11.61,11.61,0,0,1,417.27,552Zm-44.55-82.27,26.37,15a11.6,11.6,0,0,1,4.52,4.69l14.09,26.87,15-26.36a11.61,11.61,0,0,1,4.67-4.52l26.89-14.09-26.37-15a11.7,11.7,0,0,1-4.52-4.68L419.3,424.79l-15,26.37a11.53,11.53,0,0,1-4.69,4.52Z" transform="translate(-129.22 -13.5)" fill="#6d5c8e"/></g></svg>