<svg id="Capa_1" data-name="Capa 1" xmlns="http://www.w3.org/2000/svg" viewBox="0 0 856.87 1058"><title>papelera</title><g id="Nuevo_símbolo_2" data-name="Nuevo símbolo 2"><polygon points="351.08 158.7 504.11 17.44 680.68 170.47 351.08 158.7" fill="#f3e0fe"/><path d="M792.25,198.91h-.63L462,187.13a17.45,17.45,0,0,1-11.2-30.25l153-141.25a17.44,17.44,0,0,1,23.26-.37l176.57,153a17.45,17.45,0,0,1-11.42,30.62ZM505.6,153.78l237.87,8.51L616,51.84Z" transform="translate(-111.56 -11)" fill="#6d5c8e"/><polygon points="201.08 166.1 314.76 61.17 445.93 174.85 201.08 166.1" fill="#fbf9ff"/><path d="M557.5,203.28h-.63L312,194.53a17.45,17.45,0,0,1-11.21-30.25L414.5,59.35A17.42,17.42,0,0,1,437.75,59L568.92,172.66a17.44,17.44,0,0,1-11.42,30.62Zm-201.91-42.1,153.13,5.48-82-71.1Z" transform="translate(-111.56 -11)" fill="#6d5c8e"/><rect x="17.44" y="148.61" width="821.99" height="166.15" rx="5.41" fill="#ddcaf7"/><path d="M888.12,343.2H191.88a80.41,80.41,0,0,1-80.32-80.32v-40.4a80.4,80.4,0,0,1,80.32-80.3H888.12a80.4,80.4,0,0,1,80.32,80.3v40.4A80.41,80.41,0,0,1,888.12,343.2ZM191.88,177.06a45.48,45.48,0,0,0-45.44,45.42v40.4a45.49,45.49,0,0,0,45.44,45.44H888.12a45.49,45.49,0,0,0,45.44-45.44v-40.4a45.48,45.48,0,0,0-45.44-45.42Z" transform="translate(-111.56 -11)" fill="#6d5c8e"/><rect x="122.38" y="944.37" width="620.86" height="96.19" rx="4.11" fill="#ddcaf7"/><path d="M807,1069H281.77a65.34,65.34,0,0,1-65.26-65.26c0-36.53,29.28-65.81,65.26-65.81H807a65.35,65.35,0,0,1,65.27,65.26C872.25,1039.72,843,1069,807,1069ZM281.77,972.81a30.66,30.66,0,0,0,0,61.31H807a30.66,30.66,0,0,0,0-61.31Z" transform="translate(-111.56 -11)" fill="#6d5c8e"/><polygon points="83.03 336.62 161.73 948.74 695.15 940 773.85 319.13 100.52 319.13 83.03 336.62" fill="#fbf9ff"/><path d="M885.41,330.13V317H194.59v13.12l-13,1.61,78.7,638.35,13-1.61H806.71l13,1.61,78.7-638.35Zm-676,13.12H870.58l-73.85,599H283.27Z" transform="translate(-111.56 -11)" fill="#6d5c8e"/><path d="M885.41,330.13V317H194.59v13.12l-13,1.61,78.7,638.35,13-1.61H806.71l13,1.61,78.7-638.35Zm-676,13.12H870.58l-73.85,599H283.27Z" transform="translate(-111.56 -11)" fill="#6d5c8e"/><path d="M456,735.06a9.55,9.55,0,0,1-1.2-.07c-3.51-.36-21.51-3-31.83-20.23-1.82-3-10.46-19-2.92-37.59.16-.38.33-.74.51-1.09L454,613.21a11.63,11.63,0,0,1,20.53,10.93l-33.18,62.27c-3.16,8.47,1.31,16.07,1.5,16.38,4.24,7.08,11.86,8.71,13.83,9l70.48,0h0a11.63,11.63,0,0,1,0,23.26l-71.23,0Z" transform="translate(-111.56 -11)" fill="#6d5c8e"/><polygon points="362.7 650.14 350.83 611.2 311.9 623.08 323.39 601.52 362.31 589.64 374.19 628.57 362.7 650.14" fill="#6d5c8e"/><path d="M632.31,735.27h-.22L560.87,734a11.63,11.63,0,0,1,.21-23.25h.22L631.84,712c9-1,13.7-8.43,13.91-8.75,4.39-7,2.44-14.39,1.77-16.42l-32-62.81a11.62,11.62,0,0,1,20.71-10.56l32.37,63.46c.18.36.35.73.5,1.11,1.26,3.29,7,20.55-3.59,37.53-1.85,3-12.15,18-32.18,19.66C633,735.25,632.64,735.27,632.31,735.27Z" transform="translate(-111.56 -11)" fill="#6d5c8e"/><polygon points="482.83 683.17 453.52 711.42 481.79 740.71 457.36 740.27 429.11 710.98 458.4 682.73 482.83 683.17" fill="#6d5c8e"/><path d="M484.42,594.52a11.61,11.61,0,0,1-9.95-17.61l36.65-61.08c.2-.34.42-.66.65-1C513.89,512,525.41,498,545.52,498c3.52,0,21.68.82,33.73,16.86.24.33.47.66.67,1l36.65,61.08a11.63,11.63,0,1,1-19.94,12l-36.3-60.5c-5.64-7.08-14.44-7.16-14.81-7.16-8.3,0-13.58,5.69-14.84,7.2L494.4,588.88A11.62,11.62,0,0,1,484.42,594.52Z" transform="translate(-111.56 -11)" fill="#6d5c8e"/><polygon points="453.49 558.59 492.98 568.47 502.84 528.98 515.41 549.93 505.54 589.41 466.06 579.54 453.49 558.59" fill="#6d5c8e"/></g></svg>