<svg id="Capa_1" data-name="Capa 1" xmlns="http://www.w3.org/2000/svg" viewBox="0 0 1058 1058"><title>pr</title><g id="Nuevo_símbolo_5" data-name="Nuevo símbolo 5"><rect x="17.47" y="17.46" width="1023.07" height="1023.08" rx="330.62" fill="#ddcaf7"/><path d="M728.69,1069H351.31C163.66,1069,11,916.34,11,728.69V351.31C11,163.66,163.66,11,351.31,11H728.69C916.34,11,1069,163.66,1069,351.31V728.69C1069,916.34,916.34,1069,728.69,1069ZM351.31,45.93c-168.39,0-305.38,137-305.38,305.38V728.69c0,168.39,137,305.38,305.38,305.38H728.69c168.39,0,305.38-137,305.38-305.38V351.31c0-168.39-137-305.38-305.38-305.38Z" transform="translate(-11 -11)" fill="#6d5c8e"/><g opacity="0.6"><path d="M599,472.4a207.82,207.82,0,0,1-16.57,82.43,210.62,210.62,0,0,1-113,113,207.59,207.59,0,0,1-82.43,16.58H292.84v76.76q0,24.42-17,41.43t-41.44,17q-24.42,0-41.43-17t-17-41.43V318.87q0-24.4,17-41.43t41.43-17H387.05A207.93,207.93,0,0,1,469.48,277a210.68,210.68,0,0,1,113,113A207.9,207.9,0,0,1,599,472.4Zm-116.89,0a93,93,0,0,0-7.41-36.64,95.34,95.34,0,0,0-51-51,93,93,0,0,0-36.63-7.41H292.84V567.48h94.21a92.65,92.65,0,0,0,36.63-7.42,95.42,95.42,0,0,0,30.53-20.5,96.94,96.94,0,0,0,20.5-30.09A92,92,0,0,0,482.12,472.4Z" transform="translate(-11 -11)" fill="#6d5c8e"/></g><g opacity="0.6"><path d="M691.15,817.63q-23.65,0-39.43-15.33T634.2,761.56V599.47a197.66,197.66,0,0,1,18-79.3,213,213,0,0,1,45.55-64.83,216.47,216.47,0,0,1,66.59-43.81,229.57,229.57,0,0,1,81.05-18q24.51,0,40.74,16.65a62.71,62.71,0,0,1,18,40.3q0,23.66-16.65,39.87t-41.17,17.08a95.8,95.8,0,0,0-68.36,28,101.15,101.15,0,0,0-21,31.1,96,96,0,0,0-7.89,39V765.06q-1.76,22.8-17.07,37.68T691.15,817.63Z" transform="translate(-11 -11)" fill="#6d5c8e"/></g></g></svg>