<svg id="Capa_1" data-name="Capa 1" xmlns="http://www.w3.org/2000/svg" viewBox="0 0 1058.01 1058"><title>ps</title><g id="Nuevo_símbolo_5" data-name="Nuevo símbolo 5"><rect x="17.46" y="17.46" width="1023.08" height="1023.07" rx="322.85" fill="#e8e5ff"/><path d="M728.69,1069H351.31C163.66,1069,11,916.34,11,728.69V351.31C11,163.66,163.66,11,351.31,11H728.69C916.34,11,1069,163.66,1069,351.31V728.69C1069,916.34,916.34,1069,728.69,1069ZM351.31,45.93c-168.39,0-305.39,137-305.39,305.38V728.69c0,168.39,137,305.38,305.39,305.38H728.69c168.39,0,305.39-137,305.39-305.38V351.31c0-168.39-137-305.38-305.39-305.38Z" transform="translate(-11 -11)" fill="#6d5c8e"/><g opacity="0.6"><path d="M549.14,472.39a208,208,0,0,1-16.57,82.44,210.68,210.68,0,0,1-113,113,207.72,207.72,0,0,1-82.43,16.57H243v76.76q0,24.43-17,41.44t-41.44,17q-24.42,0-41.43-17t-17-41.44V318.87q0-24.4,17-41.43t41.43-17H337.17A207.9,207.9,0,0,1,419.6,277a210.68,210.68,0,0,1,113,113A208.1,208.1,0,0,1,549.14,472.39Zm-116.89,0a92.82,92.82,0,0,0-7.42-36.63,95.34,95.34,0,0,0-51-51,93,93,0,0,0-36.63-7.41H243V567.47h94.21a92.6,92.6,0,0,0,36.63-7.41,95.42,95.42,0,0,0,30.53-20.5,96.94,96.94,0,0,0,20.5-30.09A91.8,91.8,0,0,0,432.25,472.39Z" transform="translate(-11 -11)" fill="#6d5c8e"/><path d="M878.85,395.63q23.55,0,39.25,17.88t15.7,37.95q0,22.69-17,39.69t-37.95,17h-150a27.26,27.26,0,0,0-17.88,6.1q-7.42,6.12-7.41,17.45,0,12.22,7.41,18.75A26,26,0,0,0,728.81,557h98.58a112.51,112.51,0,0,1,50.15,11.33,132.55,132.55,0,0,1,40.13,30.1,156.09,156.09,0,0,1,26.61,39.69q9.57,20.94,9.59,47.1a125.44,125.44,0,0,1-10,54.08q-10.91,25.32-29.22,42.75a136.22,136.22,0,0,1-42.74,27.48q-24.43,10-55,10H656.41a55.16,55.16,0,0,1-39.25-15.7q-16.57-15.71-16.57-39.26,0-21.78,15.7-39.68t38.38-18.76h160.5q23.55,0,23.55-20.94,0-23.55-23.55-23.55H719.22a113.91,113.91,0,0,1-49.29-10.9,123.39,123.39,0,0,1-40.12-30.09,152.06,152.06,0,0,1-26.61-41.88A123.79,123.79,0,0,1,593.61,530a131.75,131.75,0,0,1,10-50.59,136.15,136.15,0,0,1,27.48-42.74,133.45,133.45,0,0,1,41-29.22,131.16,131.16,0,0,1,51.46-11.78Z" transform="translate(-11 -11)" fill="#6d5c8e"/></g></g></svg>