<svg id="Capa_1" data-name="Capa 1" xmlns="http://www.w3.org/2000/svg" viewBox="0 0 1059.19 991.07"><title>windows</title><g id="Nuevo_símbolo_2" data-name="Nuevo símbolo 2"><path d="M1014,212.59l0-.06C970.42,144.1,905.24,91.7,830.3,64.91c-33.93-12.06-154.45-46.61-281,15.93q-4.73,2.35-9.34,4.82-4.77-2.55-9.64-5C404.13,18.3,283.62,52.85,249.53,65,174.77,91.7,109.6,144.09,66,212.58,20.4,284.24,2.33,370.68,13.72,462.49c8,65,30.46,110.07,45.51,140.33,44.08,87.95,101,141.52,125.51,164.53,23.5,22,47.91,43.65,72.56,64.26l95.79,75.65,3.38,2.57c21.51,15.93,43.73,31.86,66,47.36L540,1035.53l76.3-50.84,41.3-27.54c26.33-18.34,48.77-34.51,70.62-50.89l80.33-63,2.48-2c28.23-23.22,56.52-48,84.4-74.1,24.35-22.89,81.35-76.52,125.57-165,14.85-29.89,37.29-75.06,45.29-139.74C1077.66,370.63,1059.59,284.21,1014,212.59Z" transform="translate(-10.4 -44.47)" fill="#6d5c8e"/><path d="M897.92,300.39c-15.29-24-50.45-69.26-113.75-91.89-11.62-4.12-91.28-31.19-173.53,9.48A218.83,218.83,0,0,0,540,274.25,218.83,218.83,0,0,0,469.36,218c-82.25-40.67-161.91-13.6-173.53-9.48-63.3,22.63-98.46,67.89-113.75,91.89-42.5,66.82-34.25,139.44-31.8,159.16,5,40.82,19,69.42,31.95,95.56C213.73,618,253,656.63,278.86,680.94c21.86,20.49,44.34,40.36,66.66,59l92.81,73.23c22.93,17,44.18,32.11,62.68,44.95l39,26,39-26c19.57-13.61,42.2-29.66,66.66-48l78-61.15c25.84-21.25,52-44.19,77.52-68,25.84-24.31,65.13-63,96.63-126,13-26.15,26.91-54.59,32-95.41C932.17,439.83,940.42,367.21,897.92,300.39ZM711.09,504.66c-2.3,17.88-8.41,30.42-14.07,41.89-13.76,27.67-31,44.64-42.35,55.19s-22.78,20.64-34.1,30l-34.24,26.91c-10.71,8-20.64,15-29.21,21L540,691l-17.12-11.46c-8.11-5.66-17.43-12.24-27.52-19.73l-40.67-32.11c-9.79-8.25-19.73-16.81-29.36-26C414,591.19,396.89,574.22,383,546.55c-5.66-11.47-11.77-24-14.07-41.89-1.07-8.57-4.58-40.52,14.07-69.88,6.73-10.39,22.17-30.27,49.84-40.36,5.05-1.68,40.06-13.61,76.14,4.28a96.24,96.24,0,0,1,31,24.62,96.35,96.35,0,0,1,31-24.62c36.08-17.89,71.09-6,76.14-4.28,27.82,9.94,43.27,30,49.84,40.36C715.67,464.14,712.16,496.09,711.09,504.66Z" transform="translate(-10.4 -44.47)" fill="#fbf9ff"/></g></svg>