<svg id="a37fe323-7475-484b-93d6-64293c4ec77d" data-name="Capa 1" xmlns="http://www.w3.org/2000/svg" viewBox="0 0 1029.83 978">
  <title>winrawr</title>
  <g>
    <g>
      <rect x="16.12" y="625.04" width="997.59" height="272.07" rx="70.33" fill="#ddcaf7"/>
      <path d="M974.36,965.22h-863a83.48,83.48,0,0,1-83.4-83.38V744.3a83.48,83.48,0,0,1,83.4-83.38h863a83.49,83.49,0,0,1,83.4,83.38V881.84A83.49,83.49,0,0,1,974.36,965.22Zm-863-272.06A51.21,51.21,0,0,0,60.17,744.3V881.84A51.21,51.21,0,0,0,111.33,933h863a51.2,51.2,0,0,0,51.16-51.14V744.3a51.2,51.2,0,0,0-51.16-51.14Z" transform="translate(-27.93 -52)" fill="#6d5c8e"/>
    </g>
    <g>
      <rect x="16.12" y="352.97" width="997.59" height="272.07" rx="67.27" fill="#e8e5ff"/>
      <path d="M974.36,693.16h-863a83.5,83.5,0,0,1-83.4-83.4V472.24a83.49,83.49,0,0,1,83.4-83.39h863a83.49,83.49,0,0,1,83.4,83.39V609.76A83.5,83.5,0,0,1,974.36,693.16Zm-863-272.07a51.22,51.22,0,0,0-51.16,51.15V609.76a51.21,51.21,0,0,0,51.16,51.16h863a51.2,51.2,0,0,0,51.16-51.16V472.24a51.21,51.21,0,0,0-51.16-51.15Z" transform="translate(-27.93 -52)" fill="#6d5c8e"/>
    </g>
    <g>
      <rect x="16.12" y="80.9" width="997.59" height="272.07" rx="67.27" fill="#f3e0fe"/>
      <path d="M974.36,421.09h-863a83.49,83.49,0,0,1-83.4-83.39V200.17a83.49,83.49,0,0,1,83.4-83.39h863a83.49,83.49,0,0,1,83.4,83.39V337.7A83.49,83.49,0,0,1,974.36,421.09ZM111.33,149a51.21,51.21,0,0,0-51.16,51.15V337.7a51.22,51.22,0,0,0,51.16,51.15h863a51.21,51.21,0,0,0,51.16-51.15V200.17A51.2,51.2,0,0,0,974.36,149Z" transform="translate(-27.93 -52)" fill="#6d5c8e"/>
    </g>
    <g>
      <rect x="378.88" y="16.12" width="272.07" height="945.76" rx="67.27" fill="#fbf9ff"/>
      <path d="M611.61,1030H474.08a83.49,83.49,0,0,1-83.39-83.39V135.39A83.49,83.49,0,0,1,474.08,52H611.61A83.49,83.49,0,0,1,695,135.39V946.61A83.49,83.49,0,0,1,611.61,1030ZM474.08,84.24a51.21,51.21,0,0,0-51.15,51.15V946.61a51.21,51.21,0,0,0,51.15,51.15H611.61a51.21,51.21,0,0,0,51.15-51.15V135.39a51.21,51.21,0,0,0-51.15-51.15Z" transform="translate(-27.93 -52)" fill="#6d5c8e"/>
    </g>
    <g>
      <rect x="378.88" y="16.12" width="272.07" height="693.13" rx="67.27" fill="#fbf9ff"/>
      <path d="M611.61,777.36H474.08A83.48,83.48,0,0,1,390.69,694V135.39A83.49,83.49,0,0,1,474.08,52H611.61A83.49,83.49,0,0,1,695,135.39V694A83.48,83.48,0,0,1,611.61,777.36ZM474.08,84.24a51.21,51.21,0,0,0-51.15,51.15V694a51.2,51.2,0,0,0,51.15,51.14H611.61A51.2,51.2,0,0,0,662.76,694V135.39a51.21,51.21,0,0,0-51.15-51.15Z" transform="translate(-27.93 -52)" fill="#6d5c8e"/>
    </g>
    <g>
      <rect x="324.85" y="434.97" width="380.13" height="43.28" rx="16.12" fill="#a390bd"/>
      <path d="M716.79,497.72a5.38,5.38,0,0,1,5.37,5.37v11a5.38,5.38,0,0,1-5.37,5.38H368.9a5.38,5.38,0,0,1-5.37-5.38v-11a5.38,5.38,0,0,1,5.37-5.37H716.79m0-21.5H368.9A26.87,26.87,0,0,0,342,503.09v11A26.87,26.87,0,0,0,368.9,541H716.79a26.87,26.87,0,0,0,26.87-26.87v-11a26.87,26.87,0,0,0-26.87-26.87Z" transform="translate(-27.93 -52)" fill="#6d5c8e"/>
    </g>
    <circle cx="514.92" cy="294.67" r="25.91" fill="#6d5c8e"/>
  </g>
</svg>
