<svg id="b1c2c531-22e6-477f-ac1a-bda9d307bdc3" data-name="Capa 1" xmlns="http://www.w3.org/2000/svg" xmlns:xlink="http://www.w3.org/1999/xlink" viewBox="0 0 1059 1059">
  <defs>
    <clipPath id="aa9760f8-5201-4367-82bf-4c3d92fe73fe" transform="translate(-9 -10)">
      <circle cx="538.5" cy="539.5" r="512.03" fill="none"/>
    </clipPath>
  </defs>
  <title>zteam</title>
  <g id="f5e198bd-3855-4f52-a136-fba110a4a778" data-name="Nuevo símbolo 3">
    <g>
      <g clip-path="url(#aa9760f8-5201-4367-82bf-4c3d92fe73fe)">
        <circle cx="529.5" cy="529.5" r="512.03" fill="#a390bd"/>
        <path d="M752,454.39,498.77,291.27l-99.26,181L731.28,580.77" transform="translate(-9 -10)" fill="#fbf9ff"/>
        <path d="M900.06,1063.19a46.41,46.41,0,0,1-20.25-4.66l-541.45-262a46.57,46.57,0,0,1,1.26-84.44L685.41,557.4,311.06,395.64A46.57,46.57,0,0,1,348,310.13L819.59,513.9a46.58,46.58,0,0,1,.55,85.28L469,756.26,920.38,974.68a46.58,46.58,0,0,1-20.32,88.51Z" transform="translate(-9 -10)" fill="#fbf9ff"/>
        <g>
          <circle cx="384.49" cy="350.46" r="166.34" transform="translate(-144.2 364.53) rotate(-45)" fill="#6d5c8e"/>
          <path d="M384.5,528.44h-.07c-98.13,0-178-79.9-177.92-178s79.88-177.92,178-177.92h.06a178,178,0,0,1-.05,356Zm0-332.67A154.7,154.7,0,0,0,229.8,350.41c0,85.3,69.35,154.71,154.64,154.74h.06a154.69,154.69,0,0,0,0-309.38Z" transform="translate(-9 -10)" fill="#fbf9ff"/>
        </g>
        <circle cx="375.49" cy="340.46" r="116.24" fill="#fbf9ff"/>
        <g>
          <circle cx="770.86" cy="550.74" r="110.46" transform="translate(-172.65 696.38) rotate(-45)" fill="#6d5c8e"/>
          <path d="M770.85,672.84h0a122.1,122.1,0,0,1,0-244.2h0a122.1,122.1,0,0,1,0,244.2Zm0-23.28h0a98.82,98.82,0,0,0,0-197.64h0a98.82,98.82,0,0,0,0,197.64Z" transform="translate(-9 -10)" fill="#fbf9ff"/>
        </g>
        <circle cx="770.86" cy="550.74" r="69.82" transform="translate(-172.65 696.38) rotate(-45)" fill="#fbf9ff"/>
        <g>
          <circle cx="349.25" cy="753.44" r="82.35" transform="translate(-439.47 457.64) rotate(-45)" fill="#6d5c8e"/>
          <path d="M349.25,841.94h0a88.5,88.5,0,0,1,0-177h0a88.5,88.5,0,0,1,0,177Zm0-12.3h0a76.2,76.2,0,0,0,0-152.4h0a76.2,76.2,0,0,0,0,152.4Z" transform="translate(-9 -10)" fill="#fbf9ff"/>
        </g>
        <path d="M900.06,1063.19a46.41,46.41,0,0,1-20.25-4.66l-541.45-262a46.73,46.73,0,0,1-22.77-59.93c5.56-13.86,18-21.15,25.44-25.14,24.52-13.09,146.52-66.83,314.54-137.33-162.82,86.68-191.14,145-186,181.63l.12.83L918.26,973.65c21.9,10.6,34,36,25.62,58.84A46.59,46.59,0,0,1,900.06,1063.19Z" transform="translate(-9 -10)" fill="#fbf9ff"/>
        <circle cx="349.25" cy="753.44" r="52.05" transform="translate(-439.47 457.64) rotate(-45)" fill="#fbf9ff"/>
      </g>
      <path d="M538.5,1069C246.53,1069,9,831.47,9,539.5S246.53,10,538.5,10,1068,247.53,1068,539.5,830.47,1069,538.5,1069Zm0-1024.07C265.8,44.93,43.93,266.8,43.93,539.5S265.8,1034.07,538.5,1034.07,1033.07,812.2,1033.07,539.5,811.2,44.93,538.5,44.93Z" transform="translate(-9 -10)" fill="#6d5c8e"/>
    </g>
  </g>
</svg>
